%MOIN*%
%OFA0B0*%
%FSLAX25Y25*%
%IPPOS*%
%LPD*%
%ADD10C,0.00984*%
%ADD11C,0.01*%
%ADD12C,0.00394*%
%ADD13C,0.00787*%
%ADD24C,0.00984*%
%ADD25C,0.01*%
%ADD26C,0.00394*%
%ADD27C,0.00787*%
%ADD28C,0.00984*%
%ADD29C,0.01*%
%ADD30C,0.00394*%
%ADD31C,0.00787*%
%ADD32C,0.00984*%
%ADD33C,0.01*%
%ADD34C,0.00394*%
%ADD35C,0.00787*%
G01*
G75*
D10*
X0069980Y0302559D02*
X0069242Y0302985D01*
X0069242Y0302132D01*
X0069980Y0302559D01*
X0054823Y0291436D02*
X0054085Y0291863D01*
X0054085Y0291010D01*
X0054823Y0291436D01*
D11*
X0060629Y0268503D02*
X0081890Y0268503D01*
X0060629Y0280708D02*
X0081890Y0280708D01*
X0081890Y0268503D02*
X0081890Y0280708D01*
X0060629Y0268503D02*
X0060629Y0280708D01*
X0086221Y0268503D02*
X0107480Y0268503D01*
X0086221Y0280708D02*
X0107480Y0280708D01*
X0107480Y0268503D02*
X0107480Y0280708D01*
X0086221Y0268503D02*
X0086221Y0280708D01*
X0060629Y0274409D02*
X0081890Y0274409D01*
X0060629Y0287401D02*
X0081890Y0287401D01*
X0081890Y0274409D02*
X0081890Y0287401D01*
X0060629Y0274409D02*
X0060629Y0287401D01*
X0111811Y0264173D02*
X0133070Y0264173D01*
X0111811Y0277165D02*
X0133070Y0277165D01*
X0133070Y0264173D02*
X0133070Y0277165D01*
X0111811Y0264173D02*
X0111811Y0277165D01*
X0024409Y0268503D02*
X0056693Y0268503D01*
X0024409Y0280708D02*
X0056693Y0280708D01*
X0056693Y0268503D02*
X0056693Y0280708D01*
X0024409Y0268503D02*
X0024409Y0280708D01*
X0024409Y0274409D02*
X0056693Y0274409D01*
X0024409Y0287401D02*
X0056693Y0287401D01*
X0056693Y0274409D02*
X0056693Y0287401D01*
X0024409Y0274409D02*
X0024409Y0287401D01*
X0111811Y0258266D02*
X0133070Y0258266D01*
X0111811Y0270472D02*
X0133070Y0270472D01*
X0133070Y0258266D02*
X0133070Y0270472D01*
X0111811Y0258266D02*
X0111811Y0270472D01*
X0086221Y0274409D02*
X0107480Y0274409D01*
X0086221Y0287401D02*
X0107480Y0287401D01*
X0107480Y0274409D02*
X0107480Y0287401D01*
X0086221Y0274409D02*
X0086221Y0287401D01*
X0115894Y0275211D02*
X0113795Y0275211D01*
X0113795Y0273636D01*
X0114845Y0273636D01*
X0113795Y0273636D01*
X0113795Y0272062D01*
X0116944Y0275211D02*
X0116944Y0272062D01*
X0118517Y0272062D01*
X0119043Y0272587D01*
X0119043Y0273112D01*
X0118517Y0273636D01*
X0116944Y0273636D01*
X0118517Y0273636D01*
X0119043Y0274162D01*
X0119043Y0274686D01*
X0118517Y0275211D01*
X0116944Y0275211D01*
X0120092Y0272062D02*
X0120092Y0275211D01*
X0121666Y0275211D01*
X0122191Y0274686D01*
X0122191Y0273636D01*
X0121666Y0273112D01*
X0120092Y0273112D01*
X0123241Y0272062D02*
X0123241Y0275211D01*
X0124815Y0275211D01*
X0125340Y0274686D01*
X0125340Y0273636D01*
X0124815Y0273112D01*
X0123241Y0273112D01*
X0124291Y0273112D02*
X0125340Y0272062D01*
X0126390Y0275211D02*
X0127438Y0275211D01*
X0126914Y0275211D01*
X0126914Y0272062D01*
X0126390Y0272062D01*
X0127438Y0272062D01*
X0129014Y0272062D02*
X0129014Y0275211D01*
X0130063Y0274162D01*
X0131113Y0275211D01*
X0131113Y0272062D01*
X0115567Y0268715D02*
X0115567Y0265565D01*
X0117141Y0265565D01*
X0117666Y0266091D01*
X0117666Y0268190D01*
X0117141Y0268715D01*
X0115567Y0268715D01*
X0126394Y0268715D02*
X0126394Y0266091D01*
X0126918Y0265565D01*
X0127968Y0265565D01*
X0128492Y0266091D01*
X0128492Y0268715D01*
X0100016Y0278950D02*
X0100016Y0275803D01*
X0102115Y0275803D01*
X0103163Y0278950D02*
X0103163Y0276852D01*
X0104214Y0275803D01*
X0105263Y0276852D01*
X0105263Y0278950D01*
X0088793Y0278950D02*
X0088793Y0275803D01*
X0088793Y0277377D01*
X0090894Y0277377D01*
X0090894Y0278950D01*
X0090894Y0275803D01*
X0091944Y0278950D02*
X0091944Y0276852D01*
X0092993Y0275803D01*
X0094043Y0276852D01*
X0094043Y0278950D01*
X0096404Y0285643D02*
X0094307Y0285643D01*
X0094307Y0282496D01*
X0096404Y0282496D01*
X0094307Y0284070D02*
X0095357Y0284070D01*
X0097456Y0282496D02*
X0097456Y0285643D01*
X0099555Y0282496D01*
X0099555Y0285643D01*
X0064515Y0285119D02*
X0063992Y0285643D01*
X0062942Y0285643D01*
X0062417Y0285119D01*
X0062417Y0284595D01*
X0062942Y0284070D01*
X0063992Y0284070D01*
X0064515Y0283545D01*
X0064515Y0283020D01*
X0063992Y0282496D01*
X0062942Y0282496D01*
X0062417Y0283020D01*
X0067665Y0285643D02*
X0065566Y0285643D01*
X0065566Y0282496D01*
X0067665Y0282496D01*
X0065566Y0284070D02*
X0066615Y0284070D01*
X0068714Y0285643D02*
X0068714Y0282496D01*
X0070814Y0282496D01*
X0071863Y0282496D02*
X0071863Y0285643D01*
X0072913Y0284595D01*
X0073962Y0285643D01*
X0073962Y0282496D01*
X0075012Y0282496D02*
X0075012Y0285643D01*
X0076586Y0285643D01*
X0077111Y0285119D01*
X0077111Y0284070D01*
X0076586Y0283545D01*
X0075012Y0283545D01*
X0078160Y0282496D02*
X0078160Y0285643D01*
X0079735Y0285643D01*
X0080259Y0285119D01*
X0080259Y0284070D01*
X0079735Y0283545D01*
X0078160Y0283545D01*
X0064780Y0275803D02*
X0065829Y0275803D01*
X0065303Y0275803D01*
X0065303Y0278950D01*
X0064780Y0278426D01*
X0076197Y0278426D02*
X0076722Y0278950D01*
X0077769Y0278950D01*
X0078296Y0278426D01*
X0078296Y0276328D01*
X0077769Y0275803D01*
X0076722Y0275803D01*
X0076197Y0276328D01*
X0076197Y0278426D01*
X0050605Y0278426D02*
X0051131Y0278950D01*
X0052181Y0278950D01*
X0052705Y0278426D01*
X0052705Y0276328D01*
X0052181Y0275803D01*
X0051131Y0275803D01*
X0050605Y0276328D01*
X0050605Y0278426D01*
X0039976Y0275803D02*
X0041026Y0275803D01*
X0040501Y0275803D01*
X0040501Y0278950D01*
X0039976Y0278426D01*
X0030658Y0275803D02*
X0028559Y0275803D01*
X0030658Y0277902D01*
X0030658Y0278426D01*
X0030133Y0278950D01*
X0029084Y0278950D01*
X0028559Y0278426D01*
X0038926Y0285119D02*
X0038401Y0285643D01*
X0037352Y0285643D01*
X0036827Y0285119D01*
X0036827Y0283020D01*
X0037352Y0282496D01*
X0038401Y0282496D01*
X0038926Y0283020D01*
X0042074Y0285643D02*
X0039975Y0285643D01*
X0039975Y0284070D01*
X0041025Y0284070D01*
X0039975Y0284070D01*
X0039975Y0282496D01*
X0045223Y0285119D02*
X0044698Y0285643D01*
X0043649Y0285643D01*
X0043124Y0285119D01*
X0043124Y0283020D01*
X0043649Y0282496D01*
X0044698Y0282496D01*
X0045223Y0283020D01*
X0045223Y0284070D01*
X0044173Y0284070D01*
X0086827Y0355329D02*
X0086827Y0352181D01*
X0088400Y0352181D01*
X0088926Y0352705D01*
X0088926Y0353230D01*
X0088400Y0353755D01*
X0086827Y0353755D01*
X0088400Y0353755D01*
X0088926Y0354280D01*
X0088926Y0354805D01*
X0088400Y0355329D01*
X0086827Y0355329D01*
X0089975Y0352181D02*
X0089975Y0354280D01*
X0091025Y0355329D01*
X0092074Y0354280D01*
X0092074Y0352181D01*
X0092074Y0353755D01*
X0089975Y0353755D01*
X0093124Y0355329D02*
X0095223Y0355329D01*
X0094174Y0355329D01*
X0094174Y0352181D01*
X0096270Y0355329D02*
X0098372Y0355329D01*
X0097322Y0355329D01*
X0097322Y0352181D01*
X0039189Y0352181D02*
X0039189Y0355329D01*
X0040763Y0355329D01*
X0041288Y0354805D01*
X0041288Y0353755D01*
X0040763Y0353230D01*
X0039189Y0353230D01*
X0042338Y0352181D02*
X0042338Y0355329D01*
X0043912Y0355329D01*
X0044437Y0354805D01*
X0044437Y0353755D01*
X0043912Y0353230D01*
X0042338Y0353230D01*
X0043387Y0353230D02*
X0044437Y0352181D01*
X0045486Y0355329D02*
X0046536Y0355329D01*
X0046010Y0355329D01*
X0046010Y0352181D01*
X0045486Y0352181D01*
X0046536Y0352181D01*
X0048110Y0352181D02*
X0048110Y0355329D01*
X0049160Y0354280D01*
X0050209Y0355329D01*
X0050209Y0352181D01*
X0110184Y0354805D02*
X0109659Y0355329D01*
X0108609Y0355329D01*
X0108085Y0354805D01*
X0108085Y0352705D01*
X0108609Y0352181D01*
X0109659Y0352181D01*
X0110184Y0352705D01*
X0110184Y0353755D01*
X0109134Y0353755D01*
X0111233Y0352181D02*
X0111233Y0355329D01*
X0113332Y0352181D01*
X0113332Y0355329D01*
X0114382Y0355329D02*
X0114382Y0352181D01*
X0115955Y0352181D01*
X0116480Y0352705D01*
X0116480Y0354805D01*
X0115955Y0355329D01*
X0114382Y0355329D01*
X0064121Y0354805D02*
X0063596Y0355329D01*
X0062546Y0355329D01*
X0062022Y0354805D01*
X0062022Y0352705D01*
X0062546Y0352181D01*
X0063596Y0352181D01*
X0064121Y0352705D01*
X0064121Y0353755D01*
X0063071Y0353755D01*
X0065169Y0352181D02*
X0065169Y0355329D01*
X0067269Y0352181D01*
X0067269Y0355329D01*
X0068319Y0355329D02*
X0068319Y0352181D01*
X0069893Y0352181D01*
X0070418Y0352705D01*
X0070418Y0354805D01*
X0069893Y0355329D01*
X0068319Y0355329D01*
X0037612Y0326194D02*
X0038662Y0326194D01*
X0038137Y0326194D01*
X0038137Y0323046D01*
X0037612Y0323046D01*
X0038662Y0323046D01*
X0040236Y0323046D02*
X0040236Y0326194D01*
X0042335Y0323046D01*
X0042335Y0326194D01*
X0039713Y0306772D02*
X0039189Y0307298D01*
X0038139Y0307298D01*
X0037614Y0306772D01*
X0037614Y0304674D01*
X0038139Y0304149D01*
X0039189Y0304149D01*
X0039713Y0304674D01*
X0039713Y0305723D01*
X0038664Y0305723D01*
X0040763Y0304149D02*
X0040763Y0307298D01*
X0042862Y0304149D01*
X0042862Y0307298D01*
X0043911Y0307298D02*
X0043911Y0304149D01*
X0045486Y0304149D01*
X0046010Y0304674D01*
X0046010Y0306772D01*
X0045486Y0307298D01*
X0043911Y0307298D01*
X0124755Y0305986D02*
X0124230Y0306510D01*
X0123180Y0306510D01*
X0122656Y0305986D01*
X0122656Y0305461D01*
X0123180Y0304936D01*
X0124230Y0304936D01*
X0124755Y0304411D01*
X0124755Y0303887D01*
X0124230Y0303362D01*
X0123180Y0303362D01*
X0122656Y0303887D01*
X0125804Y0306510D02*
X0127902Y0306510D01*
X0126854Y0306510D01*
X0126854Y0303362D01*
X0128953Y0303362D02*
X0128953Y0305461D01*
X0130002Y0306510D01*
X0131051Y0305461D01*
X0131051Y0303362D01*
X0131051Y0304936D01*
X0128953Y0304936D01*
X0132101Y0306510D02*
X0134200Y0306510D01*
X0133151Y0306510D01*
X0133151Y0303362D01*
X0135250Y0306510D02*
X0135250Y0303887D01*
X0135775Y0303362D01*
X0136824Y0303362D01*
X0137349Y0303887D01*
X0137349Y0306510D01*
X0140498Y0305986D02*
X0139973Y0306510D01*
X0138922Y0306510D01*
X0138399Y0305986D01*
X0138399Y0305461D01*
X0138922Y0304936D01*
X0139973Y0304936D01*
X0140498Y0304411D01*
X0140498Y0303887D01*
X0139973Y0303362D01*
X0138922Y0303362D01*
X0138399Y0303887D01*
X0141547Y0305986D02*
X0142072Y0306510D01*
X0143121Y0306510D01*
X0143646Y0305986D01*
X0143646Y0303887D01*
X0143121Y0303362D01*
X0142072Y0303362D01*
X0141547Y0303887D01*
X0141547Y0305986D01*
X0125804Y0316222D02*
X0125279Y0316747D01*
X0124230Y0316747D01*
X0123705Y0316222D01*
X0123705Y0315697D01*
X0124230Y0315172D01*
X0125279Y0315172D01*
X0125804Y0314646D01*
X0125804Y0314123D01*
X0125279Y0313598D01*
X0124230Y0313598D01*
X0123705Y0314123D01*
X0126854Y0316747D02*
X0128953Y0316747D01*
X0127902Y0316747D01*
X0127902Y0313598D01*
X0130002Y0313598D02*
X0130002Y0315697D01*
X0131051Y0316747D01*
X0132101Y0315697D01*
X0132101Y0313598D01*
X0132101Y0315172D01*
X0130002Y0315172D01*
X0133151Y0316747D02*
X0135250Y0316747D01*
X0134200Y0316747D01*
X0134200Y0313598D01*
X0136300Y0316747D02*
X0136300Y0314123D01*
X0136824Y0313598D01*
X0137874Y0313598D01*
X0138399Y0314123D01*
X0138399Y0316747D01*
X0141547Y0316222D02*
X0141022Y0316747D01*
X0139973Y0316747D01*
X0139448Y0316222D01*
X0139448Y0315697D01*
X0139973Y0315172D01*
X0141022Y0315172D01*
X0141547Y0314646D01*
X0141547Y0314123D01*
X0141022Y0313598D01*
X0139973Y0313598D01*
X0139448Y0314123D01*
X0142597Y0313598D02*
X0143646Y0313598D01*
X0143121Y0313598D01*
X0143121Y0316747D01*
X0142597Y0316222D01*
X0124755Y0326458D02*
X0124230Y0326983D01*
X0123180Y0326983D01*
X0122656Y0326458D01*
X0122656Y0325933D01*
X0123180Y0325408D01*
X0124230Y0325408D01*
X0124755Y0324884D01*
X0124755Y0324359D01*
X0124230Y0323834D01*
X0123180Y0323834D01*
X0122656Y0324359D01*
X0125804Y0326983D02*
X0127902Y0326983D01*
X0126854Y0326983D01*
X0126854Y0323834D01*
X0128953Y0323834D02*
X0128953Y0325933D01*
X0130002Y0326983D01*
X0131051Y0325933D01*
X0131051Y0323834D01*
X0131051Y0325408D01*
X0128953Y0325408D01*
X0132101Y0326983D02*
X0134200Y0326983D01*
X0133151Y0326983D01*
X0133151Y0323834D01*
X0135250Y0326983D02*
X0135250Y0324359D01*
X0135775Y0323834D01*
X0136824Y0323834D01*
X0137349Y0324359D01*
X0137349Y0326983D01*
X0140498Y0326458D02*
X0139973Y0326983D01*
X0138922Y0326983D01*
X0138399Y0326458D01*
X0138399Y0325933D01*
X0138922Y0325408D01*
X0139973Y0325408D01*
X0140498Y0324884D01*
X0140498Y0324359D01*
X0139973Y0323834D01*
X0138922Y0323834D01*
X0138399Y0324359D01*
X0143646Y0323834D02*
X0141547Y0323834D01*
X0143646Y0325933D01*
X0143646Y0326458D01*
X0143121Y0326983D01*
X0142072Y0326983D01*
X0141547Y0326458D01*
X0128953Y0289581D02*
X0128953Y0286433D01*
X0131051Y0286433D01*
X0132101Y0289581D02*
X0132101Y0287482D01*
X0133151Y0286433D01*
X0134200Y0287482D01*
X0134200Y0289581D01*
X0136824Y0289581D02*
X0135775Y0289581D01*
X0135250Y0289056D01*
X0135250Y0286956D01*
X0135775Y0286433D01*
X0136824Y0286433D01*
X0137349Y0286956D01*
X0137349Y0289056D01*
X0136824Y0289581D01*
X0138399Y0289581D02*
X0138399Y0286956D01*
X0138922Y0286433D01*
X0139973Y0286433D01*
X0140498Y0286956D01*
X0140498Y0289581D01*
X0141547Y0289581D02*
X0143646Y0289581D01*
X0142597Y0289581D01*
X0142597Y0286433D01*
X0137349Y0279214D02*
X0136824Y0279738D01*
X0135775Y0279738D01*
X0135250Y0279214D01*
X0135250Y0277115D01*
X0135775Y0276590D01*
X0136824Y0276590D01*
X0137349Y0277115D01*
X0137349Y0278164D01*
X0136300Y0278164D01*
X0138399Y0276590D02*
X0138399Y0279738D01*
X0140498Y0276590D01*
X0140498Y0279738D01*
X0141547Y0279738D02*
X0141547Y0276590D01*
X0143121Y0276590D01*
X0143646Y0277115D01*
X0143646Y0279214D01*
X0143121Y0279738D01*
X0141547Y0279738D01*
X0137349Y0342206D02*
X0136824Y0342731D01*
X0135775Y0342731D01*
X0135250Y0342206D01*
X0135250Y0340107D01*
X0135775Y0339582D01*
X0136824Y0339582D01*
X0137349Y0340107D01*
X0137349Y0341157D01*
X0136300Y0341157D01*
X0138399Y0339582D02*
X0138399Y0342731D01*
X0140498Y0339582D01*
X0140498Y0342731D01*
X0141547Y0342731D02*
X0141547Y0339582D01*
X0143121Y0339582D01*
X0143646Y0340107D01*
X0143646Y0342206D01*
X0143121Y0342731D01*
X0141547Y0342731D01*
X0128953Y0352573D02*
X0128953Y0349425D01*
X0128953Y0350999D01*
X0131051Y0350999D01*
X0131051Y0352573D01*
X0131051Y0349425D01*
X0132101Y0352573D02*
X0132101Y0350474D01*
X0133151Y0349425D01*
X0134200Y0350474D01*
X0134200Y0352573D01*
X0136824Y0352573D02*
X0135775Y0352573D01*
X0135250Y0352049D01*
X0135250Y0349950D01*
X0135775Y0349425D01*
X0136824Y0349425D01*
X0137349Y0349950D01*
X0137349Y0352049D01*
X0136824Y0352573D01*
X0138399Y0352573D02*
X0138399Y0349950D01*
X0138922Y0349425D01*
X0139973Y0349425D01*
X0140498Y0349950D01*
X0140498Y0352573D01*
X0141547Y0352573D02*
X0143646Y0352573D01*
X0142597Y0352573D01*
X0142597Y0349425D01*
X0064502Y0326378D02*
X0064502Y0329527D01*
X0066076Y0329527D01*
X0066601Y0329002D01*
X0066601Y0327952D01*
X0066076Y0327427D01*
X0064502Y0327427D01*
X0065552Y0327427D02*
X0066601Y0326378D01*
X0067651Y0329002D02*
X0068176Y0329527D01*
X0069225Y0329527D01*
X0069750Y0329002D01*
X0069750Y0328477D01*
X0069225Y0327952D01*
X0069750Y0327427D01*
X0069750Y0326903D01*
X0069225Y0326378D01*
X0068176Y0326378D01*
X0067651Y0326903D01*
X0067651Y0327427D01*
X0068176Y0327952D01*
X0067651Y0328477D01*
X0067651Y0329002D01*
X0068176Y0327952D02*
X0069225Y0327952D01*
X0049869Y0334513D02*
X0049344Y0335038D01*
X0048295Y0335038D01*
X0047770Y0334513D01*
X0047770Y0332415D01*
X0048295Y0331890D01*
X0049344Y0331890D01*
X0049869Y0332415D01*
X0052493Y0331890D02*
X0052493Y0335038D01*
X0050919Y0333464D01*
X0053017Y0333464D01*
X0063846Y0304330D02*
X0063846Y0301706D01*
X0064371Y0301181D01*
X0065420Y0301181D01*
X0065945Y0301706D01*
X0065945Y0304330D01*
X0066994Y0301181D02*
X0068044Y0301181D01*
X0067519Y0301181D01*
X0067519Y0304330D01*
X0066994Y0303805D01*
X0003411Y0344093D02*
X0002363Y0344093D01*
X0002888Y0344093D01*
X0002888Y0341470D01*
X0002363Y0340945D01*
X0001838Y0340945D01*
X0001313Y0341470D01*
X0004462Y0343569D02*
X0004986Y0344093D01*
X0006036Y0344093D01*
X0006561Y0343569D01*
X0006561Y0343044D01*
X0006036Y0342519D01*
X0005511Y0342519D01*
X0006036Y0342519D01*
X0006561Y0341994D01*
X0006561Y0341470D01*
X0006036Y0340945D01*
X0004986Y0340945D01*
X0004462Y0341470D01*
X0029528Y0391338D02*
X0028477Y0391338D01*
X0029003Y0391338D01*
X0029003Y0388714D01*
X0028477Y0388189D01*
X0027953Y0388189D01*
X0027428Y0388714D01*
X0030577Y0388189D02*
X0031627Y0388189D01*
X0031102Y0388189D01*
X0031102Y0391338D01*
X0030577Y0390813D01*
X0127428Y0391338D02*
X0126379Y0391338D01*
X0126903Y0391338D01*
X0126903Y0388714D01*
X0126379Y0388189D01*
X0125854Y0388189D01*
X0125329Y0388714D01*
X0130577Y0388189D02*
X0128478Y0388189D01*
X0130577Y0390288D01*
X0130577Y0390813D01*
X0130050Y0391338D01*
X0129002Y0391338D01*
X0128478Y0390813D01*
X0094612Y0337402D02*
X0094612Y0340550D01*
X0096186Y0340550D01*
X0096711Y0340025D01*
X0096711Y0338976D01*
X0096186Y0338451D01*
X0094612Y0338451D01*
X0095660Y0338451D02*
X0096711Y0337402D01*
X0097760Y0337926D02*
X0098285Y0337402D01*
X0099335Y0337402D01*
X0099860Y0337926D01*
X0099860Y0340025D01*
X0099335Y0340550D01*
X0098285Y0340550D01*
X0097760Y0340025D01*
X0097760Y0339501D01*
X0098285Y0338976D01*
X0099860Y0338976D01*
X0122967Y0290945D02*
X0122967Y0294093D01*
X0124540Y0294093D01*
X0125066Y0293569D01*
X0125066Y0292519D01*
X0124540Y0291993D01*
X0122967Y0291993D01*
X0124016Y0291993D02*
X0125066Y0290945D01*
X0128214Y0294093D02*
X0127165Y0293569D01*
X0126115Y0292519D01*
X0126115Y0291470D01*
X0126640Y0290945D01*
X0127689Y0290945D01*
X0128214Y0291470D01*
X0128214Y0291993D01*
X0127689Y0292519D01*
X0126115Y0292519D01*
X0115987Y0291034D02*
X0115987Y0294183D01*
X0117562Y0294183D01*
X0118087Y0293658D01*
X0118087Y0292608D01*
X0117562Y0292084D01*
X0115987Y0292084D01*
X0117036Y0292084D02*
X0118087Y0291034D01*
X0120710Y0291034D02*
X0120710Y0294183D01*
X0119136Y0292608D01*
X0121235Y0292608D01*
X0082415Y0337402D02*
X0082415Y0340550D01*
X0083990Y0340550D01*
X0084515Y0340025D01*
X0084515Y0338976D01*
X0083990Y0338451D01*
X0082415Y0338451D01*
X0083465Y0338451D02*
X0084515Y0337402D01*
X0085564Y0340550D02*
X0087663Y0340550D01*
X0087663Y0340025D01*
X0085564Y0337926D01*
X0085564Y0337402D01*
X0070211Y0337402D02*
X0070211Y0340550D01*
X0071785Y0340550D01*
X0072309Y0340025D01*
X0072309Y0338976D01*
X0071785Y0338451D01*
X0070211Y0338451D01*
X0071260Y0338451D02*
X0072309Y0337402D01*
X0075459Y0340550D02*
X0073359Y0340550D01*
X0073359Y0338976D01*
X0074409Y0339501D01*
X0074934Y0339501D01*
X0075459Y0338976D01*
X0075459Y0337926D01*
X0074934Y0337402D01*
X0073884Y0337402D01*
X0073359Y0337926D01*
X0058006Y0337402D02*
X0058006Y0340550D01*
X0059580Y0340550D01*
X0060105Y0340025D01*
X0060105Y0338976D01*
X0059580Y0338451D01*
X0058006Y0338451D01*
X0059056Y0338451D02*
X0060105Y0337402D01*
X0061155Y0340025D02*
X0061680Y0340550D01*
X0062729Y0340550D01*
X0063254Y0340025D01*
X0063254Y0339501D01*
X0062729Y0338976D01*
X0062204Y0338976D01*
X0062729Y0338976D01*
X0063254Y0338451D01*
X0063254Y0337926D01*
X0062729Y0337402D01*
X0061680Y0337402D01*
X0061155Y0337926D01*
X0087927Y0326378D02*
X0087927Y0329527D01*
X0089502Y0329527D01*
X0090026Y0329002D01*
X0090026Y0327952D01*
X0089502Y0327427D01*
X0087927Y0327427D01*
X0088977Y0327427D02*
X0090026Y0326378D01*
X0093175Y0326378D02*
X0091076Y0326378D01*
X0093175Y0328477D01*
X0093175Y0329002D01*
X0092650Y0329527D01*
X0091601Y0329527D01*
X0091076Y0329002D01*
X0096326Y0312599D02*
X0096326Y0315747D01*
X0097900Y0315747D01*
X0098425Y0315222D01*
X0098425Y0314172D01*
X0097900Y0313648D01*
X0096326Y0313648D01*
X0097376Y0313648D02*
X0098425Y0312599D01*
X0099475Y0312599D02*
X0100523Y0312599D01*
X0099999Y0312599D01*
X0099999Y0315747D01*
X0099475Y0315222D01*
X0088867Y0269552D02*
X0088867Y0272700D01*
X0090443Y0272700D01*
X0090968Y0272175D01*
X0090968Y0271126D01*
X0090443Y0270601D01*
X0088867Y0270601D01*
X0094116Y0272700D02*
X0093067Y0272175D01*
X0092017Y0271126D01*
X0092017Y0270076D01*
X0092542Y0269552D01*
X0093591Y0269552D01*
X0094116Y0270076D01*
X0094116Y0270601D01*
X0093591Y0271126D01*
X0092017Y0271126D01*
X0048164Y0269552D02*
X0048164Y0272700D01*
X0049738Y0272700D01*
X0050263Y0272175D01*
X0050263Y0271126D01*
X0049738Y0270601D01*
X0048164Y0270601D01*
X0051312Y0269552D02*
X0052362Y0269552D01*
X0051837Y0269552D01*
X0051837Y0272700D01*
X0051312Y0272175D01*
X0053935Y0269552D02*
X0054986Y0269552D01*
X0054461Y0269552D01*
X0054461Y0272700D01*
X0053935Y0272175D01*
X0074369Y0269552D02*
X0074369Y0272700D01*
X0075943Y0272700D01*
X0076466Y0272175D01*
X0076466Y0271126D01*
X0075943Y0270601D01*
X0074369Y0270601D01*
X0079616Y0272700D02*
X0077517Y0272700D01*
X0077517Y0271126D01*
X0078566Y0271651D01*
X0079091Y0271651D01*
X0079616Y0271126D01*
X0079616Y0270076D01*
X0079091Y0269552D01*
X0078042Y0269552D01*
X0077517Y0270076D01*
X0027067Y0269552D02*
X0027067Y0272700D01*
X0028643Y0272700D01*
X0029168Y0272175D01*
X0029168Y0271126D01*
X0028643Y0270601D01*
X0027067Y0270601D01*
X0031791Y0269552D02*
X0031791Y0272700D01*
X0030217Y0271126D01*
X0032316Y0271126D01*
X0147770Y0331102D02*
X0147770Y0334251D01*
X0149344Y0334251D01*
X0149869Y0333726D01*
X0149869Y0332677D01*
X0149344Y0332152D01*
X0147770Y0332152D01*
X0150918Y0333726D02*
X0151443Y0334251D01*
X0152493Y0334251D01*
X0153017Y0333726D01*
X0153017Y0333202D01*
X0152493Y0332677D01*
X0151968Y0332677D01*
X0152493Y0332677D01*
X0153017Y0332152D01*
X0153017Y0331627D01*
X0152493Y0331102D01*
X0151443Y0331102D01*
X0150918Y0331627D01*
X0038168Y0269552D02*
X0038168Y0272700D01*
X0039743Y0272700D01*
X0040268Y0272175D01*
X0040268Y0271126D01*
X0039743Y0270601D01*
X0038168Y0270601D01*
X0041317Y0272700D02*
X0043416Y0272700D01*
X0043416Y0272175D01*
X0041317Y0270076D01*
X0041317Y0269552D01*
X0148295Y0294488D02*
X0148295Y0297637D01*
X0149869Y0297637D01*
X0150393Y0297112D01*
X0150393Y0296062D01*
X0149869Y0295538D01*
X0148295Y0295538D01*
X0151443Y0294488D02*
X0152493Y0294488D01*
X0151968Y0294488D01*
X0151968Y0297637D01*
X0151443Y0297112D01*
X0147770Y0357874D02*
X0147770Y0361022D01*
X0149344Y0361022D01*
X0149869Y0360498D01*
X0149869Y0359448D01*
X0149344Y0358924D01*
X0147770Y0358924D01*
X0153017Y0357874D02*
X0150918Y0357874D01*
X0153017Y0359973D01*
X0153017Y0360498D01*
X0152493Y0361022D01*
X0151443Y0361022D01*
X0150918Y0360498D01*
X0099968Y0269552D02*
X0099968Y0272700D01*
X0101543Y0272700D01*
X0102068Y0272175D01*
X0102068Y0271126D01*
X0101543Y0270601D01*
X0099968Y0270601D01*
X0103116Y0270076D02*
X0103641Y0269552D01*
X0104691Y0269552D01*
X0105216Y0270076D01*
X0105216Y0272175D01*
X0104691Y0272700D01*
X0103641Y0272700D01*
X0103116Y0272175D01*
X0103116Y0271651D01*
X0103641Y0271126D01*
X0105216Y0271126D01*
X0112993Y0259645D02*
X0112993Y0262794D01*
X0114568Y0262794D01*
X0115093Y0262270D01*
X0115093Y0261220D01*
X0114568Y0260695D01*
X0112993Y0260695D01*
X0116141Y0259645D02*
X0117192Y0259645D01*
X0116667Y0259645D01*
X0116667Y0262794D01*
X0116141Y0262270D01*
X0120865Y0259645D02*
X0118766Y0259645D01*
X0120865Y0261744D01*
X0120865Y0262270D01*
X0120340Y0262794D01*
X0119290Y0262794D01*
X0118766Y0262270D01*
X0063368Y0269552D02*
X0063368Y0272700D01*
X0064942Y0272700D01*
X0065468Y0272175D01*
X0065468Y0271126D01*
X0064942Y0270601D01*
X0063368Y0270601D01*
X0066517Y0272175D02*
X0067042Y0272700D01*
X0068091Y0272700D01*
X0068616Y0272175D01*
X0068616Y0271651D01*
X0068091Y0271126D01*
X0068616Y0270601D01*
X0068616Y0270076D01*
X0068091Y0269552D01*
X0067042Y0269552D01*
X0066517Y0270076D01*
X0066517Y0270601D01*
X0067042Y0271126D01*
X0066517Y0271651D01*
X0066517Y0272175D01*
X0067042Y0271126D02*
X0068091Y0271126D01*
X0123994Y0259645D02*
X0123994Y0262794D01*
X0125567Y0262794D01*
X0126093Y0262270D01*
X0126093Y0261220D01*
X0125567Y0260695D01*
X0123994Y0260695D01*
X0127142Y0259645D02*
X0128192Y0259645D01*
X0127667Y0259645D01*
X0127667Y0262794D01*
X0127142Y0262270D01*
X0129766Y0262270D02*
X0130291Y0262794D01*
X0131340Y0262794D01*
X0131865Y0262270D01*
X0131865Y0260170D01*
X0131340Y0259645D01*
X0130291Y0259645D01*
X0129766Y0260170D01*
X0129766Y0262270D01*
X0074935Y0301180D02*
X0074935Y0298032D01*
X0077034Y0298032D01*
X0080183Y0298032D02*
X0078084Y0298032D01*
X0080183Y0300131D01*
X0080183Y0300655D01*
X0079658Y0301180D01*
X0078609Y0301180D01*
X0078084Y0300655D01*
X0047507Y0292125D02*
X0047507Y0288976D01*
X0049606Y0288976D01*
X0050656Y0288976D02*
X0051705Y0288976D01*
X0051181Y0288976D01*
X0051181Y0292125D01*
X0050656Y0291599D01*
X0092389Y0294356D02*
X0091864Y0294881D01*
X0090814Y0294881D01*
X0090290Y0294356D01*
X0090290Y0292257D01*
X0090814Y0291732D01*
X0091864Y0291732D01*
X0092389Y0292257D01*
X0095537Y0294881D02*
X0093437Y0294881D01*
X0093437Y0293307D01*
X0094488Y0293831D01*
X0095012Y0293831D01*
X0095537Y0293307D01*
X0095537Y0292257D01*
X0095012Y0291732D01*
X0093963Y0291732D01*
X0093437Y0292257D01*
X0107743Y0334513D02*
X0107217Y0335038D01*
X0106169Y0335038D01*
X0105644Y0334513D01*
X0105644Y0332415D01*
X0106169Y0331890D01*
X0107217Y0331890D01*
X0107743Y0332415D01*
X0108792Y0334513D02*
X0109317Y0335038D01*
X0110367Y0335038D01*
X0110891Y0334513D01*
X0110891Y0333988D01*
X0110367Y0333464D01*
X0109842Y0333464D01*
X0110367Y0333464D01*
X0110891Y0332939D01*
X0110891Y0332415D01*
X0110367Y0331890D01*
X0109317Y0331890D01*
X0108792Y0332415D01*
X0107743Y0297506D02*
X0107217Y0298030D01*
X0106169Y0298030D01*
X0105644Y0297506D01*
X0105644Y0295407D01*
X0106169Y0294882D01*
X0107217Y0294882D01*
X0107743Y0295407D01*
X0110891Y0294882D02*
X0108792Y0294882D01*
X0110891Y0296981D01*
X0110891Y0297506D01*
X0110367Y0298030D01*
X0109317Y0298030D01*
X0108792Y0297506D01*
X0064567Y0294356D02*
X0064042Y0294881D01*
X0062992Y0294881D01*
X0062468Y0294356D01*
X0062468Y0292257D01*
X0062992Y0291732D01*
X0064042Y0291732D01*
X0064567Y0292257D01*
X0065617Y0291732D02*
X0066666Y0291732D01*
X0066141Y0291732D01*
X0066141Y0294881D01*
X0065617Y0294356D01*
D12*
X0068898Y0305118D02*
X0070965Y0305118D01*
X0068898Y0305118D02*
X0068898Y0307184D01*
X0068898Y0322736D02*
X0068898Y0324803D01*
X0070965Y0324803D01*
X0086516Y0324803D02*
X0088583Y0324803D01*
X0088583Y0322736D02*
X0088583Y0324803D01*
X0086516Y0305118D02*
X0088583Y0305118D01*
X0088583Y0307184D01*
D13*
X0058465Y0326181D02*
X0060039Y0326181D01*
X0058465Y0323425D02*
X0060039Y0323425D01*
X0059841Y0335630D02*
X0061417Y0335630D01*
X0059841Y0332873D02*
X0061417Y0332873D01*
X0080610Y0288861D02*
X0080610Y0296965D01*
X0073721Y0288861D02*
X0073721Y0296965D01*
X0089000Y0287377D02*
X0089000Y0298449D01*
X0081866Y0287377D02*
X0081866Y0298449D01*
X0053556Y0317901D02*
X0053556Y0327768D01*
X0046444Y0317901D02*
X0046444Y0327768D01*
X0097638Y0323425D02*
X0099213Y0323425D01*
X0097638Y0326181D02*
X0099213Y0326181D01*
X0097638Y0317519D02*
X0099213Y0317519D01*
X0097638Y0320274D02*
X0099213Y0320274D01*
X0104701Y0301550D02*
X0104701Y0312622D01*
X0111835Y0301550D02*
X0111835Y0312622D01*
X0104701Y0317298D02*
X0104701Y0328370D01*
X0111835Y0317298D02*
X0111835Y0328370D01*
X0096457Y0332873D02*
X0098032Y0332873D01*
X0096457Y0335630D02*
X0098032Y0335630D01*
X0084252Y0332873D02*
X0085827Y0332873D01*
X0084252Y0335630D02*
X0085827Y0335630D01*
X0072047Y0332873D02*
X0073622Y0332873D01*
X0072047Y0335630D02*
X0073622Y0335630D01*
X0067716Y0288767D02*
X0067716Y0297059D01*
X0074803Y0288767D02*
X0074803Y0297059D01*
X0126770Y0283858D02*
X0126770Y0285433D01*
X0124016Y0283858D02*
X0124016Y0285433D01*
X0119882Y0283858D02*
X0119882Y0285433D01*
X0117126Y0283858D02*
X0117126Y0285433D01*
X0121929Y0238149D02*
X0121929Y0258149D01*
X0111928Y0258149D02*
X0121929Y0258149D01*
X0111928Y0238149D02*
X0111928Y0258149D01*
X0111928Y0238149D02*
X0121929Y0238149D01*
X0132953Y0238149D02*
X0132953Y0258149D01*
X0122953Y0258149D02*
X0132953Y0258149D01*
X0122953Y0238149D02*
X0122953Y0258149D01*
X0122953Y0238149D02*
X0132953Y0238149D01*
X0097362Y0268149D02*
X0107362Y0268149D01*
X0107362Y0238149D02*
X0107362Y0268149D01*
X0097362Y0238149D02*
X0107362Y0238149D01*
X0097362Y0238149D02*
X0097362Y0268149D01*
X0086339Y0268149D02*
X0096339Y0268149D01*
X0096339Y0238149D02*
X0096339Y0268149D01*
X0086339Y0238149D02*
X0096339Y0238149D01*
X0086339Y0238149D02*
X0086339Y0268149D01*
X0071772Y0268149D02*
X0081772Y0268149D01*
X0081772Y0238149D02*
X0081772Y0268149D01*
X0071772Y0238149D02*
X0081772Y0238149D01*
X0071772Y0238149D02*
X0071772Y0268149D01*
X0060748Y0268149D02*
X0070748Y0268149D01*
X0070748Y0238149D02*
X0070748Y0268149D01*
X0060748Y0238149D02*
X0070748Y0238149D01*
X0060748Y0238149D02*
X0060748Y0268149D01*
X0046575Y0268149D02*
X0056575Y0268149D01*
X0056575Y0238149D02*
X0056575Y0268149D01*
X0046575Y0238149D02*
X0056575Y0238149D01*
X0046575Y0238149D02*
X0046575Y0268149D01*
X0035551Y0268149D02*
X0045551Y0268149D01*
X0045551Y0238149D02*
X0045551Y0268149D01*
X0035551Y0238149D02*
X0045551Y0238149D01*
X0035551Y0238149D02*
X0035551Y0268149D01*
X0024527Y0268149D02*
X0034528Y0268149D01*
X0034528Y0238149D02*
X0034528Y0268149D01*
X0024527Y0238149D02*
X0034528Y0238149D01*
X0024527Y0238149D02*
X0024527Y0268149D01*
X0145394Y0299960D02*
X0155394Y0299960D01*
X0145394Y0299960D02*
X0145394Y0329960D01*
X0155394Y0329960D01*
X0155394Y0299960D02*
X0155394Y0329960D01*
X0155394Y0273188D02*
X0155394Y0293188D01*
X0145394Y0293188D02*
X0155394Y0293188D01*
X0145394Y0273188D02*
X0145394Y0293188D01*
X0145394Y0273188D02*
X0155394Y0273188D01*
X0155394Y0336574D02*
X0155394Y0356574D01*
X0145394Y0356574D02*
X0155394Y0356574D01*
X0145394Y0336574D02*
X0145394Y0356574D01*
X0145394Y0336574D02*
X0155394Y0336574D01*
X0000787Y0295275D02*
X0029724Y0295275D01*
X0032479Y0295275D02*
X0036220Y0295275D01*
X0036220Y0334645D01*
X0000787Y0295275D02*
X0000787Y0334645D01*
X0009252Y0334645D01*
X0012009Y0334645D02*
X0036220Y0334645D01*
X0008268Y0337008D02*
X0012992Y0337008D01*
X0008268Y0337008D02*
X0009251Y0334645D01*
X0012009Y0334645D02*
X0012992Y0337008D01*
X0032479Y0295275D02*
X0033464Y0292913D01*
X0028738Y0292913D02*
X0033464Y0292913D01*
X0028738Y0292913D02*
X0029723Y0295275D01*
X0082677Y0363976D02*
X0082677Y0392913D01*
X0082677Y0357480D02*
X0082677Y0361219D01*
X0082677Y0357480D02*
X0122047Y0357480D01*
X0082677Y0392913D02*
X0122047Y0392913D01*
X0122047Y0384448D02*
X0122047Y0392913D01*
X0122047Y0357480D02*
X0122047Y0381692D01*
X0124410Y0380708D02*
X0124410Y0385433D01*
X0122047Y0384449D02*
X0124410Y0385433D01*
X0122047Y0381692D02*
X0124410Y0380708D01*
X0080313Y0360237D02*
X0082677Y0361219D01*
X0080313Y0360237D02*
X0080313Y0364961D01*
X0082677Y0363978D01*
X0035432Y0363976D02*
X0035432Y0392913D01*
X0035432Y0357480D02*
X0035432Y0361219D01*
X0035432Y0357480D02*
X0074802Y0357480D01*
X0035432Y0392913D02*
X0074802Y0392913D01*
X0074802Y0384448D02*
X0074802Y0392913D01*
X0074802Y0357480D02*
X0074802Y0381692D01*
X0077165Y0380708D02*
X0077165Y0385433D01*
X0074802Y0384449D02*
X0077165Y0385433D01*
X0074802Y0381692D02*
X0077165Y0380708D01*
X0033070Y0360236D02*
X0035432Y0361219D01*
X0033070Y0360236D02*
X0033070Y0364961D01*
X0035432Y0363978D01*
X0046504Y0300885D02*
X0046504Y0303838D01*
X0062156Y0300885D02*
X0062156Y0303838D01*
G04 next file*
G04*
G04 #@! TF.GenerationSoftware,Altium Limited,Altium Designer,21.7.2 (23)*
G04*
G04 Layer_Color=65535*
G04 skipping 70
G04*
G04 #@! TF.SameCoordinates,4C6A6D40-5D94-4475-8A21-F7F3A9D7BEC8*
G04*
G04*
G04 #@! TF.FilePolarity,Positive*
G04*
G01*
G75*
D24*
X0239271Y0302559D02*
X0238533Y0302985D01*
X0238533Y0302132D01*
X0239271Y0302559D01*
X0224114Y0291436D02*
X0223376Y0291863D01*
X0223376Y0291010D01*
X0224114Y0291436D01*
D25*
X0229921Y0268503D02*
X0251181Y0268503D01*
X0229921Y0280708D02*
X0251181Y0280708D01*
X0251181Y0268503D02*
X0251181Y0280708D01*
X0229921Y0268503D02*
X0229921Y0280708D01*
X0255512Y0268503D02*
X0276771Y0268503D01*
X0255512Y0280708D02*
X0276771Y0280708D01*
X0276771Y0268503D02*
X0276771Y0280708D01*
X0255512Y0268503D02*
X0255512Y0280708D01*
X0229921Y0274409D02*
X0251181Y0274409D01*
X0229921Y0287401D02*
X0251181Y0287401D01*
X0251181Y0274409D02*
X0251181Y0287401D01*
X0229921Y0274409D02*
X0229921Y0287401D01*
X0281102Y0264173D02*
X0302362Y0264173D01*
X0281102Y0277165D02*
X0302362Y0277165D01*
X0302362Y0264173D02*
X0302362Y0277165D01*
X0281102Y0264173D02*
X0281102Y0277165D01*
X0193700Y0268503D02*
X0225984Y0268503D01*
X0193700Y0280708D02*
X0225984Y0280708D01*
X0225984Y0268503D02*
X0225984Y0280708D01*
X0193700Y0268503D02*
X0193700Y0280708D01*
X0193700Y0274409D02*
X0225984Y0274409D01*
X0193700Y0287401D02*
X0225984Y0287401D01*
X0225984Y0274409D02*
X0225984Y0287401D01*
X0193700Y0274409D02*
X0193700Y0287401D01*
X0281102Y0258266D02*
X0302362Y0258266D01*
X0281102Y0270472D02*
X0302362Y0270472D01*
X0302362Y0258266D02*
X0302362Y0270472D01*
X0281102Y0258266D02*
X0281102Y0270472D01*
X0255512Y0274409D02*
X0276771Y0274409D01*
X0255512Y0287401D02*
X0276771Y0287401D01*
X0276771Y0274409D02*
X0276771Y0287401D01*
X0255512Y0274409D02*
X0255512Y0287401D01*
X0285185Y0275211D02*
X0283086Y0275211D01*
X0283086Y0273636D01*
X0284136Y0273636D01*
X0283086Y0273636D01*
X0283086Y0272062D01*
X0286235Y0275211D02*
X0286235Y0272062D01*
X0287809Y0272062D01*
X0288334Y0272587D01*
X0288334Y0273112D01*
X0287809Y0273636D01*
X0286235Y0273636D01*
X0287809Y0273636D01*
X0288334Y0274162D01*
X0288334Y0274686D01*
X0287809Y0275211D01*
X0286235Y0275211D01*
X0289383Y0272062D02*
X0289383Y0275211D01*
X0290958Y0275211D01*
X0291482Y0274686D01*
X0291482Y0273636D01*
X0290958Y0273112D01*
X0289383Y0273112D01*
X0292532Y0272062D02*
X0292532Y0275211D01*
X0294106Y0275211D01*
X0294630Y0274686D01*
X0294630Y0273636D01*
X0294106Y0273112D01*
X0292532Y0273112D01*
X0293582Y0273112D02*
X0294630Y0272062D01*
X0295681Y0275211D02*
X0296730Y0275211D01*
X0296205Y0275211D01*
X0296205Y0272062D01*
X0295681Y0272062D01*
X0296730Y0272062D01*
X0298305Y0272062D02*
X0298305Y0275211D01*
X0299353Y0274162D01*
X0300404Y0275211D01*
X0300404Y0272062D01*
X0284858Y0268715D02*
X0284858Y0265565D01*
X0286432Y0265565D01*
X0286956Y0266091D01*
X0286956Y0268190D01*
X0286432Y0268715D01*
X0284858Y0268715D01*
X0295685Y0268715D02*
X0295685Y0266091D01*
X0296209Y0265565D01*
X0297259Y0265565D01*
X0297784Y0266091D01*
X0297784Y0268715D01*
X0269307Y0278950D02*
X0269307Y0275803D01*
X0271406Y0275803D01*
X0272454Y0278950D02*
X0272454Y0276852D01*
X0273505Y0275803D01*
X0274554Y0276852D01*
X0274554Y0278950D01*
X0258086Y0278950D02*
X0258086Y0275803D01*
X0258086Y0277377D01*
X0260185Y0277377D01*
X0260185Y0278950D01*
X0260185Y0275803D01*
X0261235Y0278950D02*
X0261235Y0276852D01*
X0262284Y0275803D01*
X0263334Y0276852D01*
X0263334Y0278950D01*
X0265697Y0285643D02*
X0263598Y0285643D01*
X0263598Y0282496D01*
X0265697Y0282496D01*
X0263598Y0284070D02*
X0264648Y0284070D01*
X0266746Y0282496D02*
X0266746Y0285643D01*
X0268846Y0282496D01*
X0268846Y0285643D01*
X0233807Y0285119D02*
X0233283Y0285643D01*
X0232233Y0285643D01*
X0231707Y0285119D01*
X0231707Y0284595D01*
X0232233Y0284070D01*
X0233283Y0284070D01*
X0233807Y0283545D01*
X0233807Y0283020D01*
X0233283Y0282496D01*
X0232233Y0282496D01*
X0231707Y0283020D01*
X0236956Y0285643D02*
X0234857Y0285643D01*
X0234857Y0282496D01*
X0236956Y0282496D01*
X0234857Y0284070D02*
X0235906Y0284070D01*
X0238005Y0285643D02*
X0238005Y0282496D01*
X0240105Y0282496D01*
X0241154Y0282496D02*
X0241154Y0285643D01*
X0242204Y0284595D01*
X0243253Y0285643D01*
X0243253Y0282496D01*
X0244302Y0282496D02*
X0244302Y0285643D01*
X0245877Y0285643D01*
X0246402Y0285119D01*
X0246402Y0284070D01*
X0245877Y0283545D01*
X0244302Y0283545D01*
X0247451Y0282496D02*
X0247451Y0285643D01*
X0249026Y0285643D01*
X0249549Y0285119D01*
X0249549Y0284070D01*
X0249026Y0283545D01*
X0247451Y0283545D01*
X0234071Y0275803D02*
X0235120Y0275803D01*
X0234595Y0275803D01*
X0234595Y0278950D01*
X0234071Y0278426D01*
X0245488Y0278426D02*
X0246013Y0278950D01*
X0247061Y0278950D01*
X0247587Y0278426D01*
X0247587Y0276328D01*
X0247061Y0275803D01*
X0246013Y0275803D01*
X0245488Y0276328D01*
X0245488Y0278426D01*
X0219897Y0278426D02*
X0220421Y0278950D01*
X0221471Y0278950D01*
X0221996Y0278426D01*
X0221996Y0276328D01*
X0221471Y0275803D01*
X0220421Y0275803D01*
X0219897Y0276328D01*
X0219897Y0278426D01*
X0209267Y0275803D02*
X0210317Y0275803D01*
X0209791Y0275803D01*
X0209791Y0278950D01*
X0209267Y0278426D01*
X0199949Y0275803D02*
X0197850Y0275803D01*
X0199949Y0277902D01*
X0199949Y0278426D01*
X0199424Y0278950D01*
X0198375Y0278950D01*
X0197850Y0278426D01*
X0208217Y0285119D02*
X0207692Y0285643D01*
X0206643Y0285643D01*
X0206117Y0285119D01*
X0206117Y0283020D01*
X0206643Y0282496D01*
X0207692Y0282496D01*
X0208217Y0283020D01*
X0211364Y0285643D02*
X0209266Y0285643D01*
X0209266Y0284070D01*
X0210316Y0284070D01*
X0209266Y0284070D01*
X0209266Y0282496D01*
X0214514Y0285119D02*
X0213988Y0285643D01*
X0212940Y0285643D01*
X0212415Y0285119D01*
X0212415Y0283020D01*
X0212940Y0282496D01*
X0213988Y0282496D01*
X0214514Y0283020D01*
X0214514Y0284070D01*
X0213464Y0284070D01*
X0256117Y0355329D02*
X0256117Y0352181D01*
X0257692Y0352181D01*
X0258217Y0352705D01*
X0258217Y0353230D01*
X0257692Y0353755D01*
X0256117Y0353755D01*
X0257692Y0353755D01*
X0258217Y0354280D01*
X0258217Y0354805D01*
X0257692Y0355329D01*
X0256117Y0355329D01*
X0259266Y0352181D02*
X0259266Y0354280D01*
X0260316Y0355329D01*
X0261364Y0354280D01*
X0261364Y0352181D01*
X0261364Y0353755D01*
X0259266Y0353755D01*
X0262415Y0355329D02*
X0264514Y0355329D01*
X0263465Y0355329D01*
X0263465Y0352181D01*
X0265563Y0355329D02*
X0267663Y0355329D01*
X0266613Y0355329D01*
X0266613Y0352181D01*
X0208480Y0352181D02*
X0208480Y0355329D01*
X0210054Y0355329D01*
X0210578Y0354805D01*
X0210578Y0353755D01*
X0210054Y0353230D01*
X0208480Y0353230D01*
X0211628Y0352181D02*
X0211628Y0355329D01*
X0213203Y0355329D01*
X0213728Y0354805D01*
X0213728Y0353755D01*
X0213203Y0353230D01*
X0211628Y0353230D01*
X0212678Y0353230D02*
X0213728Y0352181D01*
X0214777Y0355329D02*
X0215827Y0355329D01*
X0215302Y0355329D01*
X0215302Y0352181D01*
X0214777Y0352181D01*
X0215827Y0352181D01*
X0217401Y0352181D02*
X0217401Y0355329D01*
X0218451Y0354280D01*
X0219499Y0355329D01*
X0219499Y0352181D01*
X0279475Y0354805D02*
X0278950Y0355329D01*
X0277900Y0355329D01*
X0277376Y0354805D01*
X0277376Y0352705D01*
X0277900Y0352181D01*
X0278950Y0352181D01*
X0279475Y0352705D01*
X0279475Y0353755D01*
X0278425Y0353755D01*
X0280524Y0352181D02*
X0280524Y0355329D01*
X0282623Y0352181D01*
X0282623Y0355329D01*
X0283673Y0355329D02*
X0283673Y0352181D01*
X0285247Y0352181D01*
X0285772Y0352705D01*
X0285772Y0354805D01*
X0285247Y0355329D01*
X0283673Y0355329D01*
X0233412Y0354805D02*
X0232887Y0355329D01*
X0231836Y0355329D01*
X0231313Y0354805D01*
X0231313Y0352705D01*
X0231836Y0352181D01*
X0232887Y0352181D01*
X0233412Y0352705D01*
X0233412Y0353755D01*
X0232362Y0353755D01*
X0234461Y0352181D02*
X0234461Y0355329D01*
X0236560Y0352181D01*
X0236560Y0355329D01*
X0237610Y0355329D02*
X0237610Y0352181D01*
X0239184Y0352181D01*
X0239709Y0352705D01*
X0239709Y0354805D01*
X0239184Y0355329D01*
X0237610Y0355329D01*
X0206903Y0326194D02*
X0207953Y0326194D01*
X0207428Y0326194D01*
X0207428Y0323046D01*
X0206903Y0323046D01*
X0207953Y0323046D01*
X0209527Y0323046D02*
X0209527Y0326194D01*
X0211626Y0323046D01*
X0211626Y0326194D01*
X0209004Y0306772D02*
X0208480Y0307298D01*
X0207430Y0307298D01*
X0206904Y0306772D01*
X0206904Y0304674D01*
X0207430Y0304149D01*
X0208480Y0304149D01*
X0209004Y0304674D01*
X0209004Y0305723D01*
X0207954Y0305723D01*
X0210054Y0304149D02*
X0210054Y0307298D01*
X0212153Y0304149D01*
X0212153Y0307298D01*
X0213201Y0307298D02*
X0213201Y0304149D01*
X0214777Y0304149D01*
X0215301Y0304674D01*
X0215301Y0306772D01*
X0214777Y0307298D01*
X0213201Y0307298D01*
X0294046Y0305986D02*
X0293521Y0306510D01*
X0292471Y0306510D01*
X0291947Y0305986D01*
X0291947Y0305461D01*
X0292471Y0304936D01*
X0293521Y0304936D01*
X0294046Y0304411D01*
X0294046Y0303887D01*
X0293521Y0303362D01*
X0292471Y0303362D01*
X0291947Y0303887D01*
X0295095Y0306510D02*
X0297194Y0306510D01*
X0296144Y0306510D01*
X0296144Y0303362D01*
X0298244Y0303362D02*
X0298244Y0305461D01*
X0299293Y0306510D01*
X0300343Y0305461D01*
X0300343Y0303362D01*
X0300343Y0304936D01*
X0298244Y0304936D01*
X0301392Y0306510D02*
X0303491Y0306510D01*
X0302442Y0306510D01*
X0302442Y0303362D01*
X0304541Y0306510D02*
X0304541Y0303887D01*
X0305065Y0303362D01*
X0306115Y0303362D01*
X0306640Y0303887D01*
X0306640Y0306510D01*
X0309789Y0305986D02*
X0309264Y0306510D01*
X0308214Y0306510D01*
X0307690Y0305986D01*
X0307690Y0305461D01*
X0308214Y0304936D01*
X0309264Y0304936D01*
X0309789Y0304411D01*
X0309789Y0303887D01*
X0309264Y0303362D01*
X0308214Y0303362D01*
X0307690Y0303887D01*
X0310838Y0305986D02*
X0311363Y0306510D01*
X0312412Y0306510D01*
X0312937Y0305986D01*
X0312937Y0303887D01*
X0312412Y0303362D01*
X0311363Y0303362D01*
X0310838Y0303887D01*
X0310838Y0305986D01*
X0295095Y0316222D02*
X0294570Y0316747D01*
X0293521Y0316747D01*
X0292996Y0316222D01*
X0292996Y0315697D01*
X0293521Y0315172D01*
X0294570Y0315172D01*
X0295095Y0314646D01*
X0295095Y0314123D01*
X0294570Y0313598D01*
X0293521Y0313598D01*
X0292996Y0314123D01*
X0296144Y0316747D02*
X0298244Y0316747D01*
X0297194Y0316747D01*
X0297194Y0313598D01*
X0299293Y0313598D02*
X0299293Y0315697D01*
X0300343Y0316747D01*
X0301392Y0315697D01*
X0301392Y0313598D01*
X0301392Y0315172D01*
X0299293Y0315172D01*
X0302442Y0316747D02*
X0304541Y0316747D01*
X0303491Y0316747D01*
X0303491Y0313598D01*
X0305590Y0316747D02*
X0305590Y0314123D01*
X0306115Y0313598D01*
X0307165Y0313598D01*
X0307690Y0314123D01*
X0307690Y0316747D01*
X0310838Y0316222D02*
X0310313Y0316747D01*
X0309264Y0316747D01*
X0308738Y0316222D01*
X0308738Y0315697D01*
X0309264Y0315172D01*
X0310313Y0315172D01*
X0310838Y0314646D01*
X0310838Y0314123D01*
X0310313Y0313598D01*
X0309264Y0313598D01*
X0308738Y0314123D01*
X0311888Y0313598D02*
X0312937Y0313598D01*
X0312412Y0313598D01*
X0312412Y0316747D01*
X0311888Y0316222D01*
X0294046Y0326458D02*
X0293521Y0326983D01*
X0292471Y0326983D01*
X0291947Y0326458D01*
X0291947Y0325933D01*
X0292471Y0325408D01*
X0293521Y0325408D01*
X0294046Y0324884D01*
X0294046Y0324359D01*
X0293521Y0323834D01*
X0292471Y0323834D01*
X0291947Y0324359D01*
X0295095Y0326983D02*
X0297194Y0326983D01*
X0296144Y0326983D01*
X0296144Y0323834D01*
X0298244Y0323834D02*
X0298244Y0325933D01*
X0299293Y0326983D01*
X0300343Y0325933D01*
X0300343Y0323834D01*
X0300343Y0325408D01*
X0298244Y0325408D01*
X0301392Y0326983D02*
X0303491Y0326983D01*
X0302442Y0326983D01*
X0302442Y0323834D01*
X0304541Y0326983D02*
X0304541Y0324359D01*
X0305065Y0323834D01*
X0306115Y0323834D01*
X0306640Y0324359D01*
X0306640Y0326983D01*
X0309789Y0326458D02*
X0309264Y0326983D01*
X0308214Y0326983D01*
X0307690Y0326458D01*
X0307690Y0325933D01*
X0308214Y0325408D01*
X0309264Y0325408D01*
X0309789Y0324884D01*
X0309789Y0324359D01*
X0309264Y0323834D01*
X0308214Y0323834D01*
X0307690Y0324359D01*
X0312937Y0323834D02*
X0310838Y0323834D01*
X0312937Y0325933D01*
X0312937Y0326458D01*
X0312412Y0326983D01*
X0311363Y0326983D01*
X0310838Y0326458D01*
X0298244Y0289581D02*
X0298244Y0286433D01*
X0300343Y0286433D01*
X0301392Y0289581D02*
X0301392Y0287482D01*
X0302442Y0286433D01*
X0303491Y0287482D01*
X0303491Y0289581D01*
X0306115Y0289581D02*
X0305065Y0289581D01*
X0304541Y0289056D01*
X0304541Y0286956D01*
X0305065Y0286433D01*
X0306115Y0286433D01*
X0306640Y0286956D01*
X0306640Y0289056D01*
X0306115Y0289581D01*
X0307690Y0289581D02*
X0307690Y0286956D01*
X0308214Y0286433D01*
X0309264Y0286433D01*
X0309789Y0286956D01*
X0309789Y0289581D01*
X0310838Y0289581D02*
X0312937Y0289581D01*
X0311888Y0289581D01*
X0311888Y0286433D01*
X0306640Y0279214D02*
X0306115Y0279738D01*
X0305065Y0279738D01*
X0304541Y0279214D01*
X0304541Y0277115D01*
X0305065Y0276590D01*
X0306115Y0276590D01*
X0306640Y0277115D01*
X0306640Y0278164D01*
X0305590Y0278164D01*
X0307690Y0276590D02*
X0307690Y0279738D01*
X0309789Y0276590D01*
X0309789Y0279738D01*
X0310838Y0279738D02*
X0310838Y0276590D01*
X0312412Y0276590D01*
X0312937Y0277115D01*
X0312937Y0279214D01*
X0312412Y0279738D01*
X0310838Y0279738D01*
X0306640Y0342206D02*
X0306115Y0342731D01*
X0305065Y0342731D01*
X0304541Y0342206D01*
X0304541Y0340107D01*
X0305065Y0339582D01*
X0306115Y0339582D01*
X0306640Y0340107D01*
X0306640Y0341157D01*
X0305590Y0341157D01*
X0307690Y0339582D02*
X0307690Y0342731D01*
X0309789Y0339582D01*
X0309789Y0342731D01*
X0310838Y0342731D02*
X0310838Y0339582D01*
X0312412Y0339582D01*
X0312937Y0340107D01*
X0312937Y0342206D01*
X0312412Y0342731D01*
X0310838Y0342731D01*
X0298244Y0352573D02*
X0298244Y0349425D01*
X0298244Y0350999D01*
X0300343Y0350999D01*
X0300343Y0352573D01*
X0300343Y0349425D01*
X0301392Y0352573D02*
X0301392Y0350474D01*
X0302442Y0349425D01*
X0303491Y0350474D01*
X0303491Y0352573D01*
X0306115Y0352573D02*
X0305065Y0352573D01*
X0304541Y0352049D01*
X0304541Y0349950D01*
X0305065Y0349425D01*
X0306115Y0349425D01*
X0306640Y0349950D01*
X0306640Y0352049D01*
X0306115Y0352573D01*
X0307690Y0352573D02*
X0307690Y0349950D01*
X0308214Y0349425D01*
X0309264Y0349425D01*
X0309789Y0349950D01*
X0309789Y0352573D01*
X0310838Y0352573D02*
X0312937Y0352573D01*
X0311888Y0352573D01*
X0311888Y0349425D01*
X0233793Y0326378D02*
X0233793Y0329527D01*
X0235367Y0329527D01*
X0235892Y0329002D01*
X0235892Y0327952D01*
X0235367Y0327427D01*
X0233793Y0327427D01*
X0234843Y0327427D02*
X0235892Y0326378D01*
X0236942Y0329002D02*
X0237467Y0329527D01*
X0238516Y0329527D01*
X0239041Y0329002D01*
X0239041Y0328477D01*
X0238516Y0327952D01*
X0239041Y0327427D01*
X0239041Y0326903D01*
X0238516Y0326378D01*
X0237467Y0326378D01*
X0236942Y0326903D01*
X0236942Y0327427D01*
X0237467Y0327952D01*
X0236942Y0328477D01*
X0236942Y0329002D01*
X0237467Y0327952D02*
X0238516Y0327952D01*
X0219160Y0334513D02*
X0218635Y0335038D01*
X0217586Y0335038D01*
X0217061Y0334513D01*
X0217061Y0332415D01*
X0217586Y0331890D01*
X0218635Y0331890D01*
X0219160Y0332415D01*
X0221783Y0331890D02*
X0221783Y0335038D01*
X0220210Y0333464D01*
X0222308Y0333464D01*
X0233137Y0304330D02*
X0233137Y0301706D01*
X0233662Y0301181D01*
X0234710Y0301181D01*
X0235236Y0301706D01*
X0235236Y0304330D01*
X0236285Y0301181D02*
X0237334Y0301181D01*
X0236810Y0301181D01*
X0236810Y0304330D01*
X0236285Y0303805D01*
X0172703Y0344093D02*
X0171654Y0344093D01*
X0172178Y0344093D01*
X0172178Y0341470D01*
X0171654Y0340945D01*
X0171129Y0340945D01*
X0170604Y0341470D01*
X0173752Y0343569D02*
X0174277Y0344093D01*
X0175327Y0344093D01*
X0175852Y0343569D01*
X0175852Y0343044D01*
X0175327Y0342519D01*
X0174802Y0342519D01*
X0175327Y0342519D01*
X0175852Y0341994D01*
X0175852Y0341470D01*
X0175327Y0340945D01*
X0174277Y0340945D01*
X0173752Y0341470D01*
X0198818Y0391338D02*
X0197769Y0391338D01*
X0198294Y0391338D01*
X0198294Y0388714D01*
X0197769Y0388189D01*
X0197244Y0388189D01*
X0196719Y0388714D01*
X0199868Y0388189D02*
X0200918Y0388189D01*
X0200393Y0388189D01*
X0200393Y0391338D01*
X0199868Y0390813D01*
X0296719Y0391338D02*
X0295670Y0391338D01*
X0296194Y0391338D01*
X0296194Y0388714D01*
X0295670Y0388189D01*
X0295144Y0388189D01*
X0294620Y0388714D01*
X0299867Y0388189D02*
X0297769Y0388189D01*
X0299867Y0390288D01*
X0299867Y0390813D01*
X0299343Y0391338D01*
X0298292Y0391338D01*
X0297769Y0390813D01*
X0263903Y0337402D02*
X0263903Y0340550D01*
X0265477Y0340550D01*
X0266002Y0340025D01*
X0266002Y0338976D01*
X0265477Y0338451D01*
X0263903Y0338451D01*
X0264952Y0338451D02*
X0266002Y0337402D01*
X0267051Y0337926D02*
X0267576Y0337402D01*
X0268626Y0337402D01*
X0269150Y0337926D01*
X0269150Y0340025D01*
X0268626Y0340550D01*
X0267576Y0340550D01*
X0267051Y0340025D01*
X0267051Y0339501D01*
X0267576Y0338976D01*
X0269150Y0338976D01*
X0292258Y0290945D02*
X0292258Y0294093D01*
X0293832Y0294093D01*
X0294356Y0293569D01*
X0294356Y0292519D01*
X0293832Y0291993D01*
X0292258Y0291993D01*
X0293307Y0291993D02*
X0294356Y0290945D01*
X0297504Y0294093D02*
X0296456Y0293569D01*
X0295406Y0292519D01*
X0295406Y0291470D01*
X0295931Y0290945D01*
X0296981Y0290945D01*
X0297504Y0291470D01*
X0297504Y0291993D01*
X0296981Y0292519D01*
X0295406Y0292519D01*
X0285278Y0291034D02*
X0285278Y0294183D01*
X0286853Y0294183D01*
X0287378Y0293658D01*
X0287378Y0292608D01*
X0286853Y0292084D01*
X0285278Y0292084D01*
X0286328Y0292084D02*
X0287378Y0291034D01*
X0290001Y0291034D02*
X0290001Y0294183D01*
X0288427Y0292608D01*
X0290526Y0292608D01*
X0251705Y0337402D02*
X0251705Y0340550D01*
X0253281Y0340550D01*
X0253806Y0340025D01*
X0253806Y0338976D01*
X0253281Y0338451D01*
X0251705Y0338451D01*
X0252755Y0338451D02*
X0253806Y0337402D01*
X0254855Y0340550D02*
X0256954Y0340550D01*
X0256954Y0340025D01*
X0254855Y0337926D01*
X0254855Y0337402D01*
X0239502Y0337402D02*
X0239502Y0340550D01*
X0241075Y0340550D01*
X0241601Y0340025D01*
X0241601Y0338976D01*
X0241075Y0338451D01*
X0239502Y0338451D01*
X0240551Y0338451D02*
X0241601Y0337402D01*
X0244749Y0340550D02*
X0242650Y0340550D01*
X0242650Y0338976D01*
X0243699Y0339501D01*
X0244225Y0339501D01*
X0244749Y0338976D01*
X0244749Y0337926D01*
X0244225Y0337402D01*
X0243175Y0337402D01*
X0242650Y0337926D01*
X0227297Y0337402D02*
X0227297Y0340550D01*
X0228871Y0340550D01*
X0229396Y0340025D01*
X0229396Y0338976D01*
X0228871Y0338451D01*
X0227297Y0338451D01*
X0228347Y0338451D02*
X0229396Y0337402D01*
X0230446Y0340025D02*
X0230971Y0340550D01*
X0232019Y0340550D01*
X0232545Y0340025D01*
X0232545Y0339501D01*
X0232019Y0338976D01*
X0231495Y0338976D01*
X0232019Y0338976D01*
X0232545Y0338451D01*
X0232545Y0337926D01*
X0232019Y0337402D01*
X0230971Y0337402D01*
X0230446Y0337926D01*
X0257218Y0326378D02*
X0257218Y0329527D01*
X0258793Y0329527D01*
X0259317Y0329002D01*
X0259317Y0327952D01*
X0258793Y0327427D01*
X0257218Y0327427D01*
X0258268Y0327427D02*
X0259317Y0326378D01*
X0262466Y0326378D02*
X0260367Y0326378D01*
X0262466Y0328477D01*
X0262466Y0329002D01*
X0261940Y0329527D01*
X0260892Y0329527D01*
X0260367Y0329002D01*
X0265617Y0312599D02*
X0265617Y0315747D01*
X0267191Y0315747D01*
X0267716Y0315222D01*
X0267716Y0314172D01*
X0267191Y0313648D01*
X0265617Y0313648D01*
X0266666Y0313648D02*
X0267716Y0312599D01*
X0268766Y0312599D02*
X0269815Y0312599D01*
X0269290Y0312599D01*
X0269290Y0315747D01*
X0268766Y0315222D01*
X0258158Y0269552D02*
X0258158Y0272700D01*
X0259734Y0272700D01*
X0260258Y0272175D01*
X0260258Y0271126D01*
X0259734Y0270601D01*
X0258158Y0270601D01*
X0263407Y0272700D02*
X0262358Y0272175D01*
X0261308Y0271126D01*
X0261308Y0270076D01*
X0261832Y0269552D01*
X0262882Y0269552D01*
X0263407Y0270076D01*
X0263407Y0270601D01*
X0262882Y0271126D01*
X0261308Y0271126D01*
X0217455Y0269552D02*
X0217455Y0272700D01*
X0219029Y0272700D01*
X0219553Y0272175D01*
X0219553Y0271126D01*
X0219029Y0270601D01*
X0217455Y0270601D01*
X0220603Y0269552D02*
X0221653Y0269552D01*
X0221128Y0269552D01*
X0221128Y0272700D01*
X0220603Y0272175D01*
X0223227Y0269552D02*
X0224277Y0269552D01*
X0223752Y0269552D01*
X0223752Y0272700D01*
X0223227Y0272175D01*
X0243660Y0269552D02*
X0243660Y0272700D01*
X0245234Y0272700D01*
X0245759Y0272175D01*
X0245759Y0271126D01*
X0245234Y0270601D01*
X0243660Y0270601D01*
X0248907Y0272700D02*
X0246808Y0272700D01*
X0246808Y0271126D01*
X0247858Y0271651D01*
X0248382Y0271651D01*
X0248907Y0271126D01*
X0248907Y0270076D01*
X0248382Y0269552D01*
X0247332Y0269552D01*
X0246808Y0270076D01*
X0196359Y0269552D02*
X0196359Y0272700D01*
X0197934Y0272700D01*
X0198459Y0272175D01*
X0198459Y0271126D01*
X0197934Y0270601D01*
X0196359Y0270601D01*
X0201081Y0269552D02*
X0201081Y0272700D01*
X0199508Y0271126D01*
X0201607Y0271126D01*
X0317061Y0331102D02*
X0317061Y0334251D01*
X0318635Y0334251D01*
X0319160Y0333726D01*
X0319160Y0332677D01*
X0318635Y0332152D01*
X0317061Y0332152D01*
X0320209Y0333726D02*
X0320734Y0334251D01*
X0321784Y0334251D01*
X0322308Y0333726D01*
X0322308Y0333202D01*
X0321784Y0332677D01*
X0321259Y0332677D01*
X0321784Y0332677D01*
X0322308Y0332152D01*
X0322308Y0331627D01*
X0321784Y0331102D01*
X0320734Y0331102D01*
X0320209Y0331627D01*
X0207459Y0269552D02*
X0207459Y0272700D01*
X0209034Y0272700D01*
X0209559Y0272175D01*
X0209559Y0271126D01*
X0209034Y0270601D01*
X0207459Y0270601D01*
X0210608Y0272700D02*
X0212706Y0272700D01*
X0212706Y0272175D01*
X0210608Y0270076D01*
X0210608Y0269552D01*
X0317586Y0294488D02*
X0317586Y0297637D01*
X0319160Y0297637D01*
X0319685Y0297112D01*
X0319685Y0296062D01*
X0319160Y0295538D01*
X0317586Y0295538D01*
X0320734Y0294488D02*
X0321784Y0294488D01*
X0321259Y0294488D01*
X0321259Y0297637D01*
X0320734Y0297112D01*
X0317061Y0357874D02*
X0317061Y0361022D01*
X0318635Y0361022D01*
X0319160Y0360498D01*
X0319160Y0359448D01*
X0318635Y0358924D01*
X0317061Y0358924D01*
X0322308Y0357874D02*
X0320209Y0357874D01*
X0322308Y0359973D01*
X0322308Y0360498D01*
X0321784Y0361022D01*
X0320734Y0361022D01*
X0320209Y0360498D01*
X0269259Y0269552D02*
X0269259Y0272700D01*
X0270834Y0272700D01*
X0271359Y0272175D01*
X0271359Y0271126D01*
X0270834Y0270601D01*
X0269259Y0270601D01*
X0272408Y0270076D02*
X0272933Y0269552D01*
X0273982Y0269552D01*
X0274507Y0270076D01*
X0274507Y0272175D01*
X0273982Y0272700D01*
X0272933Y0272700D01*
X0272408Y0272175D01*
X0272408Y0271651D01*
X0272933Y0271126D01*
X0274507Y0271126D01*
X0282284Y0259645D02*
X0282284Y0262794D01*
X0283859Y0262794D01*
X0284384Y0262270D01*
X0284384Y0261220D01*
X0283859Y0260695D01*
X0282284Y0260695D01*
X0285433Y0259645D02*
X0286482Y0259645D01*
X0285958Y0259645D01*
X0285958Y0262794D01*
X0285433Y0262270D01*
X0290156Y0259645D02*
X0288057Y0259645D01*
X0290156Y0261744D01*
X0290156Y0262270D01*
X0289631Y0262794D01*
X0288582Y0262794D01*
X0288057Y0262270D01*
X0232659Y0269552D02*
X0232659Y0272700D01*
X0234234Y0272700D01*
X0234758Y0272175D01*
X0234758Y0271126D01*
X0234234Y0270601D01*
X0232659Y0270601D01*
X0235808Y0272175D02*
X0236333Y0272700D01*
X0237381Y0272700D01*
X0237907Y0272175D01*
X0237907Y0271651D01*
X0237381Y0271126D01*
X0237907Y0270601D01*
X0237907Y0270076D01*
X0237381Y0269552D01*
X0236333Y0269552D01*
X0235808Y0270076D01*
X0235808Y0270601D01*
X0236333Y0271126D01*
X0235808Y0271651D01*
X0235808Y0272175D01*
X0236333Y0271126D02*
X0237381Y0271126D01*
X0293285Y0259645D02*
X0293285Y0262794D01*
X0294859Y0262794D01*
X0295384Y0262270D01*
X0295384Y0261220D01*
X0294859Y0260695D01*
X0293285Y0260695D01*
X0296433Y0259645D02*
X0297482Y0259645D01*
X0296957Y0259645D01*
X0296957Y0262794D01*
X0296433Y0262270D01*
X0299057Y0262270D02*
X0299582Y0262794D01*
X0300630Y0262794D01*
X0301156Y0262270D01*
X0301156Y0260170D01*
X0300630Y0259645D01*
X0299582Y0259645D01*
X0299057Y0260170D01*
X0299057Y0262270D01*
X0244226Y0301180D02*
X0244226Y0298032D01*
X0246325Y0298032D01*
X0249474Y0298032D02*
X0247375Y0298032D01*
X0249474Y0300131D01*
X0249474Y0300655D01*
X0248949Y0301180D01*
X0247900Y0301180D01*
X0247375Y0300655D01*
X0216798Y0292125D02*
X0216798Y0288976D01*
X0218897Y0288976D01*
X0219946Y0288976D02*
X0220996Y0288976D01*
X0220472Y0288976D01*
X0220472Y0292125D01*
X0219946Y0291599D01*
X0261680Y0294356D02*
X0261154Y0294881D01*
X0260105Y0294881D01*
X0259581Y0294356D01*
X0259581Y0292257D01*
X0260105Y0291732D01*
X0261154Y0291732D01*
X0261680Y0292257D01*
X0264828Y0294881D02*
X0262729Y0294881D01*
X0262729Y0293307D01*
X0263779Y0293831D01*
X0264303Y0293831D01*
X0264828Y0293307D01*
X0264828Y0292257D01*
X0264303Y0291732D01*
X0263254Y0291732D01*
X0262729Y0292257D01*
X0277034Y0334513D02*
X0276509Y0335038D01*
X0275460Y0335038D01*
X0274935Y0334513D01*
X0274935Y0332415D01*
X0275460Y0331890D01*
X0276509Y0331890D01*
X0277034Y0332415D01*
X0278082Y0334513D02*
X0278608Y0335038D01*
X0279658Y0335038D01*
X0280183Y0334513D01*
X0280183Y0333988D01*
X0279658Y0333464D01*
X0279133Y0333464D01*
X0279658Y0333464D01*
X0280183Y0332939D01*
X0280183Y0332415D01*
X0279658Y0331890D01*
X0278608Y0331890D01*
X0278082Y0332415D01*
X0277034Y0297506D02*
X0276509Y0298030D01*
X0275460Y0298030D01*
X0274935Y0297506D01*
X0274935Y0295407D01*
X0275460Y0294882D01*
X0276509Y0294882D01*
X0277034Y0295407D01*
X0280183Y0294882D02*
X0278082Y0294882D01*
X0280183Y0296981D01*
X0280183Y0297506D01*
X0279658Y0298030D01*
X0278608Y0298030D01*
X0278082Y0297506D01*
X0233858Y0294356D02*
X0233333Y0294881D01*
X0232283Y0294881D01*
X0231759Y0294356D01*
X0231759Y0292257D01*
X0232283Y0291732D01*
X0233333Y0291732D01*
X0233858Y0292257D01*
X0234907Y0291732D02*
X0235957Y0291732D01*
X0235432Y0291732D01*
X0235432Y0294881D01*
X0234907Y0294356D01*
D26*
X0238188Y0305118D02*
X0240255Y0305118D01*
X0238188Y0305118D02*
X0238188Y0307184D01*
X0238188Y0322736D02*
X0238188Y0324803D01*
X0240255Y0324803D01*
X0255806Y0324803D02*
X0257873Y0324803D01*
X0257873Y0322736D02*
X0257873Y0324803D01*
X0255806Y0305118D02*
X0257873Y0305118D01*
X0257873Y0307184D01*
D27*
X0227755Y0326181D02*
X0229330Y0326181D01*
X0227755Y0323425D02*
X0229330Y0323425D01*
X0229133Y0335630D02*
X0230708Y0335630D01*
X0229133Y0332873D02*
X0230708Y0332873D01*
X0249901Y0288861D02*
X0249901Y0296965D01*
X0243012Y0288861D02*
X0243012Y0296965D01*
X0258291Y0287377D02*
X0258291Y0298449D01*
X0251157Y0287377D02*
X0251157Y0298449D01*
X0222847Y0317901D02*
X0222847Y0327768D01*
X0215735Y0317901D02*
X0215735Y0327768D01*
X0266929Y0323425D02*
X0268504Y0323425D01*
X0266929Y0326181D02*
X0268504Y0326181D01*
X0266929Y0317519D02*
X0268504Y0317519D01*
X0266929Y0320274D02*
X0268504Y0320274D01*
X0273992Y0301550D02*
X0273992Y0312622D01*
X0281126Y0301550D02*
X0281126Y0312622D01*
X0273992Y0317298D02*
X0273992Y0328370D01*
X0281126Y0317298D02*
X0281126Y0328370D01*
X0265747Y0332873D02*
X0267323Y0332873D01*
X0265747Y0335630D02*
X0267323Y0335630D01*
X0253542Y0332873D02*
X0255118Y0332873D01*
X0253542Y0335630D02*
X0255118Y0335630D01*
X0241338Y0332873D02*
X0242912Y0332873D01*
X0241338Y0335630D02*
X0242912Y0335630D01*
X0237007Y0288767D02*
X0237007Y0297059D01*
X0244094Y0288767D02*
X0244094Y0297059D01*
X0296063Y0283858D02*
X0296063Y0285433D01*
X0293307Y0283858D02*
X0293307Y0285433D01*
X0289173Y0283858D02*
X0289173Y0285433D01*
X0286417Y0283858D02*
X0286417Y0285433D01*
X0291220Y0238149D02*
X0291220Y0258149D01*
X0281220Y0258149D02*
X0291220Y0258149D01*
X0281220Y0238149D02*
X0281220Y0258149D01*
X0281220Y0238149D02*
X0291220Y0238149D01*
X0302244Y0238149D02*
X0302244Y0258149D01*
X0292244Y0258149D02*
X0302244Y0258149D01*
X0292244Y0238149D02*
X0292244Y0258149D01*
X0292244Y0238149D02*
X0302244Y0238149D01*
X0266653Y0268149D02*
X0276653Y0268149D01*
X0276653Y0238149D02*
X0276653Y0268149D01*
X0266653Y0238149D02*
X0276653Y0238149D01*
X0266653Y0238149D02*
X0266653Y0268149D01*
X0255629Y0268149D02*
X0265630Y0268149D01*
X0265630Y0238149D02*
X0265630Y0268149D01*
X0255629Y0238149D02*
X0265630Y0238149D01*
X0255629Y0238149D02*
X0255629Y0268149D01*
X0241062Y0268149D02*
X0251063Y0268149D01*
X0251063Y0238149D02*
X0251063Y0268149D01*
X0241062Y0238149D02*
X0251063Y0238149D01*
X0241062Y0238149D02*
X0241062Y0268149D01*
X0230039Y0268149D02*
X0240038Y0268149D01*
X0240038Y0238149D02*
X0240038Y0268149D01*
X0230039Y0238149D02*
X0240038Y0238149D01*
X0230039Y0238149D02*
X0230039Y0268149D01*
X0215865Y0268149D02*
X0225866Y0268149D01*
X0225866Y0238149D02*
X0225866Y0268149D01*
X0215865Y0238149D02*
X0225866Y0238149D01*
X0215865Y0238149D02*
X0215865Y0268149D01*
X0204842Y0268149D02*
X0214842Y0268149D01*
X0214842Y0238149D02*
X0214842Y0268149D01*
X0204842Y0238149D02*
X0214842Y0238149D01*
X0204842Y0238149D02*
X0204842Y0268149D01*
X0193819Y0268149D02*
X0203819Y0268149D01*
X0203819Y0238149D02*
X0203819Y0268149D01*
X0193819Y0238149D02*
X0203819Y0238149D01*
X0193819Y0238149D02*
X0193819Y0268149D01*
X0314685Y0299960D02*
X0324685Y0299960D01*
X0314685Y0299960D02*
X0314685Y0329960D01*
X0324685Y0329960D01*
X0324685Y0299960D02*
X0324685Y0329960D01*
X0324685Y0273188D02*
X0324685Y0293188D01*
X0314685Y0293188D02*
X0324685Y0293188D01*
X0314685Y0273188D02*
X0314685Y0293188D01*
X0314685Y0273188D02*
X0324685Y0273188D01*
X0324685Y0336574D02*
X0324685Y0356574D01*
X0314685Y0356574D02*
X0324685Y0356574D01*
X0314685Y0336574D02*
X0314685Y0356574D01*
X0314685Y0336574D02*
X0324685Y0336574D01*
X0170078Y0295275D02*
X0199015Y0295275D01*
X0201771Y0295275D02*
X0205511Y0295275D01*
X0205511Y0334645D01*
X0170078Y0295275D02*
X0170078Y0334645D01*
X0178543Y0334645D01*
X0181300Y0334645D02*
X0205511Y0334645D01*
X0177558Y0337008D02*
X0182283Y0337008D01*
X0177558Y0337008D02*
X0178541Y0334645D01*
X0181300Y0334645D02*
X0182283Y0337008D01*
X0201771Y0295275D02*
X0202755Y0292913D01*
X0198030Y0292913D02*
X0202755Y0292913D01*
X0198030Y0292913D02*
X0199014Y0295275D01*
X0251968Y0363976D02*
X0251968Y0392913D01*
X0251968Y0357480D02*
X0251968Y0361219D01*
X0251968Y0357480D02*
X0291338Y0357480D01*
X0251968Y0392913D02*
X0291338Y0392913D01*
X0291338Y0384448D02*
X0291338Y0392913D01*
X0291338Y0357480D02*
X0291338Y0381692D01*
X0293701Y0380708D02*
X0293701Y0385433D01*
X0291338Y0384449D02*
X0293701Y0385433D01*
X0291338Y0381692D02*
X0293701Y0380708D01*
X0249606Y0360237D02*
X0251968Y0361219D01*
X0249606Y0360237D02*
X0249606Y0364961D01*
X0251968Y0363978D01*
X0204723Y0363976D02*
X0204723Y0392913D01*
X0204723Y0357480D02*
X0204723Y0361219D01*
X0204723Y0357480D02*
X0244092Y0357480D01*
X0204723Y0392913D02*
X0244092Y0392913D01*
X0244092Y0384448D02*
X0244092Y0392913D01*
X0244092Y0357480D02*
X0244092Y0381692D01*
X0246456Y0380708D02*
X0246456Y0385433D01*
X0244092Y0384449D02*
X0246456Y0385433D01*
X0244092Y0381692D02*
X0246456Y0380708D01*
X0202361Y0360236D02*
X0204723Y0361219D01*
X0202361Y0360236D02*
X0202361Y0364961D01*
X0204723Y0363978D01*
X0215795Y0300885D02*
X0215795Y0303838D01*
X0231448Y0300885D02*
X0231448Y0303838D01*
G04 next file*
G04*
G04 #@! TF.GenerationSoftware,Altium Limited,Altium Designer,21.7.2 (23)*
G04*
G04 Layer_Color=65535*
G04 skipping 70
G04*
G04 #@! TF.SameCoordinates,4C6A6D40-5D94-4475-8A21-F7F3A9D7BEC8*
G04*
G04*
G04 #@! TF.FilePolarity,Positive*
G04*
G01*
G75*
D28*
X0069980Y0133268D02*
X0069242Y0133694D01*
X0069242Y0132841D01*
X0069980Y0133268D01*
X0054823Y0122144D02*
X0054085Y0122571D01*
X0054085Y0121719D01*
X0054823Y0122144D01*
D29*
X0060629Y0099212D02*
X0081890Y0099212D01*
X0060629Y0111417D02*
X0081890Y0111417D01*
X0081890Y0099212D02*
X0081890Y0111417D01*
X0060629Y0099212D02*
X0060629Y0111417D01*
X0086221Y0099212D02*
X0107480Y0099212D01*
X0086221Y0111417D02*
X0107480Y0111417D01*
X0107480Y0099212D02*
X0107480Y0111417D01*
X0086221Y0099212D02*
X0086221Y0111417D01*
X0060629Y0105118D02*
X0081890Y0105118D01*
X0060629Y0118110D02*
X0081890Y0118110D01*
X0081890Y0105118D02*
X0081890Y0118110D01*
X0060629Y0105118D02*
X0060629Y0118110D01*
X0111811Y0094882D02*
X0133070Y0094882D01*
X0111811Y0107874D02*
X0133070Y0107874D01*
X0133070Y0094882D02*
X0133070Y0107874D01*
X0111811Y0094882D02*
X0111811Y0107874D01*
X0024409Y0099212D02*
X0056693Y0099212D01*
X0024409Y0111417D02*
X0056693Y0111417D01*
X0056693Y0099212D02*
X0056693Y0111417D01*
X0024409Y0099212D02*
X0024409Y0111417D01*
X0024409Y0105118D02*
X0056693Y0105118D01*
X0024409Y0118110D02*
X0056693Y0118110D01*
X0056693Y0105118D02*
X0056693Y0118110D01*
X0024409Y0105118D02*
X0024409Y0118110D01*
X0111811Y0088976D02*
X0133070Y0088976D01*
X0111811Y0101181D02*
X0133070Y0101181D01*
X0133070Y0088976D02*
X0133070Y0101181D01*
X0111811Y0088976D02*
X0111811Y0101181D01*
X0086221Y0105118D02*
X0107480Y0105118D01*
X0086221Y0118110D02*
X0107480Y0118110D01*
X0107480Y0105118D02*
X0107480Y0118110D01*
X0086221Y0105118D02*
X0086221Y0118110D01*
X0115894Y0105919D02*
X0113795Y0105919D01*
X0113795Y0104346D01*
X0114845Y0104346D01*
X0113795Y0104346D01*
X0113795Y0102770D01*
X0116944Y0105919D02*
X0116944Y0102770D01*
X0118517Y0102770D01*
X0119043Y0103296D01*
X0119043Y0103821D01*
X0118517Y0104346D01*
X0116944Y0104346D01*
X0118517Y0104346D01*
X0119043Y0104871D01*
X0119043Y0105395D01*
X0118517Y0105919D01*
X0116944Y0105919D01*
X0120092Y0102770D02*
X0120092Y0105919D01*
X0121666Y0105919D01*
X0122191Y0105395D01*
X0122191Y0104346D01*
X0121666Y0103821D01*
X0120092Y0103821D01*
X0123241Y0102770D02*
X0123241Y0105919D01*
X0124815Y0105919D01*
X0125340Y0105395D01*
X0125340Y0104346D01*
X0124815Y0103821D01*
X0123241Y0103821D01*
X0124291Y0103821D02*
X0125340Y0102770D01*
X0126390Y0105919D02*
X0127438Y0105919D01*
X0126914Y0105919D01*
X0126914Y0102770D01*
X0126390Y0102770D01*
X0127438Y0102770D01*
X0129014Y0102770D02*
X0129014Y0105919D01*
X0130063Y0104871D01*
X0131113Y0105919D01*
X0131113Y0102770D01*
X0115567Y0099424D02*
X0115567Y0096275D01*
X0117141Y0096275D01*
X0117666Y0096800D01*
X0117666Y0098898D01*
X0117141Y0099424D01*
X0115567Y0099424D01*
X0126394Y0099424D02*
X0126394Y0096800D01*
X0126918Y0096275D01*
X0127968Y0096275D01*
X0128492Y0096800D01*
X0128492Y0099424D01*
X0100016Y0109660D02*
X0100016Y0106512D01*
X0102115Y0106512D01*
X0103163Y0109660D02*
X0103163Y0107561D01*
X0104214Y0106512D01*
X0105263Y0107561D01*
X0105263Y0109660D01*
X0088793Y0109660D02*
X0088793Y0106512D01*
X0088793Y0108086D01*
X0090894Y0108086D01*
X0090894Y0109660D01*
X0090894Y0106512D01*
X0091944Y0109660D02*
X0091944Y0107561D01*
X0092993Y0106512D01*
X0094043Y0107561D01*
X0094043Y0109660D01*
X0096404Y0116353D02*
X0094307Y0116353D01*
X0094307Y0113205D01*
X0096404Y0113205D01*
X0094307Y0114779D02*
X0095357Y0114779D01*
X0097456Y0113205D02*
X0097456Y0116353D01*
X0099555Y0113205D01*
X0099555Y0116353D01*
X0064515Y0115828D02*
X0063992Y0116353D01*
X0062942Y0116353D01*
X0062417Y0115828D01*
X0062417Y0115304D01*
X0062942Y0114779D01*
X0063992Y0114779D01*
X0064515Y0114253D01*
X0064515Y0113728D01*
X0063992Y0113205D01*
X0062942Y0113205D01*
X0062417Y0113728D01*
X0067665Y0116353D02*
X0065566Y0116353D01*
X0065566Y0113205D01*
X0067665Y0113205D01*
X0065566Y0114779D02*
X0066615Y0114779D01*
X0068714Y0116353D02*
X0068714Y0113205D01*
X0070814Y0113205D01*
X0071863Y0113205D02*
X0071863Y0116353D01*
X0072913Y0115304D01*
X0073962Y0116353D01*
X0073962Y0113205D01*
X0075012Y0113205D02*
X0075012Y0116353D01*
X0076586Y0116353D01*
X0077111Y0115828D01*
X0077111Y0114779D01*
X0076586Y0114253D01*
X0075012Y0114253D01*
X0078160Y0113205D02*
X0078160Y0116353D01*
X0079735Y0116353D01*
X0080259Y0115828D01*
X0080259Y0114779D01*
X0079735Y0114253D01*
X0078160Y0114253D01*
X0064780Y0106512D02*
X0065829Y0106512D01*
X0065303Y0106512D01*
X0065303Y0109660D01*
X0064780Y0109135D01*
X0076197Y0109135D02*
X0076722Y0109660D01*
X0077769Y0109660D01*
X0078296Y0109135D01*
X0078296Y0107037D01*
X0077769Y0106512D01*
X0076722Y0106512D01*
X0076197Y0107037D01*
X0076197Y0109135D01*
X0050605Y0109135D02*
X0051131Y0109660D01*
X0052181Y0109660D01*
X0052705Y0109135D01*
X0052705Y0107037D01*
X0052181Y0106512D01*
X0051131Y0106512D01*
X0050605Y0107037D01*
X0050605Y0109135D01*
X0039976Y0106512D02*
X0041026Y0106512D01*
X0040501Y0106512D01*
X0040501Y0109660D01*
X0039976Y0109135D01*
X0030658Y0106512D02*
X0028559Y0106512D01*
X0030658Y0108610D01*
X0030658Y0109135D01*
X0030133Y0109660D01*
X0029084Y0109660D01*
X0028559Y0109135D01*
X0038926Y0115828D02*
X0038401Y0116353D01*
X0037352Y0116353D01*
X0036827Y0115828D01*
X0036827Y0113728D01*
X0037352Y0113205D01*
X0038401Y0113205D01*
X0038926Y0113728D01*
X0042074Y0116353D02*
X0039975Y0116353D01*
X0039975Y0114779D01*
X0041025Y0114779D01*
X0039975Y0114779D01*
X0039975Y0113205D01*
X0045223Y0115828D02*
X0044698Y0116353D01*
X0043649Y0116353D01*
X0043124Y0115828D01*
X0043124Y0113728D01*
X0043649Y0113205D01*
X0044698Y0113205D01*
X0045223Y0113728D01*
X0045223Y0114779D01*
X0044173Y0114779D01*
X0086827Y0186038D02*
X0086827Y0182890D01*
X0088400Y0182890D01*
X0088926Y0183414D01*
X0088926Y0183939D01*
X0088400Y0184464D01*
X0086827Y0184464D01*
X0088400Y0184464D01*
X0088926Y0184989D01*
X0088926Y0185514D01*
X0088400Y0186038D01*
X0086827Y0186038D01*
X0089975Y0182890D02*
X0089975Y0184989D01*
X0091025Y0186038D01*
X0092074Y0184989D01*
X0092074Y0182890D01*
X0092074Y0184464D01*
X0089975Y0184464D01*
X0093124Y0186038D02*
X0095223Y0186038D01*
X0094174Y0186038D01*
X0094174Y0182890D01*
X0096270Y0186038D02*
X0098372Y0186038D01*
X0097322Y0186038D01*
X0097322Y0182890D01*
X0039189Y0182890D02*
X0039189Y0186038D01*
X0040763Y0186038D01*
X0041288Y0185514D01*
X0041288Y0184464D01*
X0040763Y0183939D01*
X0039189Y0183939D01*
X0042338Y0182890D02*
X0042338Y0186038D01*
X0043912Y0186038D01*
X0044437Y0185514D01*
X0044437Y0184464D01*
X0043912Y0183939D01*
X0042338Y0183939D01*
X0043387Y0183939D02*
X0044437Y0182890D01*
X0045486Y0186038D02*
X0046536Y0186038D01*
X0046010Y0186038D01*
X0046010Y0182890D01*
X0045486Y0182890D01*
X0046536Y0182890D01*
X0048110Y0182890D02*
X0048110Y0186038D01*
X0049160Y0184989D01*
X0050209Y0186038D01*
X0050209Y0182890D01*
X0110184Y0185514D02*
X0109659Y0186038D01*
X0108609Y0186038D01*
X0108085Y0185514D01*
X0108085Y0183414D01*
X0108609Y0182890D01*
X0109659Y0182890D01*
X0110184Y0183414D01*
X0110184Y0184464D01*
X0109134Y0184464D01*
X0111233Y0182890D02*
X0111233Y0186038D01*
X0113332Y0182890D01*
X0113332Y0186038D01*
X0114382Y0186038D02*
X0114382Y0182890D01*
X0115955Y0182890D01*
X0116480Y0183414D01*
X0116480Y0185514D01*
X0115955Y0186038D01*
X0114382Y0186038D01*
X0064121Y0185514D02*
X0063596Y0186038D01*
X0062546Y0186038D01*
X0062022Y0185514D01*
X0062022Y0183414D01*
X0062546Y0182890D01*
X0063596Y0182890D01*
X0064121Y0183414D01*
X0064121Y0184464D01*
X0063071Y0184464D01*
X0065169Y0182890D02*
X0065169Y0186038D01*
X0067269Y0182890D01*
X0067269Y0186038D01*
X0068319Y0186038D02*
X0068319Y0182890D01*
X0069893Y0182890D01*
X0070418Y0183414D01*
X0070418Y0185514D01*
X0069893Y0186038D01*
X0068319Y0186038D01*
X0037612Y0156904D02*
X0038662Y0156904D01*
X0038137Y0156904D01*
X0038137Y0153756D01*
X0037612Y0153756D01*
X0038662Y0153756D01*
X0040236Y0153756D02*
X0040236Y0156904D01*
X0042335Y0153756D01*
X0042335Y0156904D01*
X0039713Y0137482D02*
X0039189Y0138007D01*
X0038139Y0138007D01*
X0037614Y0137482D01*
X0037614Y0135383D01*
X0038139Y0134857D01*
X0039189Y0134857D01*
X0039713Y0135383D01*
X0039713Y0136432D01*
X0038664Y0136432D01*
X0040763Y0134857D02*
X0040763Y0138007D01*
X0042862Y0134857D01*
X0042862Y0138007D01*
X0043911Y0138007D02*
X0043911Y0134857D01*
X0045486Y0134857D01*
X0046010Y0135383D01*
X0046010Y0137482D01*
X0045486Y0138007D01*
X0043911Y0138007D01*
X0124755Y0136695D02*
X0124230Y0137219D01*
X0123180Y0137219D01*
X0122656Y0136695D01*
X0122656Y0136170D01*
X0123180Y0135645D01*
X0124230Y0135645D01*
X0124755Y0135120D01*
X0124755Y0134596D01*
X0124230Y0134071D01*
X0123180Y0134071D01*
X0122656Y0134596D01*
X0125804Y0137219D02*
X0127902Y0137219D01*
X0126854Y0137219D01*
X0126854Y0134071D01*
X0128953Y0134071D02*
X0128953Y0136170D01*
X0130002Y0137219D01*
X0131051Y0136170D01*
X0131051Y0134071D01*
X0131051Y0135645D01*
X0128953Y0135645D01*
X0132101Y0137219D02*
X0134200Y0137219D01*
X0133151Y0137219D01*
X0133151Y0134071D01*
X0135250Y0137219D02*
X0135250Y0134596D01*
X0135775Y0134071D01*
X0136824Y0134071D01*
X0137349Y0134596D01*
X0137349Y0137219D01*
X0140498Y0136695D02*
X0139973Y0137219D01*
X0138922Y0137219D01*
X0138399Y0136695D01*
X0138399Y0136170D01*
X0138922Y0135645D01*
X0139973Y0135645D01*
X0140498Y0135120D01*
X0140498Y0134596D01*
X0139973Y0134071D01*
X0138922Y0134071D01*
X0138399Y0134596D01*
X0141547Y0136695D02*
X0142072Y0137219D01*
X0143121Y0137219D01*
X0143646Y0136695D01*
X0143646Y0134596D01*
X0143121Y0134071D01*
X0142072Y0134071D01*
X0141547Y0134596D01*
X0141547Y0136695D01*
X0125804Y0146931D02*
X0125279Y0147456D01*
X0124230Y0147456D01*
X0123705Y0146931D01*
X0123705Y0146406D01*
X0124230Y0145881D01*
X0125279Y0145881D01*
X0125804Y0145356D01*
X0125804Y0144832D01*
X0125279Y0144307D01*
X0124230Y0144307D01*
X0123705Y0144832D01*
X0126854Y0147456D02*
X0128953Y0147456D01*
X0127902Y0147456D01*
X0127902Y0144307D01*
X0130002Y0144307D02*
X0130002Y0146406D01*
X0131051Y0147456D01*
X0132101Y0146406D01*
X0132101Y0144307D01*
X0132101Y0145881D01*
X0130002Y0145881D01*
X0133151Y0147456D02*
X0135250Y0147456D01*
X0134200Y0147456D01*
X0134200Y0144307D01*
X0136300Y0147456D02*
X0136300Y0144832D01*
X0136824Y0144307D01*
X0137874Y0144307D01*
X0138399Y0144832D01*
X0138399Y0147456D01*
X0141547Y0146931D02*
X0141022Y0147456D01*
X0139973Y0147456D01*
X0139448Y0146931D01*
X0139448Y0146406D01*
X0139973Y0145881D01*
X0141022Y0145881D01*
X0141547Y0145356D01*
X0141547Y0144832D01*
X0141022Y0144307D01*
X0139973Y0144307D01*
X0139448Y0144832D01*
X0142597Y0144307D02*
X0143646Y0144307D01*
X0143121Y0144307D01*
X0143121Y0147456D01*
X0142597Y0146931D01*
X0124755Y0157167D02*
X0124230Y0157692D01*
X0123180Y0157692D01*
X0122656Y0157167D01*
X0122656Y0156642D01*
X0123180Y0156117D01*
X0124230Y0156117D01*
X0124755Y0155593D01*
X0124755Y0155067D01*
X0124230Y0154543D01*
X0123180Y0154543D01*
X0122656Y0155067D01*
X0125804Y0157692D02*
X0127902Y0157692D01*
X0126854Y0157692D01*
X0126854Y0154543D01*
X0128953Y0154543D02*
X0128953Y0156642D01*
X0130002Y0157692D01*
X0131051Y0156642D01*
X0131051Y0154543D01*
X0131051Y0156117D01*
X0128953Y0156117D01*
X0132101Y0157692D02*
X0134200Y0157692D01*
X0133151Y0157692D01*
X0133151Y0154543D01*
X0135250Y0157692D02*
X0135250Y0155067D01*
X0135775Y0154543D01*
X0136824Y0154543D01*
X0137349Y0155067D01*
X0137349Y0157692D01*
X0140498Y0157167D02*
X0139973Y0157692D01*
X0138922Y0157692D01*
X0138399Y0157167D01*
X0138399Y0156642D01*
X0138922Y0156117D01*
X0139973Y0156117D01*
X0140498Y0155593D01*
X0140498Y0155067D01*
X0139973Y0154543D01*
X0138922Y0154543D01*
X0138399Y0155067D01*
X0143646Y0154543D02*
X0141547Y0154543D01*
X0143646Y0156642D01*
X0143646Y0157167D01*
X0143121Y0157692D01*
X0142072Y0157692D01*
X0141547Y0157167D01*
X0128953Y0120290D02*
X0128953Y0117141D01*
X0131051Y0117141D01*
X0132101Y0120290D02*
X0132101Y0118191D01*
X0133151Y0117141D01*
X0134200Y0118191D01*
X0134200Y0120290D01*
X0136824Y0120290D02*
X0135775Y0120290D01*
X0135250Y0119765D01*
X0135250Y0117666D01*
X0135775Y0117141D01*
X0136824Y0117141D01*
X0137349Y0117666D01*
X0137349Y0119765D01*
X0136824Y0120290D01*
X0138399Y0120290D02*
X0138399Y0117666D01*
X0138922Y0117141D01*
X0139973Y0117141D01*
X0140498Y0117666D01*
X0140498Y0120290D01*
X0141547Y0120290D02*
X0143646Y0120290D01*
X0142597Y0120290D01*
X0142597Y0117141D01*
X0137349Y0109923D02*
X0136824Y0110447D01*
X0135775Y0110447D01*
X0135250Y0109923D01*
X0135250Y0107824D01*
X0135775Y0107299D01*
X0136824Y0107299D01*
X0137349Y0107824D01*
X0137349Y0108873D01*
X0136300Y0108873D01*
X0138399Y0107299D02*
X0138399Y0110447D01*
X0140498Y0107299D01*
X0140498Y0110447D01*
X0141547Y0110447D02*
X0141547Y0107299D01*
X0143121Y0107299D01*
X0143646Y0107824D01*
X0143646Y0109923D01*
X0143121Y0110447D01*
X0141547Y0110447D01*
X0137349Y0172915D02*
X0136824Y0173440D01*
X0135775Y0173440D01*
X0135250Y0172915D01*
X0135250Y0170816D01*
X0135775Y0170291D01*
X0136824Y0170291D01*
X0137349Y0170816D01*
X0137349Y0171866D01*
X0136300Y0171866D01*
X0138399Y0170291D02*
X0138399Y0173440D01*
X0140498Y0170291D01*
X0140498Y0173440D01*
X0141547Y0173440D02*
X0141547Y0170291D01*
X0143121Y0170291D01*
X0143646Y0170816D01*
X0143646Y0172915D01*
X0143121Y0173440D01*
X0141547Y0173440D01*
X0128953Y0183282D02*
X0128953Y0180134D01*
X0128953Y0181708D01*
X0131051Y0181708D01*
X0131051Y0183282D01*
X0131051Y0180134D01*
X0132101Y0183282D02*
X0132101Y0181183D01*
X0133151Y0180134D01*
X0134200Y0181183D01*
X0134200Y0183282D01*
X0136824Y0183282D02*
X0135775Y0183282D01*
X0135250Y0182758D01*
X0135250Y0180658D01*
X0135775Y0180134D01*
X0136824Y0180134D01*
X0137349Y0180658D01*
X0137349Y0182758D01*
X0136824Y0183282D01*
X0138399Y0183282D02*
X0138399Y0180658D01*
X0138922Y0180134D01*
X0139973Y0180134D01*
X0140498Y0180658D01*
X0140498Y0183282D01*
X0141547Y0183282D02*
X0143646Y0183282D01*
X0142597Y0183282D01*
X0142597Y0180134D01*
X0064502Y0157087D02*
X0064502Y0160235D01*
X0066076Y0160235D01*
X0066601Y0159710D01*
X0066601Y0158661D01*
X0066076Y0158136D01*
X0064502Y0158136D01*
X0065552Y0158136D02*
X0066601Y0157087D01*
X0067651Y0159710D02*
X0068176Y0160235D01*
X0069225Y0160235D01*
X0069750Y0159710D01*
X0069750Y0159186D01*
X0069225Y0158661D01*
X0069750Y0158136D01*
X0069750Y0157612D01*
X0069225Y0157087D01*
X0068176Y0157087D01*
X0067651Y0157612D01*
X0067651Y0158136D01*
X0068176Y0158661D01*
X0067651Y0159186D01*
X0067651Y0159710D01*
X0068176Y0158661D02*
X0069225Y0158661D01*
X0049869Y0165223D02*
X0049344Y0165747D01*
X0048295Y0165747D01*
X0047770Y0165223D01*
X0047770Y0163124D01*
X0048295Y0162599D01*
X0049344Y0162599D01*
X0049869Y0163124D01*
X0052493Y0162599D02*
X0052493Y0165747D01*
X0050919Y0164173D01*
X0053017Y0164173D01*
X0063846Y0135039D02*
X0063846Y0132415D01*
X0064371Y0131890D01*
X0065420Y0131890D01*
X0065945Y0132415D01*
X0065945Y0135039D01*
X0066994Y0131890D02*
X0068044Y0131890D01*
X0067519Y0131890D01*
X0067519Y0135039D01*
X0066994Y0134514D01*
X0003411Y0174802D02*
X0002363Y0174802D01*
X0002888Y0174802D01*
X0002888Y0172178D01*
X0002363Y0171654D01*
X0001838Y0171654D01*
X0001313Y0172178D01*
X0004462Y0174278D02*
X0004986Y0174802D01*
X0006036Y0174802D01*
X0006561Y0174278D01*
X0006561Y0173752D01*
X0006036Y0173228D01*
X0005511Y0173228D01*
X0006036Y0173228D01*
X0006561Y0172703D01*
X0006561Y0172178D01*
X0006036Y0171654D01*
X0004986Y0171654D01*
X0004462Y0172178D01*
X0029528Y0222047D02*
X0028477Y0222047D01*
X0029003Y0222047D01*
X0029003Y0219423D01*
X0028477Y0218898D01*
X0027953Y0218898D01*
X0027428Y0219423D01*
X0030577Y0218898D02*
X0031627Y0218898D01*
X0031102Y0218898D01*
X0031102Y0222047D01*
X0030577Y0221522D01*
X0127428Y0222047D02*
X0126379Y0222047D01*
X0126903Y0222047D01*
X0126903Y0219423D01*
X0126379Y0218898D01*
X0125854Y0218898D01*
X0125329Y0219423D01*
X0130577Y0218898D02*
X0128478Y0218898D01*
X0130577Y0220997D01*
X0130577Y0221522D01*
X0130050Y0222047D01*
X0129002Y0222047D01*
X0128478Y0221522D01*
X0094612Y0168111D02*
X0094612Y0171259D01*
X0096186Y0171259D01*
X0096711Y0170734D01*
X0096711Y0169685D01*
X0096186Y0169160D01*
X0094612Y0169160D01*
X0095660Y0169160D02*
X0096711Y0168111D01*
X0097760Y0168635D02*
X0098285Y0168111D01*
X0099335Y0168111D01*
X0099860Y0168635D01*
X0099860Y0170734D01*
X0099335Y0171259D01*
X0098285Y0171259D01*
X0097760Y0170734D01*
X0097760Y0170210D01*
X0098285Y0169685D01*
X0099860Y0169685D01*
X0122967Y0121654D02*
X0122967Y0124801D01*
X0124540Y0124801D01*
X0125066Y0124278D01*
X0125066Y0123228D01*
X0124540Y0122703D01*
X0122967Y0122703D01*
X0124016Y0122703D02*
X0125066Y0121654D01*
X0128214Y0124801D02*
X0127165Y0124278D01*
X0126115Y0123228D01*
X0126115Y0122179D01*
X0126640Y0121654D01*
X0127689Y0121654D01*
X0128214Y0122179D01*
X0128214Y0122703D01*
X0127689Y0123228D01*
X0126115Y0123228D01*
X0115987Y0121743D02*
X0115987Y0124892D01*
X0117562Y0124892D01*
X0118087Y0124367D01*
X0118087Y0123317D01*
X0117562Y0122793D01*
X0115987Y0122793D01*
X0117036Y0122793D02*
X0118087Y0121743D01*
X0120710Y0121743D02*
X0120710Y0124892D01*
X0119136Y0123317D01*
X0121235Y0123317D01*
X0082415Y0168111D02*
X0082415Y0171259D01*
X0083990Y0171259D01*
X0084515Y0170734D01*
X0084515Y0169685D01*
X0083990Y0169160D01*
X0082415Y0169160D01*
X0083465Y0169160D02*
X0084515Y0168111D01*
X0085564Y0171259D02*
X0087663Y0171259D01*
X0087663Y0170734D01*
X0085564Y0168635D01*
X0085564Y0168111D01*
X0070211Y0168111D02*
X0070211Y0171259D01*
X0071785Y0171259D01*
X0072309Y0170734D01*
X0072309Y0169685D01*
X0071785Y0169160D01*
X0070211Y0169160D01*
X0071260Y0169160D02*
X0072309Y0168111D01*
X0075459Y0171259D02*
X0073359Y0171259D01*
X0073359Y0169685D01*
X0074409Y0170210D01*
X0074934Y0170210D01*
X0075459Y0169685D01*
X0075459Y0168635D01*
X0074934Y0168111D01*
X0073884Y0168111D01*
X0073359Y0168635D01*
X0058006Y0168111D02*
X0058006Y0171259D01*
X0059580Y0171259D01*
X0060105Y0170734D01*
X0060105Y0169685D01*
X0059580Y0169160D01*
X0058006Y0169160D01*
X0059056Y0169160D02*
X0060105Y0168111D01*
X0061155Y0170734D02*
X0061680Y0171259D01*
X0062729Y0171259D01*
X0063254Y0170734D01*
X0063254Y0170210D01*
X0062729Y0169685D01*
X0062204Y0169685D01*
X0062729Y0169685D01*
X0063254Y0169160D01*
X0063254Y0168635D01*
X0062729Y0168111D01*
X0061680Y0168111D01*
X0061155Y0168635D01*
X0087927Y0157087D02*
X0087927Y0160235D01*
X0089502Y0160235D01*
X0090026Y0159710D01*
X0090026Y0158661D01*
X0089502Y0158136D01*
X0087927Y0158136D01*
X0088977Y0158136D02*
X0090026Y0157087D01*
X0093175Y0157087D02*
X0091076Y0157087D01*
X0093175Y0159186D01*
X0093175Y0159710D01*
X0092650Y0160235D01*
X0091601Y0160235D01*
X0091076Y0159710D01*
X0096326Y0143308D02*
X0096326Y0146456D01*
X0097900Y0146456D01*
X0098425Y0145931D01*
X0098425Y0144882D01*
X0097900Y0144357D01*
X0096326Y0144357D01*
X0097376Y0144357D02*
X0098425Y0143308D01*
X0099475Y0143308D02*
X0100523Y0143308D01*
X0099999Y0143308D01*
X0099999Y0146456D01*
X0099475Y0145931D01*
X0088867Y0100261D02*
X0088867Y0103409D01*
X0090443Y0103409D01*
X0090968Y0102884D01*
X0090968Y0101835D01*
X0090443Y0101309D01*
X0088867Y0101309D01*
X0094116Y0103409D02*
X0093067Y0102884D01*
X0092017Y0101835D01*
X0092017Y0100784D01*
X0092542Y0100261D01*
X0093591Y0100261D01*
X0094116Y0100784D01*
X0094116Y0101309D01*
X0093591Y0101835D01*
X0092017Y0101835D01*
X0048164Y0100261D02*
X0048164Y0103409D01*
X0049738Y0103409D01*
X0050263Y0102884D01*
X0050263Y0101835D01*
X0049738Y0101309D01*
X0048164Y0101309D01*
X0051312Y0100261D02*
X0052362Y0100261D01*
X0051837Y0100261D01*
X0051837Y0103409D01*
X0051312Y0102884D01*
X0053935Y0100261D02*
X0054986Y0100261D01*
X0054461Y0100261D01*
X0054461Y0103409D01*
X0053935Y0102884D01*
X0074369Y0100261D02*
X0074369Y0103409D01*
X0075943Y0103409D01*
X0076466Y0102884D01*
X0076466Y0101835D01*
X0075943Y0101309D01*
X0074369Y0101309D01*
X0079616Y0103409D02*
X0077517Y0103409D01*
X0077517Y0101835D01*
X0078566Y0102360D01*
X0079091Y0102360D01*
X0079616Y0101835D01*
X0079616Y0100784D01*
X0079091Y0100261D01*
X0078042Y0100261D01*
X0077517Y0100784D01*
X0027067Y0100261D02*
X0027067Y0103409D01*
X0028643Y0103409D01*
X0029168Y0102884D01*
X0029168Y0101835D01*
X0028643Y0101309D01*
X0027067Y0101309D01*
X0031791Y0100261D02*
X0031791Y0103409D01*
X0030217Y0101835D01*
X0032316Y0101835D01*
X0147770Y0161811D02*
X0147770Y0164960D01*
X0149344Y0164960D01*
X0149869Y0164435D01*
X0149869Y0163386D01*
X0149344Y0162861D01*
X0147770Y0162861D01*
X0150918Y0164435D02*
X0151443Y0164960D01*
X0152493Y0164960D01*
X0153017Y0164435D01*
X0153017Y0163911D01*
X0152493Y0163386D01*
X0151968Y0163386D01*
X0152493Y0163386D01*
X0153017Y0162861D01*
X0153017Y0162336D01*
X0152493Y0161811D01*
X0151443Y0161811D01*
X0150918Y0162336D01*
X0038168Y0100261D02*
X0038168Y0103409D01*
X0039743Y0103409D01*
X0040268Y0102884D01*
X0040268Y0101835D01*
X0039743Y0101309D01*
X0038168Y0101309D01*
X0041317Y0103409D02*
X0043416Y0103409D01*
X0043416Y0102884D01*
X0041317Y0100784D01*
X0041317Y0100261D01*
X0148295Y0125197D02*
X0148295Y0128345D01*
X0149869Y0128345D01*
X0150393Y0127821D01*
X0150393Y0126770D01*
X0149869Y0126247D01*
X0148295Y0126247D01*
X0151443Y0125197D02*
X0152493Y0125197D01*
X0151968Y0125197D01*
X0151968Y0128345D01*
X0151443Y0127821D01*
X0147770Y0188583D02*
X0147770Y0191732D01*
X0149344Y0191732D01*
X0149869Y0191206D01*
X0149869Y0190157D01*
X0149344Y0189633D01*
X0147770Y0189633D01*
X0153017Y0188583D02*
X0150918Y0188583D01*
X0153017Y0190682D01*
X0153017Y0191206D01*
X0152493Y0191732D01*
X0151443Y0191732D01*
X0150918Y0191206D01*
X0099968Y0100261D02*
X0099968Y0103409D01*
X0101543Y0103409D01*
X0102068Y0102884D01*
X0102068Y0101835D01*
X0101543Y0101309D01*
X0099968Y0101309D01*
X0103116Y0100784D02*
X0103641Y0100261D01*
X0104691Y0100261D01*
X0105216Y0100784D01*
X0105216Y0102884D01*
X0104691Y0103409D01*
X0103641Y0103409D01*
X0103116Y0102884D01*
X0103116Y0102360D01*
X0103641Y0101835D01*
X0105216Y0101835D01*
X0112993Y0090355D02*
X0112993Y0093503D01*
X0114568Y0093503D01*
X0115093Y0092979D01*
X0115093Y0091929D01*
X0114568Y0091404D01*
X0112993Y0091404D01*
X0116141Y0090355D02*
X0117192Y0090355D01*
X0116667Y0090355D01*
X0116667Y0093503D01*
X0116141Y0092979D01*
X0120865Y0090355D02*
X0118766Y0090355D01*
X0120865Y0092454D01*
X0120865Y0092979D01*
X0120340Y0093503D01*
X0119290Y0093503D01*
X0118766Y0092979D01*
X0063368Y0100261D02*
X0063368Y0103409D01*
X0064942Y0103409D01*
X0065468Y0102884D01*
X0065468Y0101835D01*
X0064942Y0101309D01*
X0063368Y0101309D01*
X0066517Y0102884D02*
X0067042Y0103409D01*
X0068091Y0103409D01*
X0068616Y0102884D01*
X0068616Y0102360D01*
X0068091Y0101835D01*
X0068616Y0101309D01*
X0068616Y0100784D01*
X0068091Y0100261D01*
X0067042Y0100261D01*
X0066517Y0100784D01*
X0066517Y0101309D01*
X0067042Y0101835D01*
X0066517Y0102360D01*
X0066517Y0102884D01*
X0067042Y0101835D02*
X0068091Y0101835D01*
X0123994Y0090355D02*
X0123994Y0093503D01*
X0125567Y0093503D01*
X0126093Y0092979D01*
X0126093Y0091929D01*
X0125567Y0091404D01*
X0123994Y0091404D01*
X0127142Y0090355D02*
X0128192Y0090355D01*
X0127667Y0090355D01*
X0127667Y0093503D01*
X0127142Y0092979D01*
X0129766Y0092979D02*
X0130291Y0093503D01*
X0131340Y0093503D01*
X0131865Y0092979D01*
X0131865Y0090879D01*
X0131340Y0090355D01*
X0130291Y0090355D01*
X0129766Y0090879D01*
X0129766Y0092979D01*
X0074935Y0131888D02*
X0074935Y0128741D01*
X0077034Y0128741D01*
X0080183Y0128741D02*
X0078084Y0128741D01*
X0080183Y0130840D01*
X0080183Y0131364D01*
X0079658Y0131888D01*
X0078609Y0131888D01*
X0078084Y0131364D01*
X0047507Y0122834D02*
X0047507Y0119685D01*
X0049606Y0119685D01*
X0050656Y0119685D02*
X0051705Y0119685D01*
X0051181Y0119685D01*
X0051181Y0122834D01*
X0050656Y0122309D01*
X0092389Y0125065D02*
X0091864Y0125590D01*
X0090814Y0125590D01*
X0090290Y0125065D01*
X0090290Y0122966D01*
X0090814Y0122441D01*
X0091864Y0122441D01*
X0092389Y0122966D01*
X0095537Y0125590D02*
X0093437Y0125590D01*
X0093437Y0124016D01*
X0094488Y0124540D01*
X0095012Y0124540D01*
X0095537Y0124016D01*
X0095537Y0122966D01*
X0095012Y0122441D01*
X0093963Y0122441D01*
X0093437Y0122966D01*
X0107743Y0165223D02*
X0107217Y0165747D01*
X0106169Y0165747D01*
X0105644Y0165223D01*
X0105644Y0163124D01*
X0106169Y0162599D01*
X0107217Y0162599D01*
X0107743Y0163124D01*
X0108792Y0165223D02*
X0109317Y0165747D01*
X0110367Y0165747D01*
X0110891Y0165223D01*
X0110891Y0164698D01*
X0110367Y0164173D01*
X0109842Y0164173D01*
X0110367Y0164173D01*
X0110891Y0163647D01*
X0110891Y0163124D01*
X0110367Y0162599D01*
X0109317Y0162599D01*
X0108792Y0163124D01*
X0107743Y0128214D02*
X0107217Y0128739D01*
X0106169Y0128739D01*
X0105644Y0128214D01*
X0105644Y0126116D01*
X0106169Y0125591D01*
X0107217Y0125591D01*
X0107743Y0126116D01*
X0110891Y0125591D02*
X0108792Y0125591D01*
X0110891Y0127689D01*
X0110891Y0128214D01*
X0110367Y0128739D01*
X0109317Y0128739D01*
X0108792Y0128214D01*
X0064567Y0125065D02*
X0064042Y0125590D01*
X0062992Y0125590D01*
X0062468Y0125065D01*
X0062468Y0122966D01*
X0062992Y0122441D01*
X0064042Y0122441D01*
X0064567Y0122966D01*
X0065617Y0122441D02*
X0066666Y0122441D01*
X0066141Y0122441D01*
X0066141Y0125590D01*
X0065617Y0125065D01*
D30*
X0068898Y0135827D02*
X0070965Y0135827D01*
X0068898Y0135827D02*
X0068898Y0137894D01*
X0068898Y0153445D02*
X0068898Y0155512D01*
X0070965Y0155512D01*
X0086516Y0155512D02*
X0088583Y0155512D01*
X0088583Y0153445D02*
X0088583Y0155512D01*
X0086516Y0135827D02*
X0088583Y0135827D01*
X0088583Y0137894D01*
D31*
X0058465Y0156890D02*
X0060039Y0156890D01*
X0058465Y0154133D02*
X0060039Y0154133D01*
X0059841Y0166339D02*
X0061417Y0166339D01*
X0059841Y0163582D02*
X0061417Y0163582D01*
X0080610Y0119570D02*
X0080610Y0127674D01*
X0073721Y0119570D02*
X0073721Y0127674D01*
X0089000Y0118086D02*
X0089000Y0129158D01*
X0081866Y0118086D02*
X0081866Y0129158D01*
X0053556Y0148610D02*
X0053556Y0158477D01*
X0046444Y0148610D02*
X0046444Y0158477D01*
X0097638Y0154133D02*
X0099213Y0154133D01*
X0097638Y0156890D02*
X0099213Y0156890D01*
X0097638Y0148228D02*
X0099213Y0148228D01*
X0097638Y0150984D02*
X0099213Y0150984D01*
X0104701Y0132259D02*
X0104701Y0143331D01*
X0111835Y0132259D02*
X0111835Y0143331D01*
X0104701Y0148007D02*
X0104701Y0159079D01*
X0111835Y0148007D02*
X0111835Y0159079D01*
X0096457Y0163582D02*
X0098032Y0163582D01*
X0096457Y0166339D02*
X0098032Y0166339D01*
X0084252Y0163582D02*
X0085827Y0163582D01*
X0084252Y0166339D02*
X0085827Y0166339D01*
X0072047Y0163582D02*
X0073622Y0163582D01*
X0072047Y0166339D02*
X0073622Y0166339D01*
X0067716Y0119476D02*
X0067716Y0127767D01*
X0074803Y0119476D02*
X0074803Y0127767D01*
X0126770Y0114567D02*
X0126770Y0116141D01*
X0124016Y0114567D02*
X0124016Y0116141D01*
X0119882Y0114567D02*
X0119882Y0116141D01*
X0117126Y0114567D02*
X0117126Y0116141D01*
X0121929Y0068858D02*
X0121929Y0088858D01*
X0111928Y0088858D02*
X0121929Y0088858D01*
X0111928Y0068858D02*
X0111928Y0088858D01*
X0111928Y0068858D02*
X0121929Y0068858D01*
X0132953Y0068858D02*
X0132953Y0088858D01*
X0122953Y0088858D02*
X0132953Y0088858D01*
X0122953Y0068858D02*
X0122953Y0088858D01*
X0122953Y0068858D02*
X0132953Y0068858D01*
X0097362Y0098858D02*
X0107362Y0098858D01*
X0107362Y0068858D02*
X0107362Y0098858D01*
X0097362Y0068858D02*
X0107362Y0068858D01*
X0097362Y0068858D02*
X0097362Y0098858D01*
X0086339Y0098858D02*
X0096339Y0098858D01*
X0096339Y0068858D02*
X0096339Y0098858D01*
X0086339Y0068858D02*
X0096339Y0068858D01*
X0086339Y0068858D02*
X0086339Y0098858D01*
X0071772Y0098858D02*
X0081772Y0098858D01*
X0081772Y0068858D02*
X0081772Y0098858D01*
X0071772Y0068858D02*
X0081772Y0068858D01*
X0071772Y0068858D02*
X0071772Y0098858D01*
X0060748Y0098858D02*
X0070748Y0098858D01*
X0070748Y0068858D02*
X0070748Y0098858D01*
X0060748Y0068858D02*
X0070748Y0068858D01*
X0060748Y0068858D02*
X0060748Y0098858D01*
X0046575Y0098858D02*
X0056575Y0098858D01*
X0056575Y0068858D02*
X0056575Y0098858D01*
X0046575Y0068858D02*
X0056575Y0068858D01*
X0046575Y0068858D02*
X0046575Y0098858D01*
X0035551Y0098858D02*
X0045551Y0098858D01*
X0045551Y0068858D02*
X0045551Y0098858D01*
X0035551Y0068858D02*
X0045551Y0068858D01*
X0035551Y0068858D02*
X0035551Y0098858D01*
X0024527Y0098858D02*
X0034528Y0098858D01*
X0034528Y0068858D02*
X0034528Y0098858D01*
X0024527Y0068858D02*
X0034528Y0068858D01*
X0024527Y0068858D02*
X0024527Y0098858D01*
X0145394Y0130668D02*
X0155394Y0130668D01*
X0145394Y0130668D02*
X0145394Y0160669D01*
X0155394Y0160669D01*
X0155394Y0130668D02*
X0155394Y0160669D01*
X0155394Y0103897D02*
X0155394Y0123896D01*
X0145394Y0123896D02*
X0155394Y0123896D01*
X0145394Y0103897D02*
X0145394Y0123896D01*
X0145394Y0103897D02*
X0155394Y0103897D01*
X0155394Y0167283D02*
X0155394Y0187283D01*
X0145394Y0187283D02*
X0155394Y0187283D01*
X0145394Y0167283D02*
X0145394Y0187283D01*
X0145394Y0167283D02*
X0155394Y0167283D01*
X0000787Y0125984D02*
X0029724Y0125984D01*
X0032479Y0125984D02*
X0036220Y0125984D01*
X0036220Y0165354D01*
X0000787Y0125984D02*
X0000787Y0165354D01*
X0009252Y0165354D01*
X0012009Y0165354D02*
X0036220Y0165354D01*
X0008268Y0167717D02*
X0012992Y0167717D01*
X0008268Y0167717D02*
X0009251Y0165354D01*
X0012009Y0165354D02*
X0012992Y0167717D01*
X0032479Y0125984D02*
X0033464Y0123622D01*
X0028738Y0123622D02*
X0033464Y0123622D01*
X0028738Y0123622D02*
X0029723Y0125984D01*
X0082677Y0194685D02*
X0082677Y0223622D01*
X0082677Y0188189D02*
X0082677Y0191929D01*
X0082677Y0188189D02*
X0122047Y0188189D01*
X0082677Y0223622D02*
X0122047Y0223622D01*
X0122047Y0215157D02*
X0122047Y0223622D01*
X0122047Y0188189D02*
X0122047Y0212401D01*
X0124410Y0211417D02*
X0124410Y0216142D01*
X0122047Y0215158D02*
X0124410Y0216142D01*
X0122047Y0212401D02*
X0124410Y0211417D01*
X0080313Y0190946D02*
X0082677Y0191929D01*
X0080313Y0190946D02*
X0080313Y0195670D01*
X0082677Y0194687D01*
X0035432Y0194685D02*
X0035432Y0223622D01*
X0035432Y0188189D02*
X0035432Y0191929D01*
X0035432Y0188189D02*
X0074802Y0188189D01*
X0035432Y0223622D02*
X0074802Y0223622D01*
X0074802Y0215157D02*
X0074802Y0223622D01*
X0074802Y0188189D02*
X0074802Y0212401D01*
X0077165Y0211417D02*
X0077165Y0216142D01*
X0074802Y0215158D02*
X0077165Y0216142D01*
X0074802Y0212401D02*
X0077165Y0211417D01*
X0033070Y0190945D02*
X0035432Y0191929D01*
X0033070Y0190945D02*
X0033070Y0195670D01*
X0035432Y0194687D01*
X0046504Y0131594D02*
X0046504Y0134547D01*
X0062156Y0131594D02*
X0062156Y0134547D01*
G04 next file*
G04*
G04 #@! TF.GenerationSoftware,Altium Limited,Altium Designer,21.7.2 (23)*
G04*
G04 Layer_Color=65535*
G04 skipping 70
G04*
G04 #@! TF.SameCoordinates,4C6A6D40-5D94-4475-8A21-F7F3A9D7BEC8*
G04*
G04*
G04 #@! TF.FilePolarity,Positive*
G04*
G01*
G75*
D32*
X0239271Y0133268D02*
X0238533Y0133694D01*
X0238533Y0132841D01*
X0239271Y0133268D01*
X0224114Y0122144D02*
X0223376Y0122571D01*
X0223376Y0121719D01*
X0224114Y0122144D01*
D33*
X0229921Y0099212D02*
X0251181Y0099212D01*
X0229921Y0111417D02*
X0251181Y0111417D01*
X0251181Y0099212D02*
X0251181Y0111417D01*
X0229921Y0099212D02*
X0229921Y0111417D01*
X0255512Y0099212D02*
X0276771Y0099212D01*
X0255512Y0111417D02*
X0276771Y0111417D01*
X0276771Y0099212D02*
X0276771Y0111417D01*
X0255512Y0099212D02*
X0255512Y0111417D01*
X0229921Y0105118D02*
X0251181Y0105118D01*
X0229921Y0118110D02*
X0251181Y0118110D01*
X0251181Y0105118D02*
X0251181Y0118110D01*
X0229921Y0105118D02*
X0229921Y0118110D01*
X0281102Y0094882D02*
X0302362Y0094882D01*
X0281102Y0107874D02*
X0302362Y0107874D01*
X0302362Y0094882D02*
X0302362Y0107874D01*
X0281102Y0094882D02*
X0281102Y0107874D01*
X0193700Y0099212D02*
X0225984Y0099212D01*
X0193700Y0111417D02*
X0225984Y0111417D01*
X0225984Y0099212D02*
X0225984Y0111417D01*
X0193700Y0099212D02*
X0193700Y0111417D01*
X0193700Y0105118D02*
X0225984Y0105118D01*
X0193700Y0118110D02*
X0225984Y0118110D01*
X0225984Y0105118D02*
X0225984Y0118110D01*
X0193700Y0105118D02*
X0193700Y0118110D01*
X0281102Y0088976D02*
X0302362Y0088976D01*
X0281102Y0101181D02*
X0302362Y0101181D01*
X0302362Y0088976D02*
X0302362Y0101181D01*
X0281102Y0088976D02*
X0281102Y0101181D01*
X0255512Y0105118D02*
X0276771Y0105118D01*
X0255512Y0118110D02*
X0276771Y0118110D01*
X0276771Y0105118D02*
X0276771Y0118110D01*
X0255512Y0105118D02*
X0255512Y0118110D01*
X0285185Y0105919D02*
X0283086Y0105919D01*
X0283086Y0104346D01*
X0284136Y0104346D01*
X0283086Y0104346D01*
X0283086Y0102770D01*
X0286235Y0105919D02*
X0286235Y0102770D01*
X0287809Y0102770D01*
X0288334Y0103296D01*
X0288334Y0103821D01*
X0287809Y0104346D01*
X0286235Y0104346D01*
X0287809Y0104346D01*
X0288334Y0104871D01*
X0288334Y0105395D01*
X0287809Y0105919D01*
X0286235Y0105919D01*
X0289383Y0102770D02*
X0289383Y0105919D01*
X0290958Y0105919D01*
X0291482Y0105395D01*
X0291482Y0104346D01*
X0290958Y0103821D01*
X0289383Y0103821D01*
X0292532Y0102770D02*
X0292532Y0105919D01*
X0294106Y0105919D01*
X0294630Y0105395D01*
X0294630Y0104346D01*
X0294106Y0103821D01*
X0292532Y0103821D01*
X0293582Y0103821D02*
X0294630Y0102770D01*
X0295681Y0105919D02*
X0296730Y0105919D01*
X0296205Y0105919D01*
X0296205Y0102770D01*
X0295681Y0102770D01*
X0296730Y0102770D01*
X0298305Y0102770D02*
X0298305Y0105919D01*
X0299353Y0104871D01*
X0300404Y0105919D01*
X0300404Y0102770D01*
X0284858Y0099424D02*
X0284858Y0096275D01*
X0286432Y0096275D01*
X0286956Y0096800D01*
X0286956Y0098898D01*
X0286432Y0099424D01*
X0284858Y0099424D01*
X0295685Y0099424D02*
X0295685Y0096800D01*
X0296209Y0096275D01*
X0297259Y0096275D01*
X0297784Y0096800D01*
X0297784Y0099424D01*
X0269307Y0109660D02*
X0269307Y0106512D01*
X0271406Y0106512D01*
X0272454Y0109660D02*
X0272454Y0107561D01*
X0273505Y0106512D01*
X0274554Y0107561D01*
X0274554Y0109660D01*
X0258086Y0109660D02*
X0258086Y0106512D01*
X0258086Y0108086D01*
X0260185Y0108086D01*
X0260185Y0109660D01*
X0260185Y0106512D01*
X0261235Y0109660D02*
X0261235Y0107561D01*
X0262284Y0106512D01*
X0263334Y0107561D01*
X0263334Y0109660D01*
X0265697Y0116353D02*
X0263598Y0116353D01*
X0263598Y0113205D01*
X0265697Y0113205D01*
X0263598Y0114779D02*
X0264648Y0114779D01*
X0266746Y0113205D02*
X0266746Y0116353D01*
X0268846Y0113205D01*
X0268846Y0116353D01*
X0233807Y0115828D02*
X0233283Y0116353D01*
X0232233Y0116353D01*
X0231707Y0115828D01*
X0231707Y0115304D01*
X0232233Y0114779D01*
X0233283Y0114779D01*
X0233807Y0114253D01*
X0233807Y0113728D01*
X0233283Y0113205D01*
X0232233Y0113205D01*
X0231707Y0113728D01*
X0236956Y0116353D02*
X0234857Y0116353D01*
X0234857Y0113205D01*
X0236956Y0113205D01*
X0234857Y0114779D02*
X0235906Y0114779D01*
X0238005Y0116353D02*
X0238005Y0113205D01*
X0240105Y0113205D01*
X0241154Y0113205D02*
X0241154Y0116353D01*
X0242204Y0115304D01*
X0243253Y0116353D01*
X0243253Y0113205D01*
X0244302Y0113205D02*
X0244302Y0116353D01*
X0245877Y0116353D01*
X0246402Y0115828D01*
X0246402Y0114779D01*
X0245877Y0114253D01*
X0244302Y0114253D01*
X0247451Y0113205D02*
X0247451Y0116353D01*
X0249026Y0116353D01*
X0249549Y0115828D01*
X0249549Y0114779D01*
X0249026Y0114253D01*
X0247451Y0114253D01*
X0234071Y0106512D02*
X0235120Y0106512D01*
X0234595Y0106512D01*
X0234595Y0109660D01*
X0234071Y0109135D01*
X0245488Y0109135D02*
X0246013Y0109660D01*
X0247061Y0109660D01*
X0247587Y0109135D01*
X0247587Y0107037D01*
X0247061Y0106512D01*
X0246013Y0106512D01*
X0245488Y0107037D01*
X0245488Y0109135D01*
X0219897Y0109135D02*
X0220421Y0109660D01*
X0221471Y0109660D01*
X0221996Y0109135D01*
X0221996Y0107037D01*
X0221471Y0106512D01*
X0220421Y0106512D01*
X0219897Y0107037D01*
X0219897Y0109135D01*
X0209267Y0106512D02*
X0210317Y0106512D01*
X0209791Y0106512D01*
X0209791Y0109660D01*
X0209267Y0109135D01*
X0199949Y0106512D02*
X0197850Y0106512D01*
X0199949Y0108610D01*
X0199949Y0109135D01*
X0199424Y0109660D01*
X0198375Y0109660D01*
X0197850Y0109135D01*
X0208217Y0115828D02*
X0207692Y0116353D01*
X0206643Y0116353D01*
X0206117Y0115828D01*
X0206117Y0113728D01*
X0206643Y0113205D01*
X0207692Y0113205D01*
X0208217Y0113728D01*
X0211364Y0116353D02*
X0209266Y0116353D01*
X0209266Y0114779D01*
X0210316Y0114779D01*
X0209266Y0114779D01*
X0209266Y0113205D01*
X0214514Y0115828D02*
X0213988Y0116353D01*
X0212940Y0116353D01*
X0212415Y0115828D01*
X0212415Y0113728D01*
X0212940Y0113205D01*
X0213988Y0113205D01*
X0214514Y0113728D01*
X0214514Y0114779D01*
X0213464Y0114779D01*
X0256117Y0186038D02*
X0256117Y0182890D01*
X0257692Y0182890D01*
X0258217Y0183414D01*
X0258217Y0183939D01*
X0257692Y0184464D01*
X0256117Y0184464D01*
X0257692Y0184464D01*
X0258217Y0184989D01*
X0258217Y0185514D01*
X0257692Y0186038D01*
X0256117Y0186038D01*
X0259266Y0182890D02*
X0259266Y0184989D01*
X0260316Y0186038D01*
X0261364Y0184989D01*
X0261364Y0182890D01*
X0261364Y0184464D01*
X0259266Y0184464D01*
X0262415Y0186038D02*
X0264514Y0186038D01*
X0263465Y0186038D01*
X0263465Y0182890D01*
X0265563Y0186038D02*
X0267663Y0186038D01*
X0266613Y0186038D01*
X0266613Y0182890D01*
X0208480Y0182890D02*
X0208480Y0186038D01*
X0210054Y0186038D01*
X0210578Y0185514D01*
X0210578Y0184464D01*
X0210054Y0183939D01*
X0208480Y0183939D01*
X0211628Y0182890D02*
X0211628Y0186038D01*
X0213203Y0186038D01*
X0213728Y0185514D01*
X0213728Y0184464D01*
X0213203Y0183939D01*
X0211628Y0183939D01*
X0212678Y0183939D02*
X0213728Y0182890D01*
X0214777Y0186038D02*
X0215827Y0186038D01*
X0215302Y0186038D01*
X0215302Y0182890D01*
X0214777Y0182890D01*
X0215827Y0182890D01*
X0217401Y0182890D02*
X0217401Y0186038D01*
X0218451Y0184989D01*
X0219499Y0186038D01*
X0219499Y0182890D01*
X0279475Y0185514D02*
X0278950Y0186038D01*
X0277900Y0186038D01*
X0277376Y0185514D01*
X0277376Y0183414D01*
X0277900Y0182890D01*
X0278950Y0182890D01*
X0279475Y0183414D01*
X0279475Y0184464D01*
X0278425Y0184464D01*
X0280524Y0182890D02*
X0280524Y0186038D01*
X0282623Y0182890D01*
X0282623Y0186038D01*
X0283673Y0186038D02*
X0283673Y0182890D01*
X0285247Y0182890D01*
X0285772Y0183414D01*
X0285772Y0185514D01*
X0285247Y0186038D01*
X0283673Y0186038D01*
X0233412Y0185514D02*
X0232887Y0186038D01*
X0231836Y0186038D01*
X0231313Y0185514D01*
X0231313Y0183414D01*
X0231836Y0182890D01*
X0232887Y0182890D01*
X0233412Y0183414D01*
X0233412Y0184464D01*
X0232362Y0184464D01*
X0234461Y0182890D02*
X0234461Y0186038D01*
X0236560Y0182890D01*
X0236560Y0186038D01*
X0237610Y0186038D02*
X0237610Y0182890D01*
X0239184Y0182890D01*
X0239709Y0183414D01*
X0239709Y0185514D01*
X0239184Y0186038D01*
X0237610Y0186038D01*
X0206903Y0156904D02*
X0207953Y0156904D01*
X0207428Y0156904D01*
X0207428Y0153756D01*
X0206903Y0153756D01*
X0207953Y0153756D01*
X0209527Y0153756D02*
X0209527Y0156904D01*
X0211626Y0153756D01*
X0211626Y0156904D01*
X0209004Y0137482D02*
X0208480Y0138007D01*
X0207430Y0138007D01*
X0206904Y0137482D01*
X0206904Y0135383D01*
X0207430Y0134857D01*
X0208480Y0134857D01*
X0209004Y0135383D01*
X0209004Y0136432D01*
X0207954Y0136432D01*
X0210054Y0134857D02*
X0210054Y0138007D01*
X0212153Y0134857D01*
X0212153Y0138007D01*
X0213201Y0138007D02*
X0213201Y0134857D01*
X0214777Y0134857D01*
X0215301Y0135383D01*
X0215301Y0137482D01*
X0214777Y0138007D01*
X0213201Y0138007D01*
X0294046Y0136695D02*
X0293521Y0137219D01*
X0292471Y0137219D01*
X0291947Y0136695D01*
X0291947Y0136170D01*
X0292471Y0135645D01*
X0293521Y0135645D01*
X0294046Y0135120D01*
X0294046Y0134596D01*
X0293521Y0134071D01*
X0292471Y0134071D01*
X0291947Y0134596D01*
X0295095Y0137219D02*
X0297194Y0137219D01*
X0296144Y0137219D01*
X0296144Y0134071D01*
X0298244Y0134071D02*
X0298244Y0136170D01*
X0299293Y0137219D01*
X0300343Y0136170D01*
X0300343Y0134071D01*
X0300343Y0135645D01*
X0298244Y0135645D01*
X0301392Y0137219D02*
X0303491Y0137219D01*
X0302442Y0137219D01*
X0302442Y0134071D01*
X0304541Y0137219D02*
X0304541Y0134596D01*
X0305065Y0134071D01*
X0306115Y0134071D01*
X0306640Y0134596D01*
X0306640Y0137219D01*
X0309789Y0136695D02*
X0309264Y0137219D01*
X0308214Y0137219D01*
X0307690Y0136695D01*
X0307690Y0136170D01*
X0308214Y0135645D01*
X0309264Y0135645D01*
X0309789Y0135120D01*
X0309789Y0134596D01*
X0309264Y0134071D01*
X0308214Y0134071D01*
X0307690Y0134596D01*
X0310838Y0136695D02*
X0311363Y0137219D01*
X0312412Y0137219D01*
X0312937Y0136695D01*
X0312937Y0134596D01*
X0312412Y0134071D01*
X0311363Y0134071D01*
X0310838Y0134596D01*
X0310838Y0136695D01*
X0295095Y0146931D02*
X0294570Y0147456D01*
X0293521Y0147456D01*
X0292996Y0146931D01*
X0292996Y0146406D01*
X0293521Y0145881D01*
X0294570Y0145881D01*
X0295095Y0145356D01*
X0295095Y0144832D01*
X0294570Y0144307D01*
X0293521Y0144307D01*
X0292996Y0144832D01*
X0296144Y0147456D02*
X0298244Y0147456D01*
X0297194Y0147456D01*
X0297194Y0144307D01*
X0299293Y0144307D02*
X0299293Y0146406D01*
X0300343Y0147456D01*
X0301392Y0146406D01*
X0301392Y0144307D01*
X0301392Y0145881D01*
X0299293Y0145881D01*
X0302442Y0147456D02*
X0304541Y0147456D01*
X0303491Y0147456D01*
X0303491Y0144307D01*
X0305590Y0147456D02*
X0305590Y0144832D01*
X0306115Y0144307D01*
X0307165Y0144307D01*
X0307690Y0144832D01*
X0307690Y0147456D01*
X0310838Y0146931D02*
X0310313Y0147456D01*
X0309264Y0147456D01*
X0308738Y0146931D01*
X0308738Y0146406D01*
X0309264Y0145881D01*
X0310313Y0145881D01*
X0310838Y0145356D01*
X0310838Y0144832D01*
X0310313Y0144307D01*
X0309264Y0144307D01*
X0308738Y0144832D01*
X0311888Y0144307D02*
X0312937Y0144307D01*
X0312412Y0144307D01*
X0312412Y0147456D01*
X0311888Y0146931D01*
X0294046Y0157167D02*
X0293521Y0157692D01*
X0292471Y0157692D01*
X0291947Y0157167D01*
X0291947Y0156642D01*
X0292471Y0156117D01*
X0293521Y0156117D01*
X0294046Y0155593D01*
X0294046Y0155067D01*
X0293521Y0154543D01*
X0292471Y0154543D01*
X0291947Y0155067D01*
X0295095Y0157692D02*
X0297194Y0157692D01*
X0296144Y0157692D01*
X0296144Y0154543D01*
X0298244Y0154543D02*
X0298244Y0156642D01*
X0299293Y0157692D01*
X0300343Y0156642D01*
X0300343Y0154543D01*
X0300343Y0156117D01*
X0298244Y0156117D01*
X0301392Y0157692D02*
X0303491Y0157692D01*
X0302442Y0157692D01*
X0302442Y0154543D01*
X0304541Y0157692D02*
X0304541Y0155067D01*
X0305065Y0154543D01*
X0306115Y0154543D01*
X0306640Y0155067D01*
X0306640Y0157692D01*
X0309789Y0157167D02*
X0309264Y0157692D01*
X0308214Y0157692D01*
X0307690Y0157167D01*
X0307690Y0156642D01*
X0308214Y0156117D01*
X0309264Y0156117D01*
X0309789Y0155593D01*
X0309789Y0155067D01*
X0309264Y0154543D01*
X0308214Y0154543D01*
X0307690Y0155067D01*
X0312937Y0154543D02*
X0310838Y0154543D01*
X0312937Y0156642D01*
X0312937Y0157167D01*
X0312412Y0157692D01*
X0311363Y0157692D01*
X0310838Y0157167D01*
X0298244Y0120290D02*
X0298244Y0117141D01*
X0300343Y0117141D01*
X0301392Y0120290D02*
X0301392Y0118191D01*
X0302442Y0117141D01*
X0303491Y0118191D01*
X0303491Y0120290D01*
X0306115Y0120290D02*
X0305065Y0120290D01*
X0304541Y0119765D01*
X0304541Y0117666D01*
X0305065Y0117141D01*
X0306115Y0117141D01*
X0306640Y0117666D01*
X0306640Y0119765D01*
X0306115Y0120290D01*
X0307690Y0120290D02*
X0307690Y0117666D01*
X0308214Y0117141D01*
X0309264Y0117141D01*
X0309789Y0117666D01*
X0309789Y0120290D01*
X0310838Y0120290D02*
X0312937Y0120290D01*
X0311888Y0120290D01*
X0311888Y0117141D01*
X0306640Y0109923D02*
X0306115Y0110447D01*
X0305065Y0110447D01*
X0304541Y0109923D01*
X0304541Y0107824D01*
X0305065Y0107299D01*
X0306115Y0107299D01*
X0306640Y0107824D01*
X0306640Y0108873D01*
X0305590Y0108873D01*
X0307690Y0107299D02*
X0307690Y0110447D01*
X0309789Y0107299D01*
X0309789Y0110447D01*
X0310838Y0110447D02*
X0310838Y0107299D01*
X0312412Y0107299D01*
X0312937Y0107824D01*
X0312937Y0109923D01*
X0312412Y0110447D01*
X0310838Y0110447D01*
X0306640Y0172915D02*
X0306115Y0173440D01*
X0305065Y0173440D01*
X0304541Y0172915D01*
X0304541Y0170816D01*
X0305065Y0170291D01*
X0306115Y0170291D01*
X0306640Y0170816D01*
X0306640Y0171866D01*
X0305590Y0171866D01*
X0307690Y0170291D02*
X0307690Y0173440D01*
X0309789Y0170291D01*
X0309789Y0173440D01*
X0310838Y0173440D02*
X0310838Y0170291D01*
X0312412Y0170291D01*
X0312937Y0170816D01*
X0312937Y0172915D01*
X0312412Y0173440D01*
X0310838Y0173440D01*
X0298244Y0183282D02*
X0298244Y0180134D01*
X0298244Y0181708D01*
X0300343Y0181708D01*
X0300343Y0183282D01*
X0300343Y0180134D01*
X0301392Y0183282D02*
X0301392Y0181183D01*
X0302442Y0180134D01*
X0303491Y0181183D01*
X0303491Y0183282D01*
X0306115Y0183282D02*
X0305065Y0183282D01*
X0304541Y0182758D01*
X0304541Y0180658D01*
X0305065Y0180134D01*
X0306115Y0180134D01*
X0306640Y0180658D01*
X0306640Y0182758D01*
X0306115Y0183282D01*
X0307690Y0183282D02*
X0307690Y0180658D01*
X0308214Y0180134D01*
X0309264Y0180134D01*
X0309789Y0180658D01*
X0309789Y0183282D01*
X0310838Y0183282D02*
X0312937Y0183282D01*
X0311888Y0183282D01*
X0311888Y0180134D01*
X0233793Y0157087D02*
X0233793Y0160235D01*
X0235367Y0160235D01*
X0235892Y0159710D01*
X0235892Y0158661D01*
X0235367Y0158136D01*
X0233793Y0158136D01*
X0234843Y0158136D02*
X0235892Y0157087D01*
X0236942Y0159710D02*
X0237467Y0160235D01*
X0238516Y0160235D01*
X0239041Y0159710D01*
X0239041Y0159186D01*
X0238516Y0158661D01*
X0239041Y0158136D01*
X0239041Y0157612D01*
X0238516Y0157087D01*
X0237467Y0157087D01*
X0236942Y0157612D01*
X0236942Y0158136D01*
X0237467Y0158661D01*
X0236942Y0159186D01*
X0236942Y0159710D01*
X0237467Y0158661D02*
X0238516Y0158661D01*
X0219160Y0165223D02*
X0218635Y0165747D01*
X0217586Y0165747D01*
X0217061Y0165223D01*
X0217061Y0163124D01*
X0217586Y0162599D01*
X0218635Y0162599D01*
X0219160Y0163124D01*
X0221783Y0162599D02*
X0221783Y0165747D01*
X0220210Y0164173D01*
X0222308Y0164173D01*
X0233137Y0135039D02*
X0233137Y0132415D01*
X0233662Y0131890D01*
X0234710Y0131890D01*
X0235236Y0132415D01*
X0235236Y0135039D01*
X0236285Y0131890D02*
X0237334Y0131890D01*
X0236810Y0131890D01*
X0236810Y0135039D01*
X0236285Y0134514D01*
X0172703Y0174802D02*
X0171654Y0174802D01*
X0172178Y0174802D01*
X0172178Y0172178D01*
X0171654Y0171654D01*
X0171129Y0171654D01*
X0170604Y0172178D01*
X0173752Y0174278D02*
X0174277Y0174802D01*
X0175327Y0174802D01*
X0175852Y0174278D01*
X0175852Y0173752D01*
X0175327Y0173228D01*
X0174802Y0173228D01*
X0175327Y0173228D01*
X0175852Y0172703D01*
X0175852Y0172178D01*
X0175327Y0171654D01*
X0174277Y0171654D01*
X0173752Y0172178D01*
X0198818Y0222047D02*
X0197769Y0222047D01*
X0198294Y0222047D01*
X0198294Y0219423D01*
X0197769Y0218898D01*
X0197244Y0218898D01*
X0196719Y0219423D01*
X0199868Y0218898D02*
X0200918Y0218898D01*
X0200393Y0218898D01*
X0200393Y0222047D01*
X0199868Y0221522D01*
X0296719Y0222047D02*
X0295670Y0222047D01*
X0296194Y0222047D01*
X0296194Y0219423D01*
X0295670Y0218898D01*
X0295144Y0218898D01*
X0294620Y0219423D01*
X0299867Y0218898D02*
X0297769Y0218898D01*
X0299867Y0220997D01*
X0299867Y0221522D01*
X0299343Y0222047D01*
X0298292Y0222047D01*
X0297769Y0221522D01*
X0263903Y0168111D02*
X0263903Y0171259D01*
X0265477Y0171259D01*
X0266002Y0170734D01*
X0266002Y0169685D01*
X0265477Y0169160D01*
X0263903Y0169160D01*
X0264952Y0169160D02*
X0266002Y0168111D01*
X0267051Y0168635D02*
X0267576Y0168111D01*
X0268626Y0168111D01*
X0269150Y0168635D01*
X0269150Y0170734D01*
X0268626Y0171259D01*
X0267576Y0171259D01*
X0267051Y0170734D01*
X0267051Y0170210D01*
X0267576Y0169685D01*
X0269150Y0169685D01*
X0292258Y0121654D02*
X0292258Y0124801D01*
X0293832Y0124801D01*
X0294356Y0124278D01*
X0294356Y0123228D01*
X0293832Y0122703D01*
X0292258Y0122703D01*
X0293307Y0122703D02*
X0294356Y0121654D01*
X0297504Y0124801D02*
X0296456Y0124278D01*
X0295406Y0123228D01*
X0295406Y0122179D01*
X0295931Y0121654D01*
X0296981Y0121654D01*
X0297504Y0122179D01*
X0297504Y0122703D01*
X0296981Y0123228D01*
X0295406Y0123228D01*
X0285278Y0121743D02*
X0285278Y0124892D01*
X0286853Y0124892D01*
X0287378Y0124367D01*
X0287378Y0123317D01*
X0286853Y0122793D01*
X0285278Y0122793D01*
X0286328Y0122793D02*
X0287378Y0121743D01*
X0290001Y0121743D02*
X0290001Y0124892D01*
X0288427Y0123317D01*
X0290526Y0123317D01*
X0251705Y0168111D02*
X0251705Y0171259D01*
X0253281Y0171259D01*
X0253806Y0170734D01*
X0253806Y0169685D01*
X0253281Y0169160D01*
X0251705Y0169160D01*
X0252755Y0169160D02*
X0253806Y0168111D01*
X0254855Y0171259D02*
X0256954Y0171259D01*
X0256954Y0170734D01*
X0254855Y0168635D01*
X0254855Y0168111D01*
X0239502Y0168111D02*
X0239502Y0171259D01*
X0241075Y0171259D01*
X0241601Y0170734D01*
X0241601Y0169685D01*
X0241075Y0169160D01*
X0239502Y0169160D01*
X0240551Y0169160D02*
X0241601Y0168111D01*
X0244749Y0171259D02*
X0242650Y0171259D01*
X0242650Y0169685D01*
X0243699Y0170210D01*
X0244225Y0170210D01*
X0244749Y0169685D01*
X0244749Y0168635D01*
X0244225Y0168111D01*
X0243175Y0168111D01*
X0242650Y0168635D01*
X0227297Y0168111D02*
X0227297Y0171259D01*
X0228871Y0171259D01*
X0229396Y0170734D01*
X0229396Y0169685D01*
X0228871Y0169160D01*
X0227297Y0169160D01*
X0228347Y0169160D02*
X0229396Y0168111D01*
X0230446Y0170734D02*
X0230971Y0171259D01*
X0232019Y0171259D01*
X0232545Y0170734D01*
X0232545Y0170210D01*
X0232019Y0169685D01*
X0231495Y0169685D01*
X0232019Y0169685D01*
X0232545Y0169160D01*
X0232545Y0168635D01*
X0232019Y0168111D01*
X0230971Y0168111D01*
X0230446Y0168635D01*
X0257218Y0157087D02*
X0257218Y0160235D01*
X0258793Y0160235D01*
X0259317Y0159710D01*
X0259317Y0158661D01*
X0258793Y0158136D01*
X0257218Y0158136D01*
X0258268Y0158136D02*
X0259317Y0157087D01*
X0262466Y0157087D02*
X0260367Y0157087D01*
X0262466Y0159186D01*
X0262466Y0159710D01*
X0261940Y0160235D01*
X0260892Y0160235D01*
X0260367Y0159710D01*
X0265617Y0143308D02*
X0265617Y0146456D01*
X0267191Y0146456D01*
X0267716Y0145931D01*
X0267716Y0144882D01*
X0267191Y0144357D01*
X0265617Y0144357D01*
X0266666Y0144357D02*
X0267716Y0143308D01*
X0268766Y0143308D02*
X0269815Y0143308D01*
X0269290Y0143308D01*
X0269290Y0146456D01*
X0268766Y0145931D01*
X0258158Y0100261D02*
X0258158Y0103409D01*
X0259734Y0103409D01*
X0260258Y0102884D01*
X0260258Y0101835D01*
X0259734Y0101309D01*
X0258158Y0101309D01*
X0263407Y0103409D02*
X0262358Y0102884D01*
X0261308Y0101835D01*
X0261308Y0100784D01*
X0261832Y0100261D01*
X0262882Y0100261D01*
X0263407Y0100784D01*
X0263407Y0101309D01*
X0262882Y0101835D01*
X0261308Y0101835D01*
X0217455Y0100261D02*
X0217455Y0103409D01*
X0219029Y0103409D01*
X0219553Y0102884D01*
X0219553Y0101835D01*
X0219029Y0101309D01*
X0217455Y0101309D01*
X0220603Y0100261D02*
X0221653Y0100261D01*
X0221128Y0100261D01*
X0221128Y0103409D01*
X0220603Y0102884D01*
X0223227Y0100261D02*
X0224277Y0100261D01*
X0223752Y0100261D01*
X0223752Y0103409D01*
X0223227Y0102884D01*
X0243660Y0100261D02*
X0243660Y0103409D01*
X0245234Y0103409D01*
X0245759Y0102884D01*
X0245759Y0101835D01*
X0245234Y0101309D01*
X0243660Y0101309D01*
X0248907Y0103409D02*
X0246808Y0103409D01*
X0246808Y0101835D01*
X0247858Y0102360D01*
X0248382Y0102360D01*
X0248907Y0101835D01*
X0248907Y0100784D01*
X0248382Y0100261D01*
X0247332Y0100261D01*
X0246808Y0100784D01*
X0196359Y0100261D02*
X0196359Y0103409D01*
X0197934Y0103409D01*
X0198459Y0102884D01*
X0198459Y0101835D01*
X0197934Y0101309D01*
X0196359Y0101309D01*
X0201081Y0100261D02*
X0201081Y0103409D01*
X0199508Y0101835D01*
X0201607Y0101835D01*
X0317061Y0161811D02*
X0317061Y0164960D01*
X0318635Y0164960D01*
X0319160Y0164435D01*
X0319160Y0163386D01*
X0318635Y0162861D01*
X0317061Y0162861D01*
X0320209Y0164435D02*
X0320734Y0164960D01*
X0321784Y0164960D01*
X0322308Y0164435D01*
X0322308Y0163911D01*
X0321784Y0163386D01*
X0321259Y0163386D01*
X0321784Y0163386D01*
X0322308Y0162861D01*
X0322308Y0162336D01*
X0321784Y0161811D01*
X0320734Y0161811D01*
X0320209Y0162336D01*
X0207459Y0100261D02*
X0207459Y0103409D01*
X0209034Y0103409D01*
X0209559Y0102884D01*
X0209559Y0101835D01*
X0209034Y0101309D01*
X0207459Y0101309D01*
X0210608Y0103409D02*
X0212706Y0103409D01*
X0212706Y0102884D01*
X0210608Y0100784D01*
X0210608Y0100261D01*
X0317586Y0125197D02*
X0317586Y0128345D01*
X0319160Y0128345D01*
X0319685Y0127821D01*
X0319685Y0126770D01*
X0319160Y0126247D01*
X0317586Y0126247D01*
X0320734Y0125197D02*
X0321784Y0125197D01*
X0321259Y0125197D01*
X0321259Y0128345D01*
X0320734Y0127821D01*
X0317061Y0188583D02*
X0317061Y0191732D01*
X0318635Y0191732D01*
X0319160Y0191206D01*
X0319160Y0190157D01*
X0318635Y0189633D01*
X0317061Y0189633D01*
X0322308Y0188583D02*
X0320209Y0188583D01*
X0322308Y0190682D01*
X0322308Y0191206D01*
X0321784Y0191732D01*
X0320734Y0191732D01*
X0320209Y0191206D01*
X0269259Y0100261D02*
X0269259Y0103409D01*
X0270834Y0103409D01*
X0271359Y0102884D01*
X0271359Y0101835D01*
X0270834Y0101309D01*
X0269259Y0101309D01*
X0272408Y0100784D02*
X0272933Y0100261D01*
X0273982Y0100261D01*
X0274507Y0100784D01*
X0274507Y0102884D01*
X0273982Y0103409D01*
X0272933Y0103409D01*
X0272408Y0102884D01*
X0272408Y0102360D01*
X0272933Y0101835D01*
X0274507Y0101835D01*
X0282284Y0090355D02*
X0282284Y0093503D01*
X0283859Y0093503D01*
X0284384Y0092979D01*
X0284384Y0091929D01*
X0283859Y0091404D01*
X0282284Y0091404D01*
X0285433Y0090355D02*
X0286482Y0090355D01*
X0285958Y0090355D01*
X0285958Y0093503D01*
X0285433Y0092979D01*
X0290156Y0090355D02*
X0288057Y0090355D01*
X0290156Y0092454D01*
X0290156Y0092979D01*
X0289631Y0093503D01*
X0288582Y0093503D01*
X0288057Y0092979D01*
X0232659Y0100261D02*
X0232659Y0103409D01*
X0234234Y0103409D01*
X0234758Y0102884D01*
X0234758Y0101835D01*
X0234234Y0101309D01*
X0232659Y0101309D01*
X0235808Y0102884D02*
X0236333Y0103409D01*
X0237381Y0103409D01*
X0237907Y0102884D01*
X0237907Y0102360D01*
X0237381Y0101835D01*
X0237907Y0101309D01*
X0237907Y0100784D01*
X0237381Y0100261D01*
X0236333Y0100261D01*
X0235808Y0100784D01*
X0235808Y0101309D01*
X0236333Y0101835D01*
X0235808Y0102360D01*
X0235808Y0102884D01*
X0236333Y0101835D02*
X0237381Y0101835D01*
X0293285Y0090355D02*
X0293285Y0093503D01*
X0294859Y0093503D01*
X0295384Y0092979D01*
X0295384Y0091929D01*
X0294859Y0091404D01*
X0293285Y0091404D01*
X0296433Y0090355D02*
X0297482Y0090355D01*
X0296957Y0090355D01*
X0296957Y0093503D01*
X0296433Y0092979D01*
X0299057Y0092979D02*
X0299582Y0093503D01*
X0300630Y0093503D01*
X0301156Y0092979D01*
X0301156Y0090879D01*
X0300630Y0090355D01*
X0299582Y0090355D01*
X0299057Y0090879D01*
X0299057Y0092979D01*
X0244226Y0131888D02*
X0244226Y0128741D01*
X0246325Y0128741D01*
X0249474Y0128741D02*
X0247375Y0128741D01*
X0249474Y0130840D01*
X0249474Y0131364D01*
X0248949Y0131888D01*
X0247900Y0131888D01*
X0247375Y0131364D01*
X0216798Y0122834D02*
X0216798Y0119685D01*
X0218897Y0119685D01*
X0219946Y0119685D02*
X0220996Y0119685D01*
X0220472Y0119685D01*
X0220472Y0122834D01*
X0219946Y0122309D01*
X0261680Y0125065D02*
X0261154Y0125590D01*
X0260105Y0125590D01*
X0259581Y0125065D01*
X0259581Y0122966D01*
X0260105Y0122441D01*
X0261154Y0122441D01*
X0261680Y0122966D01*
X0264828Y0125590D02*
X0262729Y0125590D01*
X0262729Y0124016D01*
X0263779Y0124540D01*
X0264303Y0124540D01*
X0264828Y0124016D01*
X0264828Y0122966D01*
X0264303Y0122441D01*
X0263254Y0122441D01*
X0262729Y0122966D01*
X0277034Y0165223D02*
X0276509Y0165747D01*
X0275460Y0165747D01*
X0274935Y0165223D01*
X0274935Y0163124D01*
X0275460Y0162599D01*
X0276509Y0162599D01*
X0277034Y0163124D01*
X0278082Y0165223D02*
X0278608Y0165747D01*
X0279658Y0165747D01*
X0280183Y0165223D01*
X0280183Y0164698D01*
X0279658Y0164173D01*
X0279133Y0164173D01*
X0279658Y0164173D01*
X0280183Y0163647D01*
X0280183Y0163124D01*
X0279658Y0162599D01*
X0278608Y0162599D01*
X0278082Y0163124D01*
X0277034Y0128214D02*
X0276509Y0128739D01*
X0275460Y0128739D01*
X0274935Y0128214D01*
X0274935Y0126116D01*
X0275460Y0125591D01*
X0276509Y0125591D01*
X0277034Y0126116D01*
X0280183Y0125591D02*
X0278082Y0125591D01*
X0280183Y0127689D01*
X0280183Y0128214D01*
X0279658Y0128739D01*
X0278608Y0128739D01*
X0278082Y0128214D01*
X0233858Y0125065D02*
X0233333Y0125590D01*
X0232283Y0125590D01*
X0231759Y0125065D01*
X0231759Y0122966D01*
X0232283Y0122441D01*
X0233333Y0122441D01*
X0233858Y0122966D01*
X0234907Y0122441D02*
X0235957Y0122441D01*
X0235432Y0122441D01*
X0235432Y0125590D01*
X0234907Y0125065D01*
D34*
X0238188Y0135827D02*
X0240255Y0135827D01*
X0238188Y0135827D02*
X0238188Y0137894D01*
X0238188Y0153445D02*
X0238188Y0155512D01*
X0240255Y0155512D01*
X0255806Y0155512D02*
X0257873Y0155512D01*
X0257873Y0153445D02*
X0257873Y0155512D01*
X0255806Y0135827D02*
X0257873Y0135827D01*
X0257873Y0137894D01*
D35*
X0227755Y0156890D02*
X0229330Y0156890D01*
X0227755Y0154133D02*
X0229330Y0154133D01*
X0229133Y0166339D02*
X0230708Y0166339D01*
X0229133Y0163582D02*
X0230708Y0163582D01*
X0249901Y0119570D02*
X0249901Y0127674D01*
X0243012Y0119570D02*
X0243012Y0127674D01*
X0258291Y0118086D02*
X0258291Y0129158D01*
X0251157Y0118086D02*
X0251157Y0129158D01*
X0222847Y0148610D02*
X0222847Y0158477D01*
X0215735Y0148610D02*
X0215735Y0158477D01*
X0266929Y0154133D02*
X0268504Y0154133D01*
X0266929Y0156890D02*
X0268504Y0156890D01*
X0266929Y0148228D02*
X0268504Y0148228D01*
X0266929Y0150984D02*
X0268504Y0150984D01*
X0273992Y0132259D02*
X0273992Y0143331D01*
X0281126Y0132259D02*
X0281126Y0143331D01*
X0273992Y0148007D02*
X0273992Y0159079D01*
X0281126Y0148007D02*
X0281126Y0159079D01*
X0265747Y0163582D02*
X0267323Y0163582D01*
X0265747Y0166339D02*
X0267323Y0166339D01*
X0253542Y0163582D02*
X0255118Y0163582D01*
X0253542Y0166339D02*
X0255118Y0166339D01*
X0241338Y0163582D02*
X0242912Y0163582D01*
X0241338Y0166339D02*
X0242912Y0166339D01*
X0237007Y0119476D02*
X0237007Y0127767D01*
X0244094Y0119476D02*
X0244094Y0127767D01*
X0296063Y0114567D02*
X0296063Y0116141D01*
X0293307Y0114567D02*
X0293307Y0116141D01*
X0289173Y0114567D02*
X0289173Y0116141D01*
X0286417Y0114567D02*
X0286417Y0116141D01*
X0291220Y0068858D02*
X0291220Y0088858D01*
X0281220Y0088858D02*
X0291220Y0088858D01*
X0281220Y0068858D02*
X0281220Y0088858D01*
X0281220Y0068858D02*
X0291220Y0068858D01*
X0302244Y0068858D02*
X0302244Y0088858D01*
X0292244Y0088858D02*
X0302244Y0088858D01*
X0292244Y0068858D02*
X0292244Y0088858D01*
X0292244Y0068858D02*
X0302244Y0068858D01*
X0266653Y0098858D02*
X0276653Y0098858D01*
X0276653Y0068858D02*
X0276653Y0098858D01*
X0266653Y0068858D02*
X0276653Y0068858D01*
X0266653Y0068858D02*
X0266653Y0098858D01*
X0255629Y0098858D02*
X0265630Y0098858D01*
X0265630Y0068858D02*
X0265630Y0098858D01*
X0255629Y0068858D02*
X0265630Y0068858D01*
X0255629Y0068858D02*
X0255629Y0098858D01*
X0241062Y0098858D02*
X0251063Y0098858D01*
X0251063Y0068858D02*
X0251063Y0098858D01*
X0241062Y0068858D02*
X0251063Y0068858D01*
X0241062Y0068858D02*
X0241062Y0098858D01*
X0230039Y0098858D02*
X0240038Y0098858D01*
X0240038Y0068858D02*
X0240038Y0098858D01*
X0230039Y0068858D02*
X0240038Y0068858D01*
X0230039Y0068858D02*
X0230039Y0098858D01*
X0215865Y0098858D02*
X0225866Y0098858D01*
X0225866Y0068858D02*
X0225866Y0098858D01*
X0215865Y0068858D02*
X0225866Y0068858D01*
X0215865Y0068858D02*
X0215865Y0098858D01*
X0204842Y0098858D02*
X0214842Y0098858D01*
X0214842Y0068858D02*
X0214842Y0098858D01*
X0204842Y0068858D02*
X0214842Y0068858D01*
X0204842Y0068858D02*
X0204842Y0098858D01*
X0193819Y0098858D02*
X0203819Y0098858D01*
X0203819Y0068858D02*
X0203819Y0098858D01*
X0193819Y0068858D02*
X0203819Y0068858D01*
X0193819Y0068858D02*
X0193819Y0098858D01*
X0314685Y0130668D02*
X0324685Y0130668D01*
X0314685Y0130668D02*
X0314685Y0160669D01*
X0324685Y0160669D01*
X0324685Y0130668D02*
X0324685Y0160669D01*
X0324685Y0103897D02*
X0324685Y0123896D01*
X0314685Y0123896D02*
X0324685Y0123896D01*
X0314685Y0103897D02*
X0314685Y0123896D01*
X0314685Y0103897D02*
X0324685Y0103897D01*
X0324685Y0167283D02*
X0324685Y0187283D01*
X0314685Y0187283D02*
X0324685Y0187283D01*
X0314685Y0167283D02*
X0314685Y0187283D01*
X0314685Y0167283D02*
X0324685Y0167283D01*
X0170078Y0125984D02*
X0199015Y0125984D01*
X0201771Y0125984D02*
X0205511Y0125984D01*
X0205511Y0165354D01*
X0170078Y0125984D02*
X0170078Y0165354D01*
X0178543Y0165354D01*
X0181300Y0165354D02*
X0205511Y0165354D01*
X0177558Y0167717D02*
X0182283Y0167717D01*
X0177558Y0167717D02*
X0178541Y0165354D01*
X0181300Y0165354D02*
X0182283Y0167717D01*
X0201771Y0125984D02*
X0202755Y0123622D01*
X0198030Y0123622D02*
X0202755Y0123622D01*
X0198030Y0123622D02*
X0199014Y0125984D01*
X0251968Y0194685D02*
X0251968Y0223622D01*
X0251968Y0188189D02*
X0251968Y0191929D01*
X0251968Y0188189D02*
X0291338Y0188189D01*
X0251968Y0223622D02*
X0291338Y0223622D01*
X0291338Y0215157D02*
X0291338Y0223622D01*
X0291338Y0188189D02*
X0291338Y0212401D01*
X0293701Y0211417D02*
X0293701Y0216142D01*
X0291338Y0215158D02*
X0293701Y0216142D01*
X0291338Y0212401D02*
X0293701Y0211417D01*
X0249606Y0190946D02*
X0251968Y0191929D01*
X0249606Y0190946D02*
X0249606Y0195670D01*
X0251968Y0194687D01*
X0204723Y0194685D02*
X0204723Y0223622D01*
X0204723Y0188189D02*
X0204723Y0191929D01*
X0204723Y0188189D02*
X0244092Y0188189D01*
X0204723Y0223622D02*
X0244092Y0223622D01*
X0244092Y0215157D02*
X0244092Y0223622D01*
X0244092Y0188189D02*
X0244092Y0212401D01*
X0246456Y0211417D02*
X0246456Y0216142D01*
X0244092Y0215158D02*
X0246456Y0216142D01*
X0244092Y0212401D02*
X0246456Y0211417D01*
X0202361Y0190945D02*
X0204723Y0191929D01*
X0202361Y0190945D02*
X0202361Y0195670D01*
X0204723Y0194687D01*
X0215795Y0131594D02*
X0215795Y0134547D01*
X0231448Y0131594D02*
X0231448Y0134547D01*
M02*