%
M48
METRIC,000.000
T01C0.20
T02C0.30
T03C0.90
T04C1.30
T05C3.00
T10C0.50
%
T01
X007599Y070599
X030149Y070500
X029049Y072250
X027548Y073700
X030050Y074249
X028150Y074599
X028498Y077299
X025999Y078900
X028600Y081300
X028600Y088600
X034599Y088600
X031600Y094599
X025600Y094599
X022600Y088600
X022400Y086499
X018999Y086799
X017000Y085798
X016200Y086200
X016250Y083550
X017449Y082997
X017899Y082499
X018999Y083599
X020500Y083299
X021198Y083299
X022550Y075100
X014950Y079700
X016598Y088600
X034599Y076598
X012999Y084000
X010599Y088600
X004599Y088600
X007599Y094599
X013599Y094599
X050599Y070599
X073149Y070500
X072049Y072250
X070548Y073700
X073050Y074249
X071150Y074599
X071498Y077299
X068999Y078900
X071600Y081300
X071600Y088600
X077599Y088600
X074600Y094599
X068600Y094599
X065600Y088600
X065400Y086499
X061999Y086799
X060000Y085798
X059200Y086200
X059250Y083550
X060449Y082997
X060899Y082499
X061999Y083599
X063500Y083299
X064197Y083299
X065550Y075100
X057950Y079700
X059598Y088600
X077599Y076598
X055999Y084000
X053599Y088600
X047599Y088600
X050599Y094599
X056599Y094599
X007599Y027599
X030149Y027500
X029049Y029250
X027548Y030700
X030050Y031249
X028150Y031599
X028498Y034299
X025999Y035900
X028600Y038300
X028600Y045600
X034599Y045600
X031600Y051599
X025600Y051599
X022600Y045600
X022400Y043499
X018999Y043799
X017000Y042798
X016200Y043200
X016250Y040550
X017449Y039997
X017899Y039499
X018999Y040599
X020500Y040299
X021198Y040299
X022550Y032100
X014950Y036700
X016598Y045600
X034599Y033598
X012999Y041000
X010599Y045600
X004599Y045600
X007599Y051599
X013599Y051599
X050599Y027599
X073149Y027500
X072049Y029250
X070548Y030700
X073050Y031249
X071150Y031599
X071498Y034299
X068999Y035900
X071600Y038300
X071600Y045600
X077599Y045600
X074600Y051599
X068600Y051599
X065600Y045600
X065400Y043499
X061999Y043799
X060000Y042798
X059200Y043200
X059250Y040550
X060449Y039997
X060899Y039499
X061999Y040599
X063500Y040299
X064197Y040299
X065550Y032100
X057950Y036700
X059598Y045600
X077599Y033598
X055999Y041000
X053599Y045600
X047599Y045600
X050599Y051599
X056599Y051599
T02
X018900Y078900
X018900Y081099
X019999Y079999
X021099Y078900
X021099Y081099
X061900Y078900
X061900Y081099
X062999Y079999
X064099Y078900
X064099Y081099
X018900Y035900
X018900Y038099
X019999Y036999
X021099Y035900
X021099Y038099
X061900Y035900
X061900Y038099
X062999Y036999
X064099Y035900
X064099Y038099
T03
X007500Y061760
X007500Y064300
X007500Y066840
X010299Y066840
X010299Y064300
X010299Y061760
X013098Y061760
X013098Y064300
X013098Y066840
X016700Y066840
X016700Y064300
X016700Y061760
X019499Y061760
X019499Y064300
X019499Y066840
X023200Y066840
X023200Y064300
X023200Y061760
X025999Y061760
X025999Y064300
X025999Y066840
X029700Y064300
X029700Y061760
X032499Y061760
X032499Y064300
X038199Y070660
X038199Y073200
X038199Y077459
X038199Y079999
X038199Y082539
X038199Y086758
X038199Y089298
X050500Y061760
X050500Y064300
X050500Y066840
X053299Y066840
X053299Y064300
X053299Y061760
X056098Y061760
X056098Y064300
X056098Y066840
X059700Y066840
X059700Y064300
X059700Y061760
X062499Y061760
X062499Y064300
X062499Y066840
X066200Y066840
X066200Y064300
X066200Y061760
X068999Y061760
X068999Y064300
X068999Y066840
X072700Y064300
X072700Y061760
X075499Y061760
X075499Y064300
X081199Y070660
X081199Y073200
X081199Y077459
X081199Y079999
X081199Y082539
X081199Y086758
X081199Y089298
X007500Y018760
X007500Y021300
X007500Y023840
X010299Y023840
X010299Y021300
X010299Y018760
X013098Y018760
X013098Y021300
X013098Y023840
X016700Y023840
X016700Y021300
X016700Y018760
X019499Y018760
X019499Y021300
X019499Y023840
X023200Y023840
X023200Y021300
X023200Y018760
X025999Y018760
X025999Y021300
X025999Y023840
X029700Y021300
X029700Y018760
X032499Y018760
X032499Y021300
X038199Y027660
X038199Y030200
X038199Y034459
X038199Y036999
X038199Y039539
X038199Y043758
X038199Y046298
X050500Y018760
X050500Y021300
X050500Y023840
X053299Y023840
X053299Y021300
X053299Y018760
X056098Y018760
X056098Y021300
X056098Y023840
X059700Y023840
X059700Y021300
X059700Y018760
X062499Y018760
X062499Y021300
X062499Y023840
X066200Y023840
X066200Y021300
X066200Y018760
X068999Y018760
X068999Y021300
X068999Y023840
X072700Y021300
X072700Y018760
X075499Y018760
X075499Y021300
X081199Y027660
X081199Y030200
X081199Y034459
X081199Y036999
X081199Y039539
X081199Y043758
X081199Y046298
T04
X016499Y095798
X023500Y095798
X028501Y095798
X011501Y095798
X004201Y082499
X004201Y077500
X059499Y095798
X066500Y095798
X071501Y095798
X054501Y095798
X047201Y082499
X047201Y077500
X016499Y052798
X023500Y052798
X028501Y052798
X011501Y052798
X004201Y039499
X004201Y034500
X059499Y052798
X066500Y052798
X071501Y052798
X054501Y052798
X047201Y039499
X047201Y034500
T05
X002999Y062999
X037000Y062999
X037000Y097000
X002999Y097000
X045999Y062999
X080000Y062999
X080000Y097000
X045999Y097000
X002999Y019999
X037000Y019999
X037000Y054000
X002999Y054000
X045999Y019999
X080000Y019999
X080000Y054000
X045999Y054000
T10
X040249Y077607
X040249Y078607
X040249Y079607
X040249Y080607
X040249Y081607
X040249Y082607
X042750Y082177
X042750Y081177
X042750Y080177
X042750Y079177
X042750Y078177
X061429Y059750
X062429Y059750
X063429Y059750
X064429Y059750
X065429Y059750
X065785Y057249
X064785Y057249
X063785Y057249
X062785Y057249
X061785Y057249
X060785Y057249
X018429Y059750
X019429Y059750
X020429Y059750
X021429Y059750
X022429Y059750
X022785Y057249
X021785Y057249
X020785Y057249
X019785Y057249
X018785Y057249
X017785Y057249
X040249Y034607
X040249Y035607
X040249Y036607
X040249Y037607
X040249Y038607
X040249Y039607
X042750Y039177
X042750Y038177
X042750Y037177
X042750Y036177
X042750Y035177
M30