%MOIN*%
%OFA0B0*%
%FSLAX25Y25*%
%IPPOS*%
%LPD*%
%ADD14R,0.01981X0.04068*%
%ADD15R,0.04068X0.01981*%
%ADD16R,0.13202X0.13202*%
%ADD17R,0.03556X0.04343*%
%ADD18R,0.03379X0.03174*%
%ADD19R,0.03985X0.05241*%
%ADD20R,0.039609999999999992X0.04351*%
%ADD21R,0.03568X0.03563*%
%ADD22R,0.04343X0.03556*%
%ADD23C,0.04039*%
%ADD24C,0.06706*%
%ADD25R,0.06706X0.06706*%
%ADD26C,0.08477*%
%ADD27R,0.08477X0.08477*%
%ADD28R,0.08477X0.08477*%
%ADD29C,0.20485000000000003*%
%ADD30C,0.02375*%
%ADD31C,0.03556*%
%ADD42R,0.01981X0.04068*%
%ADD43R,0.04068X0.01981*%
%ADD44R,0.13202X0.13202*%
%ADD45R,0.03556X0.04343*%
%ADD46R,0.03379X0.03174*%
%ADD47R,0.03985X0.05241*%
%ADD48R,0.039609999999999992X0.04351*%
%ADD49R,0.03568X0.03563*%
%ADD50R,0.04343X0.03556*%
%ADD51C,0.04039*%
%ADD52C,0.06706*%
%ADD53R,0.06706X0.06706*%
%ADD54C,0.08477*%
%ADD55R,0.08477X0.08477*%
%ADD56R,0.08477X0.08477*%
%ADD57C,0.20485000000000003*%
%ADD58C,0.02375*%
%ADD59C,0.03556*%
%ADD60R,0.01981X0.04068*%
%ADD61R,0.04068X0.01981*%
%ADD62R,0.13202X0.13202*%
%ADD63R,0.03556X0.04343*%
%ADD64R,0.03379X0.03174*%
%ADD65R,0.03985X0.05241*%
%ADD66R,0.039609999999999992X0.04351*%
%ADD67R,0.03568X0.03563*%
%ADD68R,0.04343X0.03556*%
%ADD69C,0.04039*%
%ADD70C,0.06706*%
%ADD71R,0.06706X0.06706*%
%ADD72C,0.08477*%
%ADD73R,0.08477X0.08477*%
%ADD74R,0.08477X0.08477*%
%ADD75C,0.20485000000000003*%
%ADD76C,0.02375*%
%ADD77C,0.03556*%
%ADD78R,0.01981X0.04068*%
%ADD79R,0.04068X0.01981*%
%ADD80R,0.13202X0.13202*%
%ADD81R,0.03556X0.04343*%
%ADD82R,0.03379X0.03174*%
%ADD83R,0.03985X0.05241*%
%ADD84R,0.039609999999999992X0.04351*%
%ADD85R,0.03568X0.03563*%
%ADD86R,0.04343X0.03556*%
%ADD87C,0.04039*%
%ADD88C,0.06706*%
%ADD89R,0.06706X0.06706*%
%ADD90C,0.08477*%
%ADD91R,0.08477X0.08477*%
%ADD92R,0.08477X0.08477*%
%ADD93C,0.20485000000000003*%
%ADD94C,0.02375*%
%ADD95C,0.03556*%
G01*
G75*
G36*
X0061988Y0295905D02*
X0059823Y0293700D01*
X0048838Y0293700D01*
X0046673Y0295905D01*
X0046673Y0299409D01*
X0049724Y0299409D01*
X0052067Y0297125D01*
X0056594Y0297125D01*
X0058936Y0299409D01*
X0061988Y0299409D01*
X0061988Y0295905D01*
D02*
G37*
G36*
X0061988Y0308818D02*
X0061988Y0305315D01*
X0058936Y0305315D01*
X0056594Y0307598D01*
X0052067Y0307598D01*
X0049724Y0305315D01*
X0046673Y0305315D01*
X0046673Y0308818D01*
X0048838Y0311023D01*
X0059823Y0311023D01*
X0061988Y0308818D01*
D02*
G37*
D14*
X0072835Y0305275D02*
D03*
X0074803Y0305275D02*
D03*
X0076772Y0305275D02*
D03*
X0078740Y0305275D02*
D03*
X0080709Y0305275D02*
D03*
X0082677Y0305275D02*
D03*
X0084646Y0305275D02*
D03*
X0084646Y0324645D02*
D03*
X0082677Y0324645D02*
D03*
X0080709Y0324645D02*
D03*
X0078740Y0324645D02*
D03*
X0076772Y0324645D02*
D03*
X0074803Y0324645D02*
D03*
X0072835Y0324645D02*
D03*
D15*
X0088425Y0309055D02*
D03*
X0088425Y0311023D02*
D03*
X0088425Y0312992D02*
D03*
X0088425Y0314960D02*
D03*
X0088425Y0316929D02*
D03*
X0088425Y0318897D02*
D03*
X0088425Y0320865D02*
D03*
X0069055Y0320865D02*
D03*
X0069055Y0318897D02*
D03*
X0069055Y0316929D02*
D03*
X0069055Y0314960D02*
D03*
X0069055Y0312992D02*
D03*
X0069055Y0311023D02*
D03*
X0069055Y0309055D02*
D03*
D16*
X0078740Y0314960D02*
D03*
D17*
X0056299Y0324803D02*
D03*
X0062205Y0324803D02*
D03*
X0057677Y0334252D02*
D03*
X0063582Y0334252D02*
D03*
X0101377Y0324803D02*
D03*
X0095473Y0324803D02*
D03*
X0101377Y0318897D02*
D03*
X0095473Y0318897D02*
D03*
X0100197Y0334252D02*
D03*
X0094291Y0334252D02*
D03*
X0087992Y0334252D02*
D03*
X0082087Y0334252D02*
D03*
X0075787Y0334252D02*
D03*
X0069882Y0334252D02*
D03*
D18*
X0077165Y0290448D02*
D03*
X0077165Y0295378D02*
D03*
D19*
X0085433Y0289997D02*
D03*
X0085433Y0295828D02*
D03*
X0108268Y0310002D02*
D03*
X0108268Y0304171D02*
D03*
X0108268Y0325750D02*
D03*
X0108268Y0319919D02*
D03*
D20*
X0050000Y0320076D02*
D03*
X0050000Y0325592D02*
D03*
D21*
X0071260Y0295277D02*
D03*
X0071260Y0290549D02*
D03*
D22*
X0125394Y0287598D02*
D03*
X0125394Y0281692D02*
D03*
X0118504Y0287598D02*
D03*
X0118504Y0281692D02*
D03*
D23*
X0058956Y0296019D02*
D03*
X0058956Y0308704D02*
D03*
D24*
X0116929Y0243149D02*
D03*
X0127953Y0243149D02*
D03*
X0102362Y0243149D02*
D03*
X0102362Y0253148D02*
D03*
X0091337Y0243149D02*
D03*
X0091337Y0253148D02*
D03*
X0076772Y0243149D02*
D03*
X0076772Y0253148D02*
D03*
X0065748Y0243149D02*
D03*
X0065748Y0253148D02*
D03*
X0051575Y0243149D02*
D03*
X0051575Y0253148D02*
D03*
X0040551Y0243149D02*
D03*
X0040551Y0253148D02*
D03*
X0029528Y0243149D02*
D03*
X0029528Y0253148D02*
D03*
X0150393Y0324960D02*
D03*
X0150393Y0314960D02*
D03*
X0150393Y0278189D02*
D03*
X0150393Y0341574D02*
D03*
D25*
X0116929Y0253148D02*
D03*
X0127953Y0253148D02*
D03*
X0102362Y0263149D02*
D03*
X0091337Y0263149D02*
D03*
X0076772Y0263149D02*
D03*
X0065748Y0263149D02*
D03*
X0051575Y0263149D02*
D03*
X0040551Y0263149D02*
D03*
X0029528Y0263149D02*
D03*
X0150393Y0304959D02*
D03*
X0150393Y0288188D02*
D03*
X0150393Y0351574D02*
D03*
D26*
X0016535Y0305119D02*
D03*
X0092521Y0377165D02*
D03*
X0045276Y0377165D02*
D03*
D27*
X0016535Y0324804D02*
D03*
D28*
X0112206Y0377165D02*
D03*
X0064961Y0377165D02*
D03*
D29*
X0011811Y0248030D02*
D03*
X0145669Y0381889D02*
D03*
X0011811Y0381889D02*
D03*
X0145669Y0248030D02*
D03*
D30*
X0136221Y0348818D02*
D03*
X0136221Y0301574D02*
D03*
X0124408Y0372441D02*
D03*
X0112599Y0348818D02*
D03*
X0100787Y0372441D02*
D03*
X0088976Y0348818D02*
D03*
X0065354Y0348818D02*
D03*
X0053542Y0372441D02*
D03*
X0041732Y0348818D02*
D03*
X0029920Y0372441D02*
D03*
X0018110Y0348818D02*
D03*
X0029920Y0277952D02*
D03*
X0068701Y0326755D02*
D03*
X0070472Y0324803D02*
D03*
X0083465Y0327952D02*
D03*
X0080709Y0327952D02*
D03*
X0074803Y0329133D02*
D03*
X0063975Y0328936D02*
D03*
X0058858Y0313778D02*
D03*
X0088779Y0295669D02*
D03*
X0118700Y0277559D02*
D03*
X0110827Y0293700D02*
D03*
X0108464Y0290157D02*
D03*
X0114370Y0284448D02*
D03*
X0118307Y0292322D02*
D03*
X0088189Y0340551D02*
D03*
X0063778Y0339370D02*
D03*
X0051181Y0330708D02*
D03*
X0102362Y0310630D02*
D03*
X0112205Y0304330D02*
D03*
X0074803Y0341732D02*
D03*
X0112598Y0320077D02*
D03*
X0066929Y0337795D02*
D03*
D31*
X0074409Y0310630D02*
D03*
X0074409Y0319291D02*
D03*
X0078740Y0314960D02*
D03*
X0083071Y0310630D02*
D03*
X0083071Y0319291D02*
D03*
G04 next file*
G04*
G04 #@! TF.GenerationSoftware,Altium Limited,Altium Designer,21.7.2 (23)*
G04*
G04 Layer_Color=8388736*
G04 skipping 70
G04*
G04 #@! TF.SameCoordinates,4C6A6D40-5D94-4475-8A21-F7F3A9D7BEC8*
G04*
G04*
G04 #@! TF.FilePolarity,Negative*
G04*
G01*
G75*
G36*
X0231279Y0295905D02*
X0229114Y0293700D01*
X0218129Y0293700D01*
X0215964Y0295905D01*
X0215964Y0299409D01*
X0219015Y0299409D01*
X0221358Y0297125D01*
X0225886Y0297125D01*
X0228228Y0299409D01*
X0231279Y0299409D01*
X0231279Y0295905D01*
D02*
G37*
G36*
X0231279Y0308818D02*
X0231279Y0305315D01*
X0228228Y0305315D01*
X0225886Y0307598D01*
X0221358Y0307598D01*
X0219015Y0305315D01*
X0215964Y0305315D01*
X0215964Y0308818D01*
X0218129Y0311023D01*
X0229114Y0311023D01*
X0231279Y0308818D01*
D02*
G37*
D42*
X0242126Y0305275D02*
D03*
X0244094Y0305275D02*
D03*
X0246063Y0305275D02*
D03*
X0248030Y0305275D02*
D03*
X0250000Y0305275D02*
D03*
X0251968Y0305275D02*
D03*
X0253937Y0305275D02*
D03*
X0253937Y0324645D02*
D03*
X0251968Y0324645D02*
D03*
X0250000Y0324645D02*
D03*
X0248030Y0324645D02*
D03*
X0246063Y0324645D02*
D03*
X0244094Y0324645D02*
D03*
X0242126Y0324645D02*
D03*
D43*
X0257716Y0309055D02*
D03*
X0257716Y0311023D02*
D03*
X0257716Y0312992D02*
D03*
X0257716Y0314960D02*
D03*
X0257716Y0316929D02*
D03*
X0257716Y0318897D02*
D03*
X0257716Y0320865D02*
D03*
X0238346Y0320865D02*
D03*
X0238346Y0318897D02*
D03*
X0238346Y0316929D02*
D03*
X0238346Y0314960D02*
D03*
X0238346Y0312992D02*
D03*
X0238346Y0311023D02*
D03*
X0238346Y0309055D02*
D03*
D44*
X0248030Y0314960D02*
D03*
D45*
X0225590Y0324803D02*
D03*
X0231496Y0324803D02*
D03*
X0226968Y0334252D02*
D03*
X0232873Y0334252D02*
D03*
X0270669Y0324803D02*
D03*
X0264764Y0324803D02*
D03*
X0270669Y0318897D02*
D03*
X0264764Y0318897D02*
D03*
X0269488Y0334252D02*
D03*
X0263582Y0334252D02*
D03*
X0257282Y0334252D02*
D03*
X0251378Y0334252D02*
D03*
X0245078Y0334252D02*
D03*
X0239173Y0334252D02*
D03*
D46*
X0246456Y0290448D02*
D03*
X0246456Y0295378D02*
D03*
D47*
X0254724Y0289997D02*
D03*
X0254724Y0295828D02*
D03*
X0277559Y0310002D02*
D03*
X0277559Y0304171D02*
D03*
X0277559Y0325750D02*
D03*
X0277559Y0319919D02*
D03*
D48*
X0219291Y0320076D02*
D03*
X0219291Y0325592D02*
D03*
D49*
X0240551Y0295277D02*
D03*
X0240551Y0290549D02*
D03*
D50*
X0294685Y0287598D02*
D03*
X0294685Y0281692D02*
D03*
X0287795Y0287598D02*
D03*
X0287795Y0281692D02*
D03*
D51*
X0228247Y0296019D02*
D03*
X0228247Y0308704D02*
D03*
D52*
X0286220Y0243149D02*
D03*
X0297244Y0243149D02*
D03*
X0271652Y0243149D02*
D03*
X0271652Y0253148D02*
D03*
X0260630Y0243149D02*
D03*
X0260630Y0253148D02*
D03*
X0246063Y0243149D02*
D03*
X0246063Y0253148D02*
D03*
X0235039Y0243149D02*
D03*
X0235039Y0253148D02*
D03*
X0220866Y0243149D02*
D03*
X0220866Y0253148D02*
D03*
X0209842Y0243149D02*
D03*
X0209842Y0253148D02*
D03*
X0198818Y0243149D02*
D03*
X0198818Y0253148D02*
D03*
X0319685Y0324960D02*
D03*
X0319685Y0314960D02*
D03*
X0319685Y0278189D02*
D03*
X0319685Y0341574D02*
D03*
D53*
X0286220Y0253148D02*
D03*
X0297244Y0253148D02*
D03*
X0271652Y0263149D02*
D03*
X0260630Y0263149D02*
D03*
X0246063Y0263149D02*
D03*
X0235039Y0263149D02*
D03*
X0220866Y0263149D02*
D03*
X0209842Y0263149D02*
D03*
X0198818Y0263149D02*
D03*
X0319685Y0304959D02*
D03*
X0319685Y0288188D02*
D03*
X0319685Y0351574D02*
D03*
D54*
X0185826Y0305119D02*
D03*
X0261811Y0377165D02*
D03*
X0214567Y0377165D02*
D03*
D55*
X0185826Y0324804D02*
D03*
D56*
X0281497Y0377165D02*
D03*
X0234252Y0377165D02*
D03*
D57*
X0181102Y0248030D02*
D03*
X0314960Y0381889D02*
D03*
X0181102Y0381889D02*
D03*
X0314960Y0248030D02*
D03*
D58*
X0305512Y0348818D02*
D03*
X0305512Y0301574D02*
D03*
X0293700Y0372441D02*
D03*
X0281890Y0348818D02*
D03*
X0270078Y0372441D02*
D03*
X0258266Y0348818D02*
D03*
X0234645Y0348818D02*
D03*
X0222834Y0372441D02*
D03*
X0211023Y0348818D02*
D03*
X0199212Y0372441D02*
D03*
X0187401Y0348818D02*
D03*
X0199212Y0277952D02*
D03*
X0237991Y0326755D02*
D03*
X0239763Y0324803D02*
D03*
X0252755Y0327952D02*
D03*
X0250000Y0327952D02*
D03*
X0244094Y0329133D02*
D03*
X0233266Y0328936D02*
D03*
X0228148Y0313778D02*
D03*
X0258070Y0295669D02*
D03*
X0287992Y0277559D02*
D03*
X0280118Y0293700D02*
D03*
X0277756Y0290157D02*
D03*
X0283661Y0284448D02*
D03*
X0287598Y0292322D02*
D03*
X0257479Y0340551D02*
D03*
X0233070Y0339370D02*
D03*
X0220472Y0330708D02*
D03*
X0271652Y0310630D02*
D03*
X0281496Y0304330D02*
D03*
X0244094Y0341732D02*
D03*
X0281889Y0320077D02*
D03*
X0236220Y0337795D02*
D03*
D59*
X0243701Y0310630D02*
D03*
X0243701Y0319291D02*
D03*
X0248030Y0314960D02*
D03*
X0252362Y0310630D02*
D03*
X0252362Y0319291D02*
D03*
G04 next file*
G04*
G04 #@! TF.GenerationSoftware,Altium Limited,Altium Designer,21.7.2 (23)*
G04*
G04 Layer_Color=8388736*
G04 skipping 70
G04*
G04 #@! TF.SameCoordinates,4C6A6D40-5D94-4475-8A21-F7F3A9D7BEC8*
G04*
G04*
G04 #@! TF.FilePolarity,Negative*
G04*
G01*
G75*
G36*
X0061988Y0126614D02*
X0059823Y0124408D01*
X0048838Y0124408D01*
X0046673Y0126614D01*
X0046673Y0130118D01*
X0049724Y0130118D01*
X0052067Y0127834D01*
X0056594Y0127834D01*
X0058936Y0130118D01*
X0061988Y0130118D01*
X0061988Y0126614D01*
D02*
G37*
G36*
X0061988Y0139527D02*
X0061988Y0136024D01*
X0058936Y0136024D01*
X0056594Y0138307D01*
X0052067Y0138307D01*
X0049724Y0136024D01*
X0046673Y0136024D01*
X0046673Y0139527D01*
X0048838Y0141732D01*
X0059823Y0141732D01*
X0061988Y0139527D01*
D02*
G37*
D60*
X0072835Y0135984D02*
D03*
X0074803Y0135984D02*
D03*
X0076772Y0135984D02*
D03*
X0078740Y0135984D02*
D03*
X0080709Y0135984D02*
D03*
X0082677Y0135984D02*
D03*
X0084646Y0135984D02*
D03*
X0084646Y0155353D02*
D03*
X0082677Y0155353D02*
D03*
X0080709Y0155353D02*
D03*
X0078740Y0155353D02*
D03*
X0076772Y0155353D02*
D03*
X0074803Y0155353D02*
D03*
X0072835Y0155353D02*
D03*
D61*
X0088425Y0139764D02*
D03*
X0088425Y0141732D02*
D03*
X0088425Y0143701D02*
D03*
X0088425Y0145669D02*
D03*
X0088425Y0147638D02*
D03*
X0088425Y0149606D02*
D03*
X0088425Y0151575D02*
D03*
X0069055Y0151575D02*
D03*
X0069055Y0149606D02*
D03*
X0069055Y0147638D02*
D03*
X0069055Y0145669D02*
D03*
X0069055Y0143701D02*
D03*
X0069055Y0141732D02*
D03*
X0069055Y0139764D02*
D03*
D62*
X0078740Y0145669D02*
D03*
D63*
X0056299Y0155512D02*
D03*
X0062205Y0155512D02*
D03*
X0057677Y0164961D02*
D03*
X0063582Y0164961D02*
D03*
X0101377Y0155512D02*
D03*
X0095473Y0155512D02*
D03*
X0101377Y0149606D02*
D03*
X0095473Y0149606D02*
D03*
X0100197Y0164961D02*
D03*
X0094291Y0164961D02*
D03*
X0087992Y0164961D02*
D03*
X0082087Y0164961D02*
D03*
X0075787Y0164961D02*
D03*
X0069882Y0164961D02*
D03*
D64*
X0077165Y0121157D02*
D03*
X0077165Y0126087D02*
D03*
D65*
X0085433Y0120706D02*
D03*
X0085433Y0126536D02*
D03*
X0108268Y0140711D02*
D03*
X0108268Y0134879D02*
D03*
X0108268Y0156459D02*
D03*
X0108268Y0150628D02*
D03*
D66*
X0050000Y0150785D02*
D03*
X0050000Y0156301D02*
D03*
D67*
X0071260Y0125985D02*
D03*
X0071260Y0121258D02*
D03*
D68*
X0125394Y0118307D02*
D03*
X0125394Y0112401D02*
D03*
X0118504Y0118307D02*
D03*
X0118504Y0112401D02*
D03*
D69*
X0058956Y0126728D02*
D03*
X0058956Y0139413D02*
D03*
D70*
X0116929Y0073858D02*
D03*
X0127953Y0073858D02*
D03*
X0102362Y0073858D02*
D03*
X0102362Y0083858D02*
D03*
X0091337Y0073858D02*
D03*
X0091337Y0083858D02*
D03*
X0076772Y0073858D02*
D03*
X0076772Y0083858D02*
D03*
X0065748Y0073858D02*
D03*
X0065748Y0083858D02*
D03*
X0051575Y0073858D02*
D03*
X0051575Y0083858D02*
D03*
X0040551Y0073858D02*
D03*
X0040551Y0083858D02*
D03*
X0029528Y0073858D02*
D03*
X0029528Y0083858D02*
D03*
X0150393Y0155669D02*
D03*
X0150393Y0145669D02*
D03*
X0150393Y0108898D02*
D03*
X0150393Y0172283D02*
D03*
D71*
X0116929Y0083858D02*
D03*
X0127953Y0083858D02*
D03*
X0102362Y0093858D02*
D03*
X0091337Y0093858D02*
D03*
X0076772Y0093858D02*
D03*
X0065748Y0093858D02*
D03*
X0051575Y0093858D02*
D03*
X0040551Y0093858D02*
D03*
X0029528Y0093858D02*
D03*
X0150393Y0135669D02*
D03*
X0150393Y0118897D02*
D03*
X0150393Y0182283D02*
D03*
D72*
X0016535Y0135828D02*
D03*
X0092521Y0207873D02*
D03*
X0045276Y0207873D02*
D03*
D73*
X0016535Y0155513D02*
D03*
D74*
X0112206Y0207873D02*
D03*
X0064961Y0207873D02*
D03*
D75*
X0011811Y0078740D02*
D03*
X0145669Y0212598D02*
D03*
X0011811Y0212598D02*
D03*
X0145669Y0078740D02*
D03*
D76*
X0136221Y0179528D02*
D03*
X0136221Y0132282D02*
D03*
X0124408Y0203150D02*
D03*
X0112599Y0179528D02*
D03*
X0100787Y0203150D02*
D03*
X0088976Y0179528D02*
D03*
X0065354Y0179528D02*
D03*
X0053542Y0203150D02*
D03*
X0041732Y0179528D02*
D03*
X0029920Y0203150D02*
D03*
X0018110Y0179528D02*
D03*
X0029920Y0108661D02*
D03*
X0068701Y0157464D02*
D03*
X0070472Y0155512D02*
D03*
X0083465Y0158661D02*
D03*
X0080709Y0158661D02*
D03*
X0074803Y0159841D02*
D03*
X0063975Y0159644D02*
D03*
X0058858Y0144488D02*
D03*
X0088779Y0126377D02*
D03*
X0118700Y0108268D02*
D03*
X0110827Y0124408D02*
D03*
X0108464Y0120866D02*
D03*
X0114370Y0115157D02*
D03*
X0118307Y0123031D02*
D03*
X0088189Y0171260D02*
D03*
X0063778Y0170079D02*
D03*
X0051181Y0161417D02*
D03*
X0102362Y0141339D02*
D03*
X0112205Y0135039D02*
D03*
X0074803Y0172441D02*
D03*
X0112598Y0150787D02*
D03*
X0066929Y0168504D02*
D03*
D77*
X0074409Y0141339D02*
D03*
X0074409Y0149999D02*
D03*
X0078740Y0145669D02*
D03*
X0083071Y0141339D02*
D03*
X0083071Y0149999D02*
D03*
G04 next file*
G04*
G04 #@! TF.GenerationSoftware,Altium Limited,Altium Designer,21.7.2 (23)*
G04*
G04 Layer_Color=8388736*
G04 skipping 70
G04*
G04 #@! TF.SameCoordinates,4C6A6D40-5D94-4475-8A21-F7F3A9D7BEC8*
G04*
G04*
G04 #@! TF.FilePolarity,Negative*
G04*
G01*
G75*
G36*
X0231279Y0126614D02*
X0229114Y0124408D01*
X0218129Y0124408D01*
X0215964Y0126614D01*
X0215964Y0130118D01*
X0219015Y0130118D01*
X0221358Y0127834D01*
X0225886Y0127834D01*
X0228228Y0130118D01*
X0231279Y0130118D01*
X0231279Y0126614D01*
D02*
G37*
G36*
X0231279Y0139527D02*
X0231279Y0136024D01*
X0228228Y0136024D01*
X0225886Y0138307D01*
X0221358Y0138307D01*
X0219015Y0136024D01*
X0215964Y0136024D01*
X0215964Y0139527D01*
X0218129Y0141732D01*
X0229114Y0141732D01*
X0231279Y0139527D01*
D02*
G37*
D78*
X0242126Y0135984D02*
D03*
X0244094Y0135984D02*
D03*
X0246063Y0135984D02*
D03*
X0248030Y0135984D02*
D03*
X0250000Y0135984D02*
D03*
X0251968Y0135984D02*
D03*
X0253937Y0135984D02*
D03*
X0253937Y0155353D02*
D03*
X0251968Y0155353D02*
D03*
X0250000Y0155353D02*
D03*
X0248030Y0155353D02*
D03*
X0246063Y0155353D02*
D03*
X0244094Y0155353D02*
D03*
X0242126Y0155353D02*
D03*
D79*
X0257716Y0139764D02*
D03*
X0257716Y0141732D02*
D03*
X0257716Y0143701D02*
D03*
X0257716Y0145669D02*
D03*
X0257716Y0147638D02*
D03*
X0257716Y0149606D02*
D03*
X0257716Y0151575D02*
D03*
X0238346Y0151575D02*
D03*
X0238346Y0149606D02*
D03*
X0238346Y0147638D02*
D03*
X0238346Y0145669D02*
D03*
X0238346Y0143701D02*
D03*
X0238346Y0141732D02*
D03*
X0238346Y0139764D02*
D03*
D80*
X0248030Y0145669D02*
D03*
D81*
X0225590Y0155512D02*
D03*
X0231496Y0155512D02*
D03*
X0226968Y0164961D02*
D03*
X0232873Y0164961D02*
D03*
X0270669Y0155512D02*
D03*
X0264764Y0155512D02*
D03*
X0270669Y0149606D02*
D03*
X0264764Y0149606D02*
D03*
X0269488Y0164961D02*
D03*
X0263582Y0164961D02*
D03*
X0257282Y0164961D02*
D03*
X0251378Y0164961D02*
D03*
X0245078Y0164961D02*
D03*
X0239173Y0164961D02*
D03*
D82*
X0246456Y0121157D02*
D03*
X0246456Y0126087D02*
D03*
D83*
X0254724Y0120706D02*
D03*
X0254724Y0126536D02*
D03*
X0277559Y0140711D02*
D03*
X0277559Y0134879D02*
D03*
X0277559Y0156459D02*
D03*
X0277559Y0150628D02*
D03*
D84*
X0219291Y0150785D02*
D03*
X0219291Y0156301D02*
D03*
D85*
X0240551Y0125985D02*
D03*
X0240551Y0121258D02*
D03*
D86*
X0294685Y0118307D02*
D03*
X0294685Y0112401D02*
D03*
X0287795Y0118307D02*
D03*
X0287795Y0112401D02*
D03*
D87*
X0228247Y0126728D02*
D03*
X0228247Y0139413D02*
D03*
D88*
X0286220Y0073858D02*
D03*
X0297244Y0073858D02*
D03*
X0271652Y0073858D02*
D03*
X0271652Y0083858D02*
D03*
X0260630Y0073858D02*
D03*
X0260630Y0083858D02*
D03*
X0246063Y0073858D02*
D03*
X0246063Y0083858D02*
D03*
X0235039Y0073858D02*
D03*
X0235039Y0083858D02*
D03*
X0220866Y0073858D02*
D03*
X0220866Y0083858D02*
D03*
X0209842Y0073858D02*
D03*
X0209842Y0083858D02*
D03*
X0198818Y0073858D02*
D03*
X0198818Y0083858D02*
D03*
X0319685Y0155669D02*
D03*
X0319685Y0145669D02*
D03*
X0319685Y0108898D02*
D03*
X0319685Y0172283D02*
D03*
D89*
X0286220Y0083858D02*
D03*
X0297244Y0083858D02*
D03*
X0271652Y0093858D02*
D03*
X0260630Y0093858D02*
D03*
X0246063Y0093858D02*
D03*
X0235039Y0093858D02*
D03*
X0220866Y0093858D02*
D03*
X0209842Y0093858D02*
D03*
X0198818Y0093858D02*
D03*
X0319685Y0135669D02*
D03*
X0319685Y0118897D02*
D03*
X0319685Y0182283D02*
D03*
D90*
X0185826Y0135828D02*
D03*
X0261811Y0207873D02*
D03*
X0214567Y0207873D02*
D03*
D91*
X0185826Y0155513D02*
D03*
D92*
X0281497Y0207873D02*
D03*
X0234252Y0207873D02*
D03*
D93*
X0181102Y0078740D02*
D03*
X0314960Y0212598D02*
D03*
X0181102Y0212598D02*
D03*
X0314960Y0078740D02*
D03*
D94*
X0305512Y0179528D02*
D03*
X0305512Y0132282D02*
D03*
X0293700Y0203150D02*
D03*
X0281890Y0179528D02*
D03*
X0270078Y0203150D02*
D03*
X0258266Y0179528D02*
D03*
X0234645Y0179528D02*
D03*
X0222834Y0203150D02*
D03*
X0211023Y0179528D02*
D03*
X0199212Y0203150D02*
D03*
X0187401Y0179528D02*
D03*
X0199212Y0108661D02*
D03*
X0237991Y0157464D02*
D03*
X0239763Y0155512D02*
D03*
X0252755Y0158661D02*
D03*
X0250000Y0158661D02*
D03*
X0244094Y0159841D02*
D03*
X0233266Y0159644D02*
D03*
X0228148Y0144488D02*
D03*
X0258070Y0126377D02*
D03*
X0287992Y0108268D02*
D03*
X0280118Y0124408D02*
D03*
X0277756Y0120866D02*
D03*
X0283661Y0115157D02*
D03*
X0287598Y0123031D02*
D03*
X0257479Y0171260D02*
D03*
X0233070Y0170079D02*
D03*
X0220472Y0161417D02*
D03*
X0271652Y0141339D02*
D03*
X0281496Y0135039D02*
D03*
X0244094Y0172441D02*
D03*
X0281889Y0150787D02*
D03*
X0236220Y0168504D02*
D03*
D95*
X0243701Y0141339D02*
D03*
X0243701Y0149999D02*
D03*
X0248030Y0145669D02*
D03*
X0252362Y0141339D02*
D03*
X0252362Y0149999D02*
D03*
M02*