M48
;Layer_Color=9474304
;FILE_FORMAT=2:4
INCH,TZ
;TYPE=PLATED
T1F00S00C0.0079
T2F00S00C0.0118
T3F00S00C0.0354
T4F00S00C0.0512
T5F00S00C0.1181
%
T01
X2992Y4173
X11870Y4134
X11437Y4823
X10846Y5394
X11831Y5610
X11083Y5748
X11220Y6811
X10236Y7441
X11260Y8386
X11260Y11260
X13622
X12441Y13622
X10079
X8898Y11260
X8819Y10433
X7480Y10551
X6693Y10157
X6378Y10315
X6398Y9272
X6870Y9054
X7047Y8858
X7480Y9291
X8071Y9173
X8346
X8878Y5945
X5886Y7756
X6535Y11260
X13622Y6535
X5118Y9449
X4173Y11260
X1811
X2992Y13622
X5354
T02
X7441Y7441
Y8307
X7874Y7874
X8307Y7441
Y8307
T03
X2953Y693
Y1693
Y2693
X4055
Y1693
Y693
X5157
Y1693
Y2693
X6575
Y1693
Y693
X7677
Y1693
Y2693
X9134
Y1693
Y693
X10236
Y1693
Y2693
X11693Y1693
Y693
X12795
Y1693
X15039Y4197
Y5197
X15039Y6874
Y7874
Y8874
X15039Y10535
Y11535
T04
X6496Y14094
X9252Y14094
X11221
X4528Y14094
X1654Y8858
Y6890
T05
X1181Y1181
X14567
Y14567
X1181
M30
