G04*
G04 #@! TF.GenerationSoftware,Altium Limited,Altium Designer,21.7.2 (23)*
G04*
G04 Layer_Color=65535*
%FSLAX25Y25*%
%MOIN*%
G70*
G04*
G04 #@! TF.SameCoordinates,4C6A6D40-5D94-4475-8A21-F7F3A9D7BEC8*
G04*
G04*
G04 #@! TF.FilePolarity,Positive*
G04*
G01*
G75*
%ADD10C,0.00984*%
%ADD11C,0.01000*%
%ADD12C,0.00394*%
%ADD13C,0.00787*%
D10*
X69980Y66339D02*
X69242Y66765D01*
Y65912D01*
X69980Y66339D01*
X54823Y55216D02*
X54085Y55643D01*
Y54790D01*
X54823Y55216D01*
D11*
X60630Y32283D02*
X81890D01*
X60630Y44488D02*
X81890D01*
Y32283D02*
Y44488D01*
X60630Y32283D02*
Y44488D01*
X86221Y32283D02*
X107480D01*
X86221Y44488D02*
X107480D01*
Y32283D02*
Y44488D01*
X86221Y32283D02*
Y44488D01*
X60630Y38189D02*
X81890D01*
X60630Y51181D02*
X81890D01*
Y38189D02*
Y51181D01*
X60630Y38189D02*
Y51181D01*
X111811Y27953D02*
X133071D01*
X111811Y40945D02*
X133071D01*
Y27953D02*
Y40945D01*
X111811Y27953D02*
Y40945D01*
X24409Y32283D02*
X56693D01*
X24409Y44488D02*
X56693D01*
Y32283D02*
Y44488D01*
X24409Y32283D02*
Y44488D01*
Y38189D02*
X56693D01*
X24409Y51181D02*
X56693D01*
Y38189D02*
Y51181D01*
X24409Y38189D02*
Y51181D01*
X111811Y22047D02*
X133071D01*
X111811Y34252D02*
X133071D01*
Y22047D02*
Y34252D01*
X111811Y22047D02*
Y34252D01*
X86221Y38189D02*
X107480D01*
X86221Y51181D02*
X107480D01*
Y38189D02*
Y51181D01*
X86221Y38189D02*
Y51181D01*
X115894Y38991D02*
X113795D01*
Y37417D01*
X114845D01*
X113795D01*
Y35842D01*
X116944Y38991D02*
Y35842D01*
X118518D01*
X119043Y36367D01*
Y36892D01*
X118518Y37417D01*
X116944D01*
X118518D01*
X119043Y37942D01*
Y38466D01*
X118518Y38991D01*
X116944D01*
X120092Y35842D02*
Y38991D01*
X121667D01*
X122192Y38466D01*
Y37417D01*
X121667Y36892D01*
X120092D01*
X123241Y35842D02*
Y38991D01*
X124815D01*
X125340Y38466D01*
Y37417D01*
X124815Y36892D01*
X123241D01*
X124291D02*
X125340Y35842D01*
X126390Y38991D02*
X127439D01*
X126914D01*
Y35842D01*
X126390D01*
X127439D01*
X129014D02*
Y38991D01*
X130063Y37942D01*
X131113Y38991D01*
Y35842D01*
X115567Y32495D02*
Y29346D01*
X117141D01*
X117666Y29871D01*
Y31970D01*
X117141Y32495D01*
X115567D01*
X126394D02*
Y29871D01*
X126918Y29346D01*
X127968D01*
X128493Y29871D01*
Y32495D01*
X100016Y42731D02*
Y39583D01*
X102115D01*
X103164Y42731D02*
Y40632D01*
X104214Y39583D01*
X105263Y40632D01*
Y42731D01*
X88795D02*
Y39583D01*
Y41157D01*
X90894D01*
Y42731D01*
Y39583D01*
X91944Y42731D02*
Y40632D01*
X92993Y39583D01*
X94043Y40632D01*
Y42731D01*
X96406Y49424D02*
X94307D01*
Y46276D01*
X96406D01*
X94307Y47850D02*
X95357D01*
X97456Y46276D02*
Y49424D01*
X99555Y46276D01*
Y49424D01*
X64516Y48899D02*
X63992Y49424D01*
X62942D01*
X62417Y48899D01*
Y48375D01*
X62942Y47850D01*
X63992D01*
X64516Y47325D01*
Y46800D01*
X63992Y46276D01*
X62942D01*
X62417Y46800D01*
X67665Y49424D02*
X65566D01*
Y46276D01*
X67665D01*
X65566Y47850D02*
X66615D01*
X68714Y49424D02*
Y46276D01*
X70814D01*
X71863D02*
Y49424D01*
X72913Y48375D01*
X73962Y49424D01*
Y46276D01*
X75012D02*
Y49424D01*
X76586D01*
X77111Y48899D01*
Y47850D01*
X76586Y47325D01*
X75012D01*
X78160Y46276D02*
Y49424D01*
X79735D01*
X80259Y48899D01*
Y47850D01*
X79735Y47325D01*
X78160D01*
X64780Y39583D02*
X65829D01*
X65304D01*
Y42731D01*
X64780Y42206D01*
X76197D02*
X76722Y42731D01*
X77771D01*
X78296Y42206D01*
Y40108D01*
X77771Y39583D01*
X76722D01*
X76197Y40108D01*
Y42206D01*
X50606D02*
X51131Y42731D01*
X52181D01*
X52705Y42206D01*
Y40108D01*
X52181Y39583D01*
X51131D01*
X50606Y40108D01*
Y42206D01*
X39976Y39583D02*
X41026D01*
X40501D01*
Y42731D01*
X39976Y42206D01*
X30658Y39583D02*
X28559D01*
X30658Y41682D01*
Y42206D01*
X30133Y42731D01*
X29084D01*
X28559Y42206D01*
X38926Y48899D02*
X38401Y49424D01*
X37352D01*
X36827Y48899D01*
Y46800D01*
X37352Y46276D01*
X38401D01*
X38926Y46800D01*
X42074Y49424D02*
X39975D01*
Y47850D01*
X41025D01*
X39975D01*
Y46276D01*
X45223Y48899D02*
X44698Y49424D01*
X43649D01*
X43124Y48899D01*
Y46800D01*
X43649Y46276D01*
X44698D01*
X45223Y46800D01*
Y47850D01*
X44173D01*
X86827Y119109D02*
Y115961D01*
X88401D01*
X88926Y116485D01*
Y117010D01*
X88401Y117535D01*
X86827D01*
X88401D01*
X88926Y118060D01*
Y118585D01*
X88401Y119109D01*
X86827D01*
X89975Y115961D02*
Y118060D01*
X91025Y119109D01*
X92074Y118060D01*
Y115961D01*
Y117535D01*
X89975D01*
X93124Y119109D02*
X95223D01*
X94174D01*
Y115961D01*
X96272Y119109D02*
X98372D01*
X97322D01*
Y115961D01*
X39189D02*
Y119109D01*
X40763D01*
X41288Y118585D01*
Y117535D01*
X40763Y117010D01*
X39189D01*
X42338Y115961D02*
Y119109D01*
X43912D01*
X44437Y118585D01*
Y117535D01*
X43912Y117010D01*
X42338D01*
X43387D02*
X44437Y115961D01*
X45486Y119109D02*
X46536D01*
X46011D01*
Y115961D01*
X45486D01*
X46536D01*
X48110D02*
Y119109D01*
X49160Y118060D01*
X50209Y119109D01*
Y115961D01*
X110184Y118585D02*
X109659Y119109D01*
X108609D01*
X108085Y118585D01*
Y116485D01*
X108609Y115961D01*
X109659D01*
X110184Y116485D01*
Y117535D01*
X109134D01*
X111233Y115961D02*
Y119109D01*
X113332Y115961D01*
Y119109D01*
X114382D02*
Y115961D01*
X115956D01*
X116481Y116485D01*
Y118585D01*
X115956Y119109D01*
X114382D01*
X64121Y118585D02*
X63596Y119109D01*
X62546D01*
X62022Y118585D01*
Y116485D01*
X62546Y115961D01*
X63596D01*
X64121Y116485D01*
Y117535D01*
X63071D01*
X65170Y115961D02*
Y119109D01*
X67269Y115961D01*
Y119109D01*
X68319D02*
Y115961D01*
X69893D01*
X70418Y116485D01*
Y118585D01*
X69893Y119109D01*
X68319D01*
X37612Y89975D02*
X38662D01*
X38137D01*
Y86827D01*
X37612D01*
X38662D01*
X40236D02*
Y89975D01*
X42335Y86827D01*
Y89975D01*
X39713Y70553D02*
X39189Y71078D01*
X38139D01*
X37614Y70553D01*
Y68454D01*
X38139Y67929D01*
X39189D01*
X39713Y68454D01*
Y69503D01*
X38664D01*
X40763Y67929D02*
Y71078D01*
X42862Y67929D01*
Y71078D01*
X43911D02*
Y67929D01*
X45486D01*
X46010Y68454D01*
Y70553D01*
X45486Y71078D01*
X43911D01*
X124755Y69766D02*
X124230Y70290D01*
X123180D01*
X122656Y69766D01*
Y69241D01*
X123180Y68716D01*
X124230D01*
X124755Y68191D01*
Y67667D01*
X124230Y67142D01*
X123180D01*
X122656Y67667D01*
X125804Y70290D02*
X127903D01*
X126854D01*
Y67142D01*
X128953D02*
Y69241D01*
X130002Y70290D01*
X131052Y69241D01*
Y67142D01*
Y68716D01*
X128953D01*
X132101Y70290D02*
X134200D01*
X133151D01*
Y67142D01*
X135250Y70290D02*
Y67667D01*
X135775Y67142D01*
X136824D01*
X137349Y67667D01*
Y70290D01*
X140498Y69766D02*
X139973Y70290D01*
X138923D01*
X138399Y69766D01*
Y69241D01*
X138923Y68716D01*
X139973D01*
X140498Y68191D01*
Y67667D01*
X139973Y67142D01*
X138923D01*
X138399Y67667D01*
X141547Y69766D02*
X142072Y70290D01*
X143121D01*
X143646Y69766D01*
Y67667D01*
X143121Y67142D01*
X142072D01*
X141547Y67667D01*
Y69766D01*
X125804Y80002D02*
X125279Y80527D01*
X124230D01*
X123705Y80002D01*
Y79477D01*
X124230Y78952D01*
X125279D01*
X125804Y78427D01*
Y77903D01*
X125279Y77378D01*
X124230D01*
X123705Y77903D01*
X126854Y80527D02*
X128953D01*
X127903D01*
Y77378D01*
X130002D02*
Y79477D01*
X131052Y80527D01*
X132101Y79477D01*
Y77378D01*
Y78952D01*
X130002D01*
X133151Y80527D02*
X135250D01*
X134200D01*
Y77378D01*
X136300Y80527D02*
Y77903D01*
X136824Y77378D01*
X137874D01*
X138399Y77903D01*
Y80527D01*
X141547Y80002D02*
X141022Y80527D01*
X139973D01*
X139448Y80002D01*
Y79477D01*
X139973Y78952D01*
X141022D01*
X141547Y78427D01*
Y77903D01*
X141022Y77378D01*
X139973D01*
X139448Y77903D01*
X142597Y77378D02*
X143646D01*
X143121D01*
Y80527D01*
X142597Y80002D01*
X124755Y90238D02*
X124230Y90763D01*
X123180D01*
X122656Y90238D01*
Y89713D01*
X123180Y89188D01*
X124230D01*
X124755Y88664D01*
Y88139D01*
X124230Y87614D01*
X123180D01*
X122656Y88139D01*
X125804Y90763D02*
X127903D01*
X126854D01*
Y87614D01*
X128953D02*
Y89713D01*
X130002Y90763D01*
X131052Y89713D01*
Y87614D01*
Y89188D01*
X128953D01*
X132101Y90763D02*
X134200D01*
X133151D01*
Y87614D01*
X135250Y90763D02*
Y88139D01*
X135775Y87614D01*
X136824D01*
X137349Y88139D01*
Y90763D01*
X140498Y90238D02*
X139973Y90763D01*
X138923D01*
X138399Y90238D01*
Y89713D01*
X138923Y89188D01*
X139973D01*
X140498Y88664D01*
Y88139D01*
X139973Y87614D01*
X138923D01*
X138399Y88139D01*
X143646Y87614D02*
X141547D01*
X143646Y89713D01*
Y90238D01*
X143121Y90763D01*
X142072D01*
X141547Y90238D01*
X128953Y53361D02*
Y50213D01*
X131052D01*
X132101Y53361D02*
Y51262D01*
X133151Y50213D01*
X134200Y51262D01*
Y53361D01*
X136824D02*
X135775D01*
X135250Y52836D01*
Y50737D01*
X135775Y50213D01*
X136824D01*
X137349Y50737D01*
Y52836D01*
X136824Y53361D01*
X138399D02*
Y50737D01*
X138923Y50213D01*
X139973D01*
X140498Y50737D01*
Y53361D01*
X141547D02*
X143646D01*
X142597D01*
Y50213D01*
X137349Y42994D02*
X136824Y43519D01*
X135775D01*
X135250Y42994D01*
Y40895D01*
X135775Y40370D01*
X136824D01*
X137349Y40895D01*
Y41944D01*
X136300D01*
X138399Y40370D02*
Y43519D01*
X140498Y40370D01*
Y43519D01*
X141547D02*
Y40370D01*
X143121D01*
X143646Y40895D01*
Y42994D01*
X143121Y43519D01*
X141547D01*
X137349Y105986D02*
X136824Y106511D01*
X135775D01*
X135250Y105986D01*
Y103887D01*
X135775Y103362D01*
X136824D01*
X137349Y103887D01*
Y104937D01*
X136300D01*
X138399Y103362D02*
Y106511D01*
X140498Y103362D01*
Y106511D01*
X141547D02*
Y103362D01*
X143121D01*
X143646Y103887D01*
Y105986D01*
X143121Y106511D01*
X141547D01*
X128953Y116353D02*
Y113205D01*
Y114779D01*
X131052D01*
Y116353D01*
Y113205D01*
X132101Y116353D02*
Y114254D01*
X133151Y113205D01*
X134200Y114254D01*
Y116353D01*
X136824D02*
X135775D01*
X135250Y115829D01*
Y113730D01*
X135775Y113205D01*
X136824D01*
X137349Y113730D01*
Y115829D01*
X136824Y116353D01*
X138399D02*
Y113730D01*
X138923Y113205D01*
X139973D01*
X140498Y113730D01*
Y116353D01*
X141547D02*
X143646D01*
X142597D01*
Y113205D01*
X64502Y90158D02*
Y93307D01*
X66076D01*
X66601Y92782D01*
Y91732D01*
X66076Y91207D01*
X64502D01*
X65552D02*
X66601Y90158D01*
X67651Y92782D02*
X68176Y93307D01*
X69225D01*
X69750Y92782D01*
Y92257D01*
X69225Y91732D01*
X69750Y91207D01*
Y90683D01*
X69225Y90158D01*
X68176D01*
X67651Y90683D01*
Y91207D01*
X68176Y91732D01*
X67651Y92257D01*
Y92782D01*
X68176Y91732D02*
X69225D01*
X49869Y98294D02*
X49344Y98818D01*
X48295D01*
X47770Y98294D01*
Y96195D01*
X48295Y95670D01*
X49344D01*
X49869Y96195D01*
X52493Y95670D02*
Y98818D01*
X50919Y97244D01*
X53017D01*
X63846Y68110D02*
Y65486D01*
X64371Y64961D01*
X65420D01*
X65945Y65486D01*
Y68110D01*
X66994Y64961D02*
X68044D01*
X67519D01*
Y68110D01*
X66994Y67585D01*
X3412Y107873D02*
X2363D01*
X2888D01*
Y105250D01*
X2363Y104725D01*
X1838D01*
X1313Y105250D01*
X4462Y107349D02*
X4986Y107873D01*
X6036D01*
X6561Y107349D01*
Y106824D01*
X6036Y106299D01*
X5511D01*
X6036D01*
X6561Y105774D01*
Y105250D01*
X6036Y104725D01*
X4986D01*
X4462Y105250D01*
X29528Y155118D02*
X28478D01*
X29003D01*
Y152494D01*
X28478Y151969D01*
X27953D01*
X27428Y152494D01*
X30577Y151969D02*
X31627D01*
X31102D01*
Y155118D01*
X30577Y154593D01*
X127428Y155118D02*
X126379D01*
X126903D01*
Y152494D01*
X126379Y151969D01*
X125854D01*
X125329Y152494D01*
X130577Y151969D02*
X128478D01*
X130577Y154068D01*
Y154593D01*
X130052Y155118D01*
X129002D01*
X128478Y154593D01*
X94612Y101182D02*
Y104330D01*
X96186D01*
X96711Y103805D01*
Y102756D01*
X96186Y102231D01*
X94612D01*
X95661D02*
X96711Y101182D01*
X97760Y101706D02*
X98285Y101182D01*
X99335D01*
X99860Y101706D01*
Y103805D01*
X99335Y104330D01*
X98285D01*
X97760Y103805D01*
Y103281D01*
X98285Y102756D01*
X99860D01*
X122967Y54725D02*
Y57873D01*
X124541D01*
X125066Y57349D01*
Y56299D01*
X124541Y55774D01*
X122967D01*
X124016D02*
X125066Y54725D01*
X128214Y57873D02*
X127165Y57349D01*
X126115Y56299D01*
Y55250D01*
X126640Y54725D01*
X127690D01*
X128214Y55250D01*
Y55774D01*
X127690Y56299D01*
X126115D01*
X115987Y54814D02*
Y57963D01*
X117562D01*
X118087Y57438D01*
Y56388D01*
X117562Y55864D01*
X115987D01*
X117037D02*
X118087Y54814D01*
X120710D02*
Y57963D01*
X119136Y56388D01*
X121235D01*
X82415Y101182D02*
Y104330D01*
X83990D01*
X84515Y103805D01*
Y102756D01*
X83990Y102231D01*
X82415D01*
X83465D02*
X84515Y101182D01*
X85564Y104330D02*
X87663D01*
Y103805D01*
X85564Y101706D01*
Y101182D01*
X70211D02*
Y104330D01*
X71785D01*
X72310Y103805D01*
Y102756D01*
X71785Y102231D01*
X70211D01*
X71260D02*
X72310Y101182D01*
X75459Y104330D02*
X73359D01*
Y102756D01*
X74409Y103281D01*
X74934D01*
X75459Y102756D01*
Y101706D01*
X74934Y101182D01*
X73884D01*
X73359Y101706D01*
X58006Y101182D02*
Y104330D01*
X59580D01*
X60105Y103805D01*
Y102756D01*
X59580Y102231D01*
X58006D01*
X59056D02*
X60105Y101182D01*
X61155Y103805D02*
X61680Y104330D01*
X62729D01*
X63254Y103805D01*
Y103281D01*
X62729Y102756D01*
X62204D01*
X62729D01*
X63254Y102231D01*
Y101706D01*
X62729Y101182D01*
X61680D01*
X61155Y101706D01*
X87927Y90158D02*
Y93307D01*
X89502D01*
X90026Y92782D01*
Y91732D01*
X89502Y91207D01*
X87927D01*
X88977D02*
X90026Y90158D01*
X93175D02*
X91076D01*
X93175Y92257D01*
Y92782D01*
X92650Y93307D01*
X91601D01*
X91076Y92782D01*
X96326Y76379D02*
Y79527D01*
X97900D01*
X98425Y79002D01*
Y77953D01*
X97900Y77428D01*
X96326D01*
X97376D02*
X98425Y76379D01*
X99475D02*
X100524D01*
X99999D01*
Y79527D01*
X99475Y79002D01*
X88868Y33332D02*
Y36480D01*
X90443D01*
X90968Y35955D01*
Y34906D01*
X90443Y34381D01*
X88868D01*
X94116Y36480D02*
X93067Y35955D01*
X92017Y34906D01*
Y33856D01*
X92542Y33332D01*
X93591D01*
X94116Y33856D01*
Y34381D01*
X93591Y34906D01*
X92017D01*
X48164Y33332D02*
Y36480D01*
X49738D01*
X50263Y35955D01*
Y34906D01*
X49738Y34381D01*
X48164D01*
X51312Y33332D02*
X52362D01*
X51837D01*
Y36480D01*
X51312Y35955D01*
X53936Y33332D02*
X54986D01*
X54461D01*
Y36480D01*
X53936Y35955D01*
X74369Y33332D02*
Y36480D01*
X75943D01*
X76468Y35955D01*
Y34906D01*
X75943Y34381D01*
X74369D01*
X79616Y36480D02*
X77517D01*
Y34906D01*
X78567Y35431D01*
X79091D01*
X79616Y34906D01*
Y33856D01*
X79091Y33332D01*
X78042D01*
X77517Y33856D01*
X27068Y33332D02*
Y36480D01*
X28643D01*
X29168Y35955D01*
Y34906D01*
X28643Y34381D01*
X27068D01*
X31791Y33332D02*
Y36480D01*
X30217Y34906D01*
X32316D01*
X147770Y94882D02*
Y98031D01*
X149344D01*
X149869Y97506D01*
Y96457D01*
X149344Y95932D01*
X147770D01*
X150918Y97506D02*
X151443Y98031D01*
X152493D01*
X153017Y97506D01*
Y96982D01*
X152493Y96457D01*
X151968D01*
X152493D01*
X153017Y95932D01*
Y95407D01*
X152493Y94882D01*
X151443D01*
X150918Y95407D01*
X38168Y33332D02*
Y36480D01*
X39743D01*
X40268Y35955D01*
Y34906D01*
X39743Y34381D01*
X38168D01*
X41317Y36480D02*
X43416D01*
Y35955D01*
X41317Y33856D01*
Y33332D01*
X148295Y58268D02*
Y61417D01*
X149869D01*
X150394Y60892D01*
Y59842D01*
X149869Y59318D01*
X148295D01*
X151443Y58268D02*
X152493D01*
X151968D01*
Y61417D01*
X151443Y60892D01*
X147770Y121654D02*
Y124803D01*
X149344D01*
X149869Y124278D01*
Y123228D01*
X149344Y122704D01*
X147770D01*
X153017Y121654D02*
X150918D01*
X153017Y123753D01*
Y124278D01*
X152493Y124803D01*
X151443D01*
X150918Y124278D01*
X99968Y33332D02*
Y36480D01*
X101543D01*
X102068Y35955D01*
Y34906D01*
X101543Y34381D01*
X99968D01*
X103117Y33856D02*
X103642Y33332D01*
X104691D01*
X105216Y33856D01*
Y35955D01*
X104691Y36480D01*
X103642D01*
X103117Y35955D01*
Y35431D01*
X103642Y34906D01*
X105216D01*
X112993Y23426D02*
Y26574D01*
X114568D01*
X115093Y26050D01*
Y25000D01*
X114568Y24475D01*
X112993D01*
X116142Y23426D02*
X117192D01*
X116667D01*
Y26574D01*
X116142Y26050D01*
X120865Y23426D02*
X118766D01*
X120865Y25525D01*
Y26050D01*
X120340Y26574D01*
X119291D01*
X118766Y26050D01*
X63368Y33332D02*
Y36480D01*
X64943D01*
X65468Y35955D01*
Y34906D01*
X64943Y34381D01*
X63368D01*
X66517Y35955D02*
X67042Y36480D01*
X68091D01*
X68616Y35955D01*
Y35431D01*
X68091Y34906D01*
X68616Y34381D01*
Y33856D01*
X68091Y33332D01*
X67042D01*
X66517Y33856D01*
Y34381D01*
X67042Y34906D01*
X66517Y35431D01*
Y35955D01*
X67042Y34906D02*
X68091D01*
X123994Y23426D02*
Y26574D01*
X125568D01*
X126093Y26050D01*
Y25000D01*
X125568Y24475D01*
X123994D01*
X127142Y23426D02*
X128192D01*
X127667D01*
Y26574D01*
X127142Y26050D01*
X129766D02*
X130291Y26574D01*
X131340D01*
X131865Y26050D01*
Y23950D01*
X131340Y23426D01*
X130291D01*
X129766Y23950D01*
Y26050D01*
X74935Y64960D02*
Y61812D01*
X77034D01*
X80183D02*
X78084D01*
X80183Y63911D01*
Y64435D01*
X79658Y64960D01*
X78609D01*
X78084Y64435D01*
X47507Y55905D02*
Y52756D01*
X49606D01*
X50656D02*
X51705D01*
X51181D01*
Y55905D01*
X50656Y55380D01*
X92389Y58136D02*
X91864Y58661D01*
X90814D01*
X90290Y58136D01*
Y56037D01*
X90814Y55512D01*
X91864D01*
X92389Y56037D01*
X95537Y58661D02*
X93438D01*
Y57087D01*
X94488Y57611D01*
X95012D01*
X95537Y57087D01*
Y56037D01*
X95012Y55512D01*
X93963D01*
X93438Y56037D01*
X107743Y98294D02*
X107218Y98818D01*
X106169D01*
X105644Y98294D01*
Y96195D01*
X106169Y95670D01*
X107218D01*
X107743Y96195D01*
X108792Y98294D02*
X109317Y98818D01*
X110367D01*
X110892Y98294D01*
Y97769D01*
X110367Y97244D01*
X109842D01*
X110367D01*
X110892Y96719D01*
Y96195D01*
X110367Y95670D01*
X109317D01*
X108792Y96195D01*
X107743Y61286D02*
X107218Y61810D01*
X106169D01*
X105644Y61286D01*
Y59187D01*
X106169Y58662D01*
X107218D01*
X107743Y59187D01*
X110892Y58662D02*
X108792D01*
X110892Y60761D01*
Y61286D01*
X110367Y61810D01*
X109317D01*
X108792Y61286D01*
X64567Y58136D02*
X64042Y58661D01*
X62993D01*
X62468Y58136D01*
Y56037D01*
X62993Y55512D01*
X64042D01*
X64567Y56037D01*
X65617Y55512D02*
X66666D01*
X66141D01*
Y58661D01*
X65617Y58136D01*
D12*
X68898Y68898D02*
X70965D01*
X68898D02*
Y70965D01*
Y86516D02*
Y88583D01*
X70965D01*
X86516D02*
X88583D01*
Y86516D02*
Y88583D01*
X86516Y68898D02*
X88583D01*
Y70965D01*
D13*
X58465Y89961D02*
X60039D01*
X58465Y87205D02*
X60039D01*
X59842Y99410D02*
X61417D01*
X59842Y96653D02*
X61417D01*
X80610Y52641D02*
Y60745D01*
X73721Y52641D02*
Y60745D01*
X89000Y51157D02*
Y62229D01*
X81866Y51157D02*
Y62229D01*
X53556Y81681D02*
Y91548D01*
X46444Y81681D02*
Y91548D01*
X97638Y87205D02*
X99213D01*
X97638Y89961D02*
X99213D01*
X97638Y81299D02*
X99213D01*
X97638Y84055D02*
X99213D01*
X104701Y65330D02*
Y76402D01*
X111835Y65330D02*
Y76402D01*
X104701Y81078D02*
Y92150D01*
X111835Y81078D02*
Y92150D01*
X96457Y96653D02*
X98032D01*
X96457Y99410D02*
X98032D01*
X84252Y96653D02*
X85827D01*
X84252Y99410D02*
X85827D01*
X72047Y96653D02*
X73622D01*
X72047Y99410D02*
X73622D01*
X67716Y52547D02*
Y60839D01*
X74803Y52547D02*
Y60839D01*
X126772Y47638D02*
Y49213D01*
X124016Y47638D02*
Y49213D01*
X119882Y47638D02*
Y49213D01*
X117126Y47638D02*
Y49213D01*
X121929Y1929D02*
Y21929D01*
X111929D02*
X121929D01*
X111929Y1929D02*
Y21929D01*
Y1929D02*
X121929D01*
X132953D02*
Y21929D01*
X122953D02*
X132953D01*
X122953Y1929D02*
Y21929D01*
Y1929D02*
X132953D01*
X97362Y31929D02*
X107362D01*
Y1929D02*
Y31929D01*
X97362Y1929D02*
X107362D01*
X97362D02*
Y31929D01*
X86339D02*
X96339D01*
Y1929D02*
Y31929D01*
X86339Y1929D02*
X96339D01*
X86339D02*
Y31929D01*
X71772D02*
X81772D01*
Y1929D02*
Y31929D01*
X71772Y1929D02*
X81772D01*
X71772D02*
Y31929D01*
X60748D02*
X70748D01*
Y1929D02*
Y31929D01*
X60748Y1929D02*
X70748D01*
X60748D02*
Y31929D01*
X46575D02*
X56575D01*
Y1929D02*
Y31929D01*
X46575Y1929D02*
X56575D01*
X46575D02*
Y31929D01*
X35551D02*
X45551D01*
Y1929D02*
Y31929D01*
X35551Y1929D02*
X45551D01*
X35551D02*
Y31929D01*
X24528D02*
X34528D01*
Y1929D02*
Y31929D01*
X24528Y1929D02*
X34528D01*
X24528D02*
Y31929D01*
X145394Y63740D02*
X155394D01*
X145394D02*
Y93740D01*
X155394D01*
Y63740D02*
Y93740D01*
X155394Y36968D02*
Y56968D01*
X145394D02*
X155394D01*
X145394Y36968D02*
Y56968D01*
Y36968D02*
X155394D01*
Y100354D02*
Y120354D01*
X145394D02*
X155394D01*
X145394Y100354D02*
Y120354D01*
Y100354D02*
X155394D01*
X787Y59055D02*
X29724D01*
X32480D02*
X36220D01*
Y98425D01*
X787Y59055D02*
Y98425D01*
X9252D01*
X12009D02*
X36220D01*
X8268Y100788D02*
X12992D01*
X8268D02*
X9251Y98425D01*
X12009D02*
X12992Y100788D01*
X32480Y59055D02*
X33464Y56693D01*
X28739D02*
X33464D01*
X28739D02*
X29723Y59055D01*
X82677Y127756D02*
Y156693D01*
Y121260D02*
Y125000D01*
Y121260D02*
X122047D01*
X82677Y156693D02*
X122047D01*
Y148228D02*
Y156693D01*
Y121260D02*
Y145472D01*
X124410Y144488D02*
Y149213D01*
X122047Y148229D02*
X124410Y149213D01*
X122047Y145472D02*
X124410Y144488D01*
X80315Y124017D02*
X82677Y125000D01*
X80315Y124017D02*
Y128741D01*
X82677Y127758D01*
X35432Y127756D02*
Y156693D01*
Y121260D02*
Y125000D01*
Y121260D02*
X74802D01*
X35432Y156693D02*
X74802D01*
Y148228D02*
Y156693D01*
Y121260D02*
Y145472D01*
X77165Y144488D02*
Y149213D01*
X74802Y148229D02*
X77165Y149213D01*
X74802Y145472D02*
X77165Y144488D01*
X33070Y124016D02*
X35432Y125000D01*
X33070Y124016D02*
Y128741D01*
X35432Y127758D01*
X46504Y64665D02*
Y67618D01*
X62157Y64665D02*
Y67618D01*
M02*
