G04*
G04 #@! TF.GenerationSoftware,Altium Limited,Altium Designer,21.7.2 (23)*
G04*
G04 Layer_Color=8388736*
%FSLAX25Y25*%
%MOIN*%
G70*
G04*
G04 #@! TF.SameCoordinates,4C6A6D40-5D94-4475-8A21-F7F3A9D7BEC8*
G04*
G04*
G04 #@! TF.FilePolarity,Negative*
G04*
G01*
G75*
%ADD14R,0.01981X0.04068*%
%ADD15R,0.04068X0.01981*%
%ADD16R,0.13202X0.13202*%
%ADD17R,0.03556X0.04343*%
%ADD18R,0.03379X0.03174*%
%ADD19R,0.03985X0.05241*%
%ADD20R,0.03961X0.04351*%
%ADD21R,0.03568X0.03563*%
%ADD22R,0.04343X0.03556*%
%ADD23C,0.04039*%
%ADD24C,0.06706*%
%ADD25R,0.06706X0.06706*%
%ADD26C,0.08477*%
%ADD27R,0.08477X0.08477*%
%ADD28R,0.08477X0.08477*%
%ADD29C,0.20485*%
%ADD30C,0.02375*%
%ADD31C,0.03556*%
G36*
X61988Y59685D02*
X59823Y57480D01*
X48839D01*
X46673Y59685D01*
Y63189D01*
X49724D01*
X52067Y60905D01*
X56595D01*
X58937Y63189D01*
X61988D01*
Y59685D01*
D02*
G37*
G36*
Y72598D02*
Y69095D01*
X58937D01*
X56595Y71378D01*
X52067D01*
X49724Y69095D01*
X46673D01*
Y72598D01*
X48839Y74803D01*
X59823D01*
X61988Y72598D01*
D02*
G37*
D14*
X72835Y69055D02*
D03*
X74803D02*
D03*
X76772D02*
D03*
X78740D02*
D03*
X80709D02*
D03*
X82677D02*
D03*
X84646D02*
D03*
Y88425D02*
D03*
X82677D02*
D03*
X80709D02*
D03*
X78740D02*
D03*
X76772D02*
D03*
X74803D02*
D03*
X72835D02*
D03*
D15*
X88425Y72835D02*
D03*
Y74803D02*
D03*
Y76772D02*
D03*
Y78740D02*
D03*
Y80709D02*
D03*
Y82677D02*
D03*
Y84646D02*
D03*
X69055D02*
D03*
Y82677D02*
D03*
Y80709D02*
D03*
Y78740D02*
D03*
Y76772D02*
D03*
Y74803D02*
D03*
Y72835D02*
D03*
D16*
X78740Y78740D02*
D03*
D17*
X56299Y88583D02*
D03*
X62205D02*
D03*
X57677Y98032D02*
D03*
X63583D02*
D03*
X101378Y88583D02*
D03*
X95473D02*
D03*
X101378Y82677D02*
D03*
X95473D02*
D03*
X100197Y98032D02*
D03*
X94291D02*
D03*
X87992D02*
D03*
X82087D02*
D03*
X75787D02*
D03*
X69882D02*
D03*
D18*
X77165Y54228D02*
D03*
Y59158D02*
D03*
D19*
X85433Y53777D02*
D03*
Y59608D02*
D03*
X108268Y73782D02*
D03*
Y67951D02*
D03*
Y89530D02*
D03*
Y83699D02*
D03*
D20*
X50000Y83856D02*
D03*
Y89372D02*
D03*
D21*
X71260Y59057D02*
D03*
Y54329D02*
D03*
D22*
X125394Y51378D02*
D03*
Y45472D02*
D03*
X118504Y51378D02*
D03*
Y45472D02*
D03*
D23*
X58956Y59799D02*
D03*
Y72484D02*
D03*
D24*
X116929Y6929D02*
D03*
X127953D02*
D03*
X102362D02*
D03*
Y16929D02*
D03*
X91339Y6929D02*
D03*
Y16929D02*
D03*
X76772Y6929D02*
D03*
Y16929D02*
D03*
X65748Y6929D02*
D03*
Y16929D02*
D03*
X51575Y6929D02*
D03*
Y16929D02*
D03*
X40551Y6929D02*
D03*
Y16929D02*
D03*
X29528Y6929D02*
D03*
Y16929D02*
D03*
X150394Y88740D02*
D03*
Y78740D02*
D03*
X150394Y41969D02*
D03*
Y105354D02*
D03*
D25*
X116929Y16929D02*
D03*
X127953D02*
D03*
X102362Y26929D02*
D03*
X91339D02*
D03*
X76772D02*
D03*
X65748D02*
D03*
X51575D02*
D03*
X40551D02*
D03*
X29528D02*
D03*
X150394Y68740D02*
D03*
X150394Y51968D02*
D03*
Y115354D02*
D03*
D26*
X16535Y68899D02*
D03*
X92521Y140945D02*
D03*
X45276Y140945D02*
D03*
D27*
X16535Y88584D02*
D03*
D28*
X112206Y140945D02*
D03*
X64961Y140945D02*
D03*
D29*
X11811Y11811D02*
D03*
X145669Y145669D02*
D03*
X11811D02*
D03*
X145669Y11811D02*
D03*
D30*
X136221Y112599D02*
D03*
Y65354D02*
D03*
X124409Y136221D02*
D03*
X112599Y112599D02*
D03*
X100787Y136221D02*
D03*
X88976Y112599D02*
D03*
X65354D02*
D03*
X53543Y136221D02*
D03*
X41732Y112599D02*
D03*
X29921Y136221D02*
D03*
X18110Y112599D02*
D03*
X29921Y41732D02*
D03*
X68701Y90535D02*
D03*
X70472Y88583D02*
D03*
X83465Y91732D02*
D03*
X80709D02*
D03*
X74803Y92913D02*
D03*
X63976Y92716D02*
D03*
X58858Y77559D02*
D03*
X88779Y59449D02*
D03*
X118701Y41339D02*
D03*
X110827Y57480D02*
D03*
X108465Y53937D02*
D03*
X114370Y48228D02*
D03*
X118307Y56102D02*
D03*
X88189Y104331D02*
D03*
X63779Y103150D02*
D03*
X51181Y94488D02*
D03*
X102362Y74410D02*
D03*
X112205Y68110D02*
D03*
X74803Y105512D02*
D03*
X112598Y83858D02*
D03*
X66929Y101575D02*
D03*
D31*
X74410Y74410D02*
D03*
Y83071D02*
D03*
X78740Y78740D02*
D03*
X83071Y74410D02*
D03*
Y83071D02*
D03*
M02*
