G04*
G04 #@! TF.GenerationSoftware,Altium Limited,Altium Designer,21.7.2 (23)*
G04*
G04 Layer_Physical_Order=1*
G04 Layer_Color=255*
%FSLAX25Y25*%
%MOIN*%
G70*
G04*
G04 #@! TF.SameCoordinates,4C6A6D40-5D94-4475-8A21-F7F3A9D7BEC8*
G04*
G04*
G04 #@! TF.FilePolarity,Positive*
G04*
G01*
G75*
%ADD11C,0.01000*%
%ADD13C,0.00787*%
%ADD18R,0.03379X0.03174*%
%ADD19R,0.03985X0.05241*%
%ADD20R,0.03961X0.04351*%
%ADD21R,0.03568X0.03563*%
%ADD23C,0.04039*%
%ADD32R,0.01181X0.03268*%
%ADD33R,0.03268X0.01181*%
%ADD34R,0.12402X0.12402*%
%ADD35R,0.02756X0.03543*%
%ADD36R,0.03543X0.02756*%
%ADD37C,0.01181*%
%ADD38C,0.05906*%
%ADD39R,0.05906X0.05906*%
%ADD40C,0.07677*%
%ADD41R,0.07677X0.07677*%
%ADD42R,0.07677X0.07677*%
%ADD43C,0.19685*%
%ADD44C,0.01575*%
%ADD45C,0.02756*%
G36*
X157480Y0D02*
X0D01*
Y157480D01*
X157480D01*
Y0D01*
D02*
G37*
%LPC*%
G36*
X117044Y145783D02*
X112706D01*
Y141445D01*
X117044D01*
Y145783D01*
D02*
G37*
G36*
X111706D02*
X107367D01*
Y141445D01*
X111706D01*
Y145783D01*
D02*
G37*
G36*
X69799Y145783D02*
X65461D01*
Y141445D01*
X69799D01*
Y145783D01*
D02*
G37*
G36*
X64461D02*
X60122D01*
Y141445D01*
X64461D01*
Y145783D01*
D02*
G37*
G36*
X124909Y137943D02*
Y136721D01*
X126132D01*
X126093Y136918D01*
X125698Y137509D01*
X125107Y137904D01*
X124909Y137943D01*
D02*
G37*
G36*
X123909D02*
X123712Y137904D01*
X123121Y137509D01*
X122726Y136918D01*
X122687Y136721D01*
X123909D01*
Y137943D01*
D02*
G37*
G36*
X101287D02*
Y136721D01*
X102510D01*
X102471Y136918D01*
X102076Y137509D01*
X101485Y137904D01*
X101287Y137943D01*
D02*
G37*
G36*
X100287D02*
X100090Y137904D01*
X99499Y137509D01*
X99104Y136918D01*
X99064Y136721D01*
X100287D01*
Y137943D01*
D02*
G37*
G36*
X54043D02*
Y136721D01*
X55266D01*
X55227Y136918D01*
X54832Y137509D01*
X54241Y137904D01*
X54043Y137943D01*
D02*
G37*
G36*
X53043D02*
X52846Y137904D01*
X52255Y137509D01*
X51860Y136918D01*
X51820Y136721D01*
X53043D01*
Y137943D01*
D02*
G37*
G36*
X30421D02*
Y136721D01*
X31644D01*
X31605Y136918D01*
X31210Y137509D01*
X30619Y137904D01*
X30421Y137943D01*
D02*
G37*
G36*
X29421D02*
X29224Y137904D01*
X28633Y137509D01*
X28238Y136918D01*
X28198Y136721D01*
X29421D01*
Y137943D01*
D02*
G37*
G36*
X92521Y145412D02*
X91364Y145260D01*
X90287Y144814D01*
X89362Y144104D01*
X88652Y143179D01*
X88205Y142101D01*
X88053Y140945D01*
X88205Y139789D01*
X88652Y138711D01*
X89362Y137786D01*
X90287Y137076D01*
X91364Y136630D01*
X92521Y136478D01*
X93677Y136630D01*
X94754Y137076D01*
X95679Y137786D01*
X96390Y138711D01*
X96836Y139789D01*
X96988Y140945D01*
X96836Y142101D01*
X96390Y143179D01*
X95679Y144104D01*
X94754Y144814D01*
X93677Y145260D01*
X92521Y145412D01*
D02*
G37*
G36*
X45276Y145412D02*
X44119Y145260D01*
X43042Y144814D01*
X42117Y144104D01*
X41407Y143179D01*
X40960Y142101D01*
X40808Y140945D01*
X40960Y139789D01*
X41407Y138711D01*
X42117Y137786D01*
X43042Y137076D01*
X44119Y136630D01*
X45276Y136477D01*
X46432Y136630D01*
X47509Y137076D01*
X48434Y137786D01*
X49145Y138711D01*
X49591Y139789D01*
X49743Y140945D01*
X49591Y142101D01*
X49145Y143179D01*
X48434Y144104D01*
X47509Y144814D01*
X46432Y145260D01*
X45276Y145412D01*
D02*
G37*
G36*
X117044Y140445D02*
X112706D01*
Y136106D01*
X117044D01*
Y140445D01*
D02*
G37*
G36*
X111706D02*
X107367D01*
Y136106D01*
X111706D01*
Y140445D01*
D02*
G37*
G36*
X69799Y140445D02*
X65461D01*
Y136106D01*
X69799D01*
Y140445D01*
D02*
G37*
G36*
X64461D02*
X60122D01*
Y136106D01*
X64461D01*
Y140445D01*
D02*
G37*
G36*
X145669Y156135D02*
X144032Y156006D01*
X142435Y155622D01*
X140918Y154994D01*
X139518Y154136D01*
X138269Y153069D01*
X137203Y151821D01*
X136345Y150420D01*
X135716Y148903D01*
X135333Y147306D01*
X135204Y145669D01*
X135333Y144032D01*
X135716Y142435D01*
X136345Y140918D01*
X137203Y139518D01*
X138269Y138269D01*
X139518Y137203D01*
X140918Y136345D01*
X142435Y135716D01*
X144032Y135333D01*
X145669Y135204D01*
X147306Y135333D01*
X148903Y135716D01*
X150420Y136345D01*
X151821Y137203D01*
X153069Y138269D01*
X154136Y139518D01*
X154994Y140918D01*
X155622Y142435D01*
X156006Y144032D01*
X156135Y145669D01*
X156006Y147306D01*
X155622Y148903D01*
X154994Y150420D01*
X154136Y151821D01*
X153069Y153069D01*
X151821Y154136D01*
X150420Y154994D01*
X148903Y155622D01*
X147306Y156006D01*
X145669Y156135D01*
D02*
G37*
G36*
X11811D02*
X10174Y156006D01*
X8577Y155622D01*
X7060Y154994D01*
X5660Y154136D01*
X4411Y153069D01*
X3344Y151821D01*
X2486Y150420D01*
X1858Y148903D01*
X1474Y147306D01*
X1346Y145669D01*
X1474Y144032D01*
X1858Y142435D01*
X2486Y140918D01*
X3344Y139518D01*
X4411Y138269D01*
X5660Y137203D01*
X7060Y136345D01*
X8577Y135716D01*
X10174Y135333D01*
X11811Y135204D01*
X13448Y135333D01*
X15045Y135716D01*
X16562Y136345D01*
X17962Y137203D01*
X19211Y138269D01*
X20278Y139518D01*
X21136Y140918D01*
X21764Y142435D01*
X22148Y144032D01*
X22276Y145669D01*
X22148Y147306D01*
X21764Y148903D01*
X21136Y150420D01*
X20278Y151821D01*
X19211Y153069D01*
X17962Y154136D01*
X16562Y154994D01*
X15045Y155622D01*
X13448Y156006D01*
X11811Y156135D01*
D02*
G37*
G36*
X126132Y135721D02*
X124909D01*
Y134497D01*
X125107Y134537D01*
X125698Y134932D01*
X126093Y135523D01*
X126132Y135721D01*
D02*
G37*
G36*
X123909D02*
X122687D01*
X122726Y135523D01*
X123121Y134932D01*
X123712Y134537D01*
X123909Y134497D01*
Y135721D01*
D02*
G37*
G36*
X102510D02*
X101287D01*
Y134497D01*
X101485Y134537D01*
X102076Y134932D01*
X102471Y135523D01*
X102510Y135721D01*
D02*
G37*
G36*
X100287D02*
X99064D01*
X99104Y135523D01*
X99499Y134932D01*
X100090Y134537D01*
X100287Y134497D01*
Y135721D01*
D02*
G37*
G36*
X55266D02*
X54043D01*
Y134497D01*
X54241Y134537D01*
X54832Y134932D01*
X55227Y135523D01*
X55266Y135721D01*
D02*
G37*
G36*
X53043D02*
X51820D01*
X51860Y135523D01*
X52255Y134932D01*
X52846Y134537D01*
X53043Y134497D01*
Y135721D01*
D02*
G37*
G36*
X31644D02*
X30421D01*
Y134497D01*
X30619Y134537D01*
X31210Y134932D01*
X31605Y135523D01*
X31644Y135721D01*
D02*
G37*
G36*
X29421D02*
X28198D01*
X28238Y135523D01*
X28633Y134932D01*
X29224Y134537D01*
X29421Y134497D01*
Y135721D01*
D02*
G37*
G36*
X136721Y114321D02*
Y113099D01*
X137943D01*
X137904Y113296D01*
X137509Y113887D01*
X136918Y114282D01*
X136721Y114321D01*
D02*
G37*
G36*
X135721D02*
X135523Y114282D01*
X134932Y113887D01*
X134537Y113296D01*
X134497Y113099D01*
X135721D01*
Y114321D01*
D02*
G37*
G36*
X113099D02*
Y113099D01*
X114321D01*
X114282Y113296D01*
X113887Y113887D01*
X113296Y114282D01*
X113099Y114321D01*
D02*
G37*
G36*
X112099D02*
X111901Y114282D01*
X111310Y113887D01*
X110915Y113296D01*
X110875Y113099D01*
X112099D01*
Y114321D01*
D02*
G37*
G36*
X89476D02*
Y113099D01*
X90699D01*
X90660Y113296D01*
X90265Y113887D01*
X89674Y114282D01*
X89476Y114321D01*
D02*
G37*
G36*
X88476D02*
X88279Y114282D01*
X87688Y113887D01*
X87293Y113296D01*
X87253Y113099D01*
X88476D01*
Y114321D01*
D02*
G37*
G36*
X65854D02*
Y113099D01*
X67077D01*
X67038Y113296D01*
X66643Y113887D01*
X66052Y114282D01*
X65854Y114321D01*
D02*
G37*
G36*
X64854D02*
X64657Y114282D01*
X64066Y113887D01*
X63671Y113296D01*
X63631Y113099D01*
X64854D01*
Y114321D01*
D02*
G37*
G36*
X42232D02*
Y113099D01*
X43455D01*
X43416Y113296D01*
X43021Y113887D01*
X42430Y114282D01*
X42232Y114321D01*
D02*
G37*
G36*
X41232D02*
X41035Y114282D01*
X40444Y113887D01*
X40049Y113296D01*
X40009Y113099D01*
X41232D01*
Y114321D01*
D02*
G37*
G36*
X18610D02*
Y113099D01*
X19833D01*
X19794Y113296D01*
X19399Y113887D01*
X18808Y114282D01*
X18610Y114321D01*
D02*
G37*
G36*
X17610D02*
X17413Y114282D01*
X16822Y113887D01*
X16427Y113296D01*
X16387Y113099D01*
X17610D01*
Y114321D01*
D02*
G37*
G36*
X153937Y118898D02*
X146850D01*
Y111811D01*
X153937D01*
Y118898D01*
D02*
G37*
G36*
X137943Y112099D02*
X136721D01*
Y110875D01*
X136918Y110915D01*
X137509Y111310D01*
X137904Y111901D01*
X137943Y112099D01*
D02*
G37*
G36*
X135721D02*
X134497D01*
X134537Y111901D01*
X134932Y111310D01*
X135523Y110915D01*
X135721Y110875D01*
Y112099D01*
D02*
G37*
G36*
X114321D02*
X113099D01*
Y110875D01*
X113296Y110915D01*
X113887Y111310D01*
X114282Y111901D01*
X114321Y112099D01*
D02*
G37*
G36*
X112099D02*
X110875D01*
X110915Y111901D01*
X111310Y111310D01*
X111901Y110915D01*
X112099Y110875D01*
Y112099D01*
D02*
G37*
G36*
X90699D02*
X89476D01*
Y110875D01*
X89674Y110915D01*
X90265Y111310D01*
X90660Y111901D01*
X90699Y112099D01*
D02*
G37*
G36*
X88476D02*
X87253D01*
X87293Y111901D01*
X87688Y111310D01*
X88279Y110915D01*
X88476Y110875D01*
Y112099D01*
D02*
G37*
G36*
X67077D02*
X65854D01*
Y110875D01*
X66052Y110915D01*
X66643Y111310D01*
X67038Y111901D01*
X67077Y112099D01*
D02*
G37*
G36*
X64854D02*
X63631D01*
X63671Y111901D01*
X64066Y111310D01*
X64657Y110915D01*
X64854Y110875D01*
Y112099D01*
D02*
G37*
G36*
X43455D02*
X42232D01*
Y110875D01*
X42430Y110915D01*
X43021Y111310D01*
X43416Y111901D01*
X43455Y112099D01*
D02*
G37*
G36*
X41232D02*
X40009D01*
X40049Y111901D01*
X40444Y111310D01*
X41035Y110915D01*
X41232Y110875D01*
Y112099D01*
D02*
G37*
G36*
X19833D02*
X18610D01*
Y110875D01*
X18808Y110915D01*
X19399Y111310D01*
X19794Y111901D01*
X19833Y112099D01*
D02*
G37*
G36*
X17610D02*
X16387D01*
X16427Y111901D01*
X16822Y111310D01*
X17413Y110915D01*
X17610Y110875D01*
Y112099D01*
D02*
G37*
G36*
X138583Y107805D02*
X138583Y107805D01*
X76070D01*
X76070Y107805D01*
X75644Y107720D01*
X75284Y107479D01*
X75284Y107479D01*
X74701Y106896D01*
X74265Y106810D01*
X73810Y106505D01*
X73505Y106050D01*
X73398Y105512D01*
X73505Y104974D01*
X73810Y104518D01*
X74265Y104214D01*
X74803Y104107D01*
X75341Y104214D01*
X75797Y104518D01*
X76101Y104974D01*
X76145Y105196D01*
X76531Y105581D01*
X86344D01*
X86580Y105140D01*
X86505Y105028D01*
X86466Y104831D01*
X89912D01*
X89873Y105028D01*
X89798Y105140D01*
X90034Y105581D01*
X138122D01*
X150959Y92744D01*
X150726Y92270D01*
X150394Y92314D01*
X149469Y92192D01*
X148607Y91835D01*
X147867Y91267D01*
X147299Y90527D01*
X146974Y89744D01*
X119550D01*
X113505Y95788D01*
X113179Y96006D01*
X112795Y96082D01*
X102575D01*
Y97531D01*
X100197D01*
X97819D01*
Y96082D01*
X96260D01*
Y100394D01*
X92323D01*
Y99236D01*
X89961D01*
Y100394D01*
X87727D01*
X84907Y103214D01*
X84516Y103475D01*
X84055Y103567D01*
X84055Y103566D01*
X67818D01*
X67357Y103475D01*
X66966Y103214D01*
X66684Y102931D01*
X66391Y102873D01*
X66005Y102615D01*
X65914Y102650D01*
X64280D01*
Y101427D01*
X64477Y101466D01*
X65068Y101861D01*
X65073Y101868D01*
X65544Y101672D01*
X65524Y101575D01*
X65631Y101037D01*
X65687Y100954D01*
X65693Y100806D01*
X65321Y100398D01*
X65247Y100394D01*
X65097Y100394D01*
X61614D01*
Y97482D01*
X60146Y96014D01*
X59646Y96221D01*
Y100394D01*
X55709D01*
Y99236D01*
X50788D01*
X50787Y99236D01*
X50327Y99144D01*
X49936Y98883D01*
X49936Y98883D01*
X41668Y90615D01*
X41407Y90225D01*
X41315Y89764D01*
X41315Y89764D01*
Y59055D01*
X41315Y59055D01*
X41407Y58594D01*
X41668Y58204D01*
X45211Y54660D01*
X45211Y54660D01*
X45602Y54399D01*
X46063Y54308D01*
X46063Y54308D01*
X64961D01*
X64961Y54308D01*
X65421Y54399D01*
X65812Y54660D01*
X67976Y56824D01*
X68476Y56617D01*
Y54829D01*
X71260D01*
Y54329D01*
X71760D01*
Y51547D01*
X72309D01*
X72500Y51085D01*
X62577Y41161D01*
X34646D01*
X34262Y41085D01*
X33936Y40867D01*
X28818Y35749D01*
X28600Y35423D01*
X28524Y35039D01*
Y30472D01*
X25984D01*
Y23386D01*
X33071D01*
Y30472D01*
X30531D01*
Y34624D01*
X35061Y39154D01*
X37082D01*
X37273Y38692D01*
X34330Y35749D01*
X34112Y35423D01*
X34036Y35039D01*
Y22857D01*
X31236Y20057D01*
X30453Y20381D01*
X29528Y20503D01*
X28603Y20381D01*
X27741Y20024D01*
X27000Y19456D01*
X26432Y18716D01*
X26076Y17854D01*
X25954Y16929D01*
X26076Y16004D01*
X26432Y15142D01*
X27000Y14402D01*
X27741Y13834D01*
X28603Y13477D01*
X29528Y13355D01*
X30453Y13477D01*
X31315Y13834D01*
X32055Y14402D01*
X32623Y15142D01*
X32980Y16004D01*
X33101Y16929D01*
X32980Y17854D01*
X32655Y18638D01*
X35749Y21731D01*
X35967Y22057D01*
X36043Y22441D01*
Y34624D01*
X39195Y37776D01*
X47121D01*
X47312Y37314D01*
X45353Y35355D01*
X45136Y35030D01*
X45059Y34646D01*
Y22857D01*
X42260Y20057D01*
X41476Y20381D01*
X40551Y20503D01*
X39626Y20381D01*
X38764Y20024D01*
X38024Y19456D01*
X37456Y18716D01*
X37099Y17854D01*
X36977Y16929D01*
X37099Y16004D01*
X37456Y15142D01*
X38024Y14402D01*
X38764Y13834D01*
X39626Y13477D01*
X40551Y13355D01*
X41476Y13477D01*
X42338Y13834D01*
X43078Y14402D01*
X43646Y15142D01*
X44003Y16004D01*
X44125Y16929D01*
X44003Y17854D01*
X43679Y18638D01*
X46773Y21731D01*
X46990Y22057D01*
X47067Y22441D01*
Y34230D01*
X49235Y36398D01*
X58341D01*
X58533Y35936D01*
X56377Y33781D01*
X56160Y33455D01*
X56083Y33071D01*
Y22857D01*
X53283Y20057D01*
X52500Y20381D01*
X51575Y20503D01*
X50650Y20381D01*
X49788Y20024D01*
X49048Y19456D01*
X48480Y18716D01*
X48123Y17854D01*
X48001Y16929D01*
X48123Y16004D01*
X48480Y15142D01*
X49048Y14402D01*
X49788Y13834D01*
X50650Y13477D01*
X51575Y13355D01*
X52500Y13477D01*
X53362Y13834D01*
X54102Y14402D01*
X54670Y15142D01*
X55027Y16004D01*
X55149Y16929D01*
X55027Y17854D01*
X54702Y18638D01*
X57796Y21731D01*
X58014Y22057D01*
X58090Y22441D01*
Y32655D01*
X60455Y35020D01*
X71530D01*
X71722Y34558D01*
X70550Y33387D01*
X70333Y33061D01*
X70256Y32677D01*
Y22857D01*
X67456Y20057D01*
X66673Y20381D01*
X65748Y20503D01*
X64823Y20381D01*
X63961Y20024D01*
X63221Y19456D01*
X62653Y18716D01*
X62296Y17854D01*
X62174Y16929D01*
X62296Y16004D01*
X62653Y15142D01*
X63221Y14402D01*
X63961Y13834D01*
X64823Y13477D01*
X65748Y13355D01*
X66673Y13477D01*
X67535Y13834D01*
X68275Y14402D01*
X68843Y15142D01*
X69200Y16004D01*
X69322Y16929D01*
X69200Y17854D01*
X68876Y18638D01*
X71969Y21731D01*
X72187Y22057D01*
X72263Y22441D01*
Y32261D01*
X73644Y33642D01*
X78347D01*
X78730Y33718D01*
X79056Y33936D01*
X80818Y35698D01*
X81280Y35507D01*
Y22857D01*
X78480Y20057D01*
X77697Y20381D01*
X76772Y20503D01*
X75847Y20381D01*
X74985Y20024D01*
X74244Y19456D01*
X73677Y18716D01*
X73320Y17854D01*
X73198Y16929D01*
X73320Y16004D01*
X73677Y15142D01*
X74244Y14402D01*
X74985Y13834D01*
X75847Y13477D01*
X76772Y13355D01*
X77697Y13477D01*
X78559Y13834D01*
X79299Y14402D01*
X79867Y15142D01*
X80224Y16004D01*
X80345Y16929D01*
X80224Y17854D01*
X79899Y18638D01*
X82993Y21731D01*
X83211Y22057D01*
X83287Y22441D01*
Y36198D01*
X96773Y49684D01*
X96990Y50010D01*
X97066Y50394D01*
Y62778D01*
X96990Y63162D01*
X96773Y63487D01*
X89429Y70831D01*
Y71653D01*
X90650D01*
Y72149D01*
X91111Y72340D01*
X107260Y56191D01*
Y54615D01*
X107167Y54475D01*
X107060Y53937D01*
X107167Y53399D01*
X107471Y52944D01*
X107927Y52639D01*
X108465Y52532D01*
X108750Y52589D01*
X108996Y52128D01*
X96141Y39272D01*
X95923Y38947D01*
X95847Y38563D01*
Y22857D01*
X93047Y20057D01*
X92264Y20381D01*
X91339Y20503D01*
X90414Y20381D01*
X89552Y20024D01*
X88811Y19456D01*
X88244Y18716D01*
X87887Y17854D01*
X87765Y16929D01*
X87887Y16004D01*
X88244Y15142D01*
X88811Y14402D01*
X89552Y13834D01*
X90414Y13477D01*
X91339Y13355D01*
X92264Y13477D01*
X93125Y13834D01*
X93866Y14402D01*
X94434Y15142D01*
X94791Y16004D01*
X94912Y16929D01*
X94791Y17854D01*
X94466Y18638D01*
X97560Y21731D01*
X97777Y22057D01*
X97854Y22441D01*
Y38147D01*
X106409Y46702D01*
X106870Y46510D01*
Y22857D01*
X104071Y20057D01*
X103287Y20381D01*
X102362Y20503D01*
X101437Y20381D01*
X100575Y20024D01*
X99835Y19456D01*
X99267Y18716D01*
X98910Y17854D01*
X98788Y16929D01*
X98910Y16004D01*
X99267Y15142D01*
X99835Y14402D01*
X100575Y13834D01*
X101437Y13477D01*
X102362Y13355D01*
X103287Y13477D01*
X104149Y13834D01*
X104889Y14402D01*
X105457Y15142D01*
X105814Y16004D01*
X105936Y16929D01*
X105814Y17854D01*
X105490Y18638D01*
X108584Y21731D01*
X108801Y22057D01*
X108878Y22441D01*
Y47222D01*
X116261Y54605D01*
X116478Y54931D01*
X116550Y55293D01*
X116644Y55329D01*
X117055Y55394D01*
X117300Y55100D01*
Y53347D01*
X116142D01*
Y49433D01*
X115048D01*
X114908Y49526D01*
X114370Y49633D01*
X113832Y49526D01*
X113377Y49222D01*
X113072Y48766D01*
X112965Y48228D01*
X113072Y47691D01*
X113377Y47235D01*
X113832Y46930D01*
X114370Y46823D01*
X114908Y46930D01*
X115048Y47024D01*
X116142D01*
Y43504D01*
X117300D01*
Y41642D01*
X117300Y41642D01*
X117328Y41500D01*
X117296Y41339D01*
X117403Y40801D01*
X117707Y40345D01*
X118163Y40041D01*
X118701Y39934D01*
X119238Y40041D01*
X119694Y40345D01*
X119999Y40801D01*
X120106Y41339D01*
X119999Y41876D01*
X119708Y42311D01*
Y43504D01*
X120866D01*
Y47024D01*
X121745D01*
X123031Y45738D01*
Y43504D01*
X124189D01*
Y25892D01*
X118769Y20472D01*
X113386D01*
Y13386D01*
X120472D01*
Y18769D01*
X126245Y24542D01*
X126245Y24542D01*
X126506Y24933D01*
X126598Y25394D01*
X126598Y25394D01*
Y43504D01*
X127756D01*
Y46999D01*
X128256Y47206D01*
X130292Y45171D01*
Y20971D01*
X129793Y20472D01*
X124409D01*
Y13386D01*
X131496D01*
Y18769D01*
X132348Y19621D01*
X132348Y19621D01*
X132609Y20012D01*
X132700Y20472D01*
X132700Y20472D01*
Y45669D01*
X132700Y45669D01*
X132609Y46130D01*
X132348Y46521D01*
X127756Y51113D01*
Y53347D01*
X123031D01*
Y52582D01*
X120866D01*
Y53347D01*
X119708D01*
Y55799D01*
X119680Y55941D01*
X119712Y56102D01*
X119605Y56640D01*
X119300Y57096D01*
X118845Y57400D01*
X118307Y57507D01*
X117769Y57400D01*
X117314Y57096D01*
X117055Y56708D01*
X116779Y56717D01*
X116555Y56792D01*
Y89247D01*
X117017Y89438D01*
X118424Y88031D01*
X118750Y87813D01*
X119134Y87737D01*
X146974D01*
X147299Y86953D01*
X147867Y86213D01*
X148607Y85645D01*
X149469Y85288D01*
X150394Y85166D01*
X151319Y85288D01*
X152181Y85645D01*
X152921Y86213D01*
X153112Y86463D01*
X153612Y86293D01*
Y83531D01*
X151994Y81913D01*
X151319Y82192D01*
X150394Y82314D01*
X149469Y82192D01*
X148607Y81835D01*
X147867Y81267D01*
X147299Y80527D01*
X146942Y79665D01*
X146820Y78740D01*
X146942Y77815D01*
X147299Y76953D01*
X147867Y76213D01*
X148607Y75645D01*
X149469Y75288D01*
X150394Y75166D01*
X151319Y75288D01*
X152181Y75645D01*
X152921Y76213D01*
X153489Y76953D01*
X153846Y77815D01*
X153968Y78740D01*
X153846Y79665D01*
X153566Y80340D01*
X155511Y82285D01*
X155511Y82285D01*
X155752Y82645D01*
X155836Y83071D01*
Y90551D01*
X155836Y90551D01*
X155752Y90977D01*
X155511Y91337D01*
X139369Y107479D01*
X139008Y107720D01*
X138583Y107805D01*
D02*
G37*
G36*
X150894Y109275D02*
Y105854D01*
X154315D01*
X154245Y106386D01*
X153846Y107348D01*
X153213Y108174D01*
X152387Y108807D01*
X151426Y109205D01*
X150894Y109275D01*
D02*
G37*
G36*
X149894D02*
X149362Y109205D01*
X148400Y108807D01*
X147575Y108174D01*
X146941Y107348D01*
X146543Y106386D01*
X146473Y105854D01*
X149894D01*
Y109275D01*
D02*
G37*
G36*
X64280Y104873D02*
Y103650D01*
X65503D01*
X65463Y103847D01*
X65068Y104438D01*
X64477Y104833D01*
X64280Y104873D01*
D02*
G37*
G36*
X63279D02*
X63082Y104833D01*
X62491Y104438D01*
X62096Y103847D01*
X62057Y103650D01*
X63279D01*
Y104873D01*
D02*
G37*
G36*
X89912Y103831D02*
X88689D01*
Y102608D01*
X88886Y102647D01*
X89478Y103042D01*
X89873Y103633D01*
X89912Y103831D01*
D02*
G37*
G36*
X87689D02*
X86466D01*
X86505Y103633D01*
X86900Y103042D01*
X87492Y102647D01*
X87689Y102608D01*
Y103831D01*
D02*
G37*
G36*
X154315Y104854D02*
X150894D01*
Y101433D01*
X151426Y101503D01*
X152387Y101902D01*
X153213Y102535D01*
X153846Y103361D01*
X154245Y104323D01*
X154315Y104854D01*
D02*
G37*
G36*
X149894D02*
X146473D01*
X146543Y104323D01*
X146941Y103361D01*
X147575Y102535D01*
X148400Y101902D01*
X149362Y101503D01*
X149894Y101433D01*
Y104854D01*
D02*
G37*
G36*
X63279Y102650D02*
X62057D01*
X62096Y102452D01*
X62491Y101861D01*
X63082Y101466D01*
X63279Y101427D01*
Y102650D01*
D02*
G37*
G36*
X102575Y100803D02*
X100697D01*
Y98532D01*
X102575D01*
Y100803D01*
D02*
G37*
G36*
X99697D02*
X97819D01*
Y98532D01*
X99697D01*
Y100803D01*
D02*
G37*
G36*
X20965Y93013D02*
X12106D01*
Y84154D01*
X20965D01*
Y93013D01*
D02*
G37*
G36*
X17035Y73713D02*
Y69399D01*
X21350D01*
X21249Y70162D01*
X20762Y71339D01*
X19986Y72350D01*
X18976Y73125D01*
X17798Y73613D01*
X17035Y73713D01*
D02*
G37*
G36*
X16035D02*
X15272Y73613D01*
X14095Y73125D01*
X13084Y72350D01*
X12309Y71339D01*
X11821Y70162D01*
X11721Y69399D01*
X16035D01*
Y73713D01*
D02*
G37*
G36*
X136721Y67077D02*
Y65854D01*
X137943D01*
X137904Y66052D01*
X137509Y66643D01*
X136918Y67038D01*
X136721Y67077D01*
D02*
G37*
G36*
X135721D02*
X135523Y67038D01*
X134932Y66643D01*
X134537Y66052D01*
X134497Y65854D01*
X135721D01*
Y67077D01*
D02*
G37*
G36*
X153937Y72284D02*
X146850D01*
Y65197D01*
X153937D01*
Y72284D01*
D02*
G37*
G36*
X21350Y68399D02*
X17035D01*
Y64084D01*
X17798Y64185D01*
X18976Y64672D01*
X19986Y65448D01*
X20762Y66458D01*
X21249Y67636D01*
X21350Y68399D01*
D02*
G37*
G36*
X16035D02*
X11721D01*
X11821Y67636D01*
X12309Y66458D01*
X13084Y65448D01*
X14095Y64672D01*
X15272Y64185D01*
X16035Y64084D01*
Y68399D01*
D02*
G37*
G36*
X137943Y64854D02*
X136721D01*
Y63631D01*
X136918Y63671D01*
X137509Y64066D01*
X137904Y64657D01*
X137943Y64854D01*
D02*
G37*
G36*
X135721D02*
X134497D01*
X134537Y64657D01*
X134932Y64066D01*
X135523Y63671D01*
X135721Y63631D01*
Y64854D01*
D02*
G37*
G36*
X70760Y53829D02*
X68476D01*
Y51547D01*
X70760D01*
Y53829D01*
D02*
G37*
G36*
X153937Y55512D02*
X146850D01*
Y48425D01*
X153937D01*
Y55512D01*
D02*
G37*
G36*
X150894Y45889D02*
Y42469D01*
X154315D01*
X154245Y43000D01*
X153846Y43962D01*
X153213Y44788D01*
X152387Y45421D01*
X151426Y45820D01*
X150894Y45889D01*
D02*
G37*
G36*
X149894D02*
X149362Y45820D01*
X148400Y45421D01*
X147575Y44788D01*
X146941Y43962D01*
X146543Y43000D01*
X146473Y42469D01*
X149894D01*
Y45889D01*
D02*
G37*
G36*
X30421Y43455D02*
Y42232D01*
X31644D01*
X31605Y42430D01*
X31210Y43021D01*
X30619Y43416D01*
X30421Y43455D01*
D02*
G37*
G36*
X29421D02*
X29224Y43416D01*
X28633Y43021D01*
X28238Y42430D01*
X28198Y42232D01*
X29421D01*
Y43455D01*
D02*
G37*
G36*
X31644Y41232D02*
X30421D01*
Y40009D01*
X30619Y40049D01*
X31210Y40444D01*
X31605Y41035D01*
X31644Y41232D01*
D02*
G37*
G36*
X29421D02*
X28198D01*
X28238Y41035D01*
X28633Y40444D01*
X29224Y40049D01*
X29421Y40009D01*
Y41232D01*
D02*
G37*
G36*
X154315Y41469D02*
X150894D01*
Y38048D01*
X151426Y38118D01*
X152387Y38516D01*
X153213Y39149D01*
X153846Y39975D01*
X154245Y40937D01*
X154315Y41469D01*
D02*
G37*
G36*
X149894D02*
X146473D01*
X146543Y40937D01*
X146941Y39975D01*
X147575Y39149D01*
X148400Y38516D01*
X149362Y38118D01*
X149894Y38048D01*
Y41469D01*
D02*
G37*
G36*
X105905Y30472D02*
X98819D01*
Y23386D01*
X105905D01*
Y30472D01*
D02*
G37*
G36*
X94882D02*
X87795D01*
Y23386D01*
X94882D01*
Y30472D01*
D02*
G37*
G36*
X80315D02*
X73228D01*
Y23386D01*
X80315D01*
Y30472D01*
D02*
G37*
G36*
X69291D02*
X62205D01*
Y23386D01*
X69291D01*
Y30472D01*
D02*
G37*
G36*
X55118D02*
X48031D01*
Y23386D01*
X55118D01*
Y30472D01*
D02*
G37*
G36*
X44094D02*
X37008D01*
Y23386D01*
X44094D01*
Y30472D01*
D02*
G37*
G36*
X128453Y10850D02*
Y7429D01*
X131874D01*
X131804Y7961D01*
X131405Y8923D01*
X130772Y9748D01*
X129946Y10382D01*
X128985Y10780D01*
X128453Y10850D01*
D02*
G37*
G36*
X91839D02*
Y7429D01*
X95260D01*
X95190Y7961D01*
X94791Y8923D01*
X94158Y9748D01*
X93332Y10382D01*
X92370Y10780D01*
X91839Y10850D01*
D02*
G37*
G36*
X127453D02*
X126921Y10780D01*
X125959Y10382D01*
X125134Y9748D01*
X124500Y8923D01*
X124102Y7961D01*
X124032Y7429D01*
X127453D01*
Y10850D01*
D02*
G37*
G36*
X90839D02*
X90307Y10780D01*
X89345Y10382D01*
X88519Y9748D01*
X87886Y8923D01*
X87488Y7961D01*
X87418Y7429D01*
X90839D01*
Y10850D01*
D02*
G37*
G36*
X66248D02*
Y7429D01*
X69669D01*
X69599Y7961D01*
X69201Y8923D01*
X68567Y9748D01*
X67742Y10382D01*
X66780Y10780D01*
X66248Y10850D01*
D02*
G37*
G36*
X52075D02*
Y7429D01*
X55496D01*
X55426Y7961D01*
X55028Y8923D01*
X54394Y9748D01*
X53568Y10382D01*
X52607Y10780D01*
X52075Y10850D01*
D02*
G37*
G36*
X41051D02*
Y7429D01*
X44472D01*
X44402Y7961D01*
X44004Y8923D01*
X43370Y9748D01*
X42545Y10382D01*
X41583Y10780D01*
X41051Y10850D01*
D02*
G37*
G36*
X30028D02*
Y7429D01*
X33449D01*
X33379Y7961D01*
X32980Y8923D01*
X32347Y9748D01*
X31521Y10382D01*
X30559Y10780D01*
X30028Y10850D01*
D02*
G37*
G36*
X102862D02*
Y7429D01*
X106283D01*
X106213Y7961D01*
X105815Y8923D01*
X105181Y9748D01*
X104356Y10382D01*
X103394Y10780D01*
X102862Y10850D01*
D02*
G37*
G36*
X101862D02*
X101330Y10780D01*
X100369Y10382D01*
X99543Y9748D01*
X98909Y8923D01*
X98511Y7961D01*
X98441Y7429D01*
X101862D01*
Y10850D01*
D02*
G37*
G36*
X65248D02*
X64716Y10780D01*
X63755Y10382D01*
X62929Y9748D01*
X62295Y8923D01*
X61897Y7961D01*
X61827Y7429D01*
X65248D01*
Y10850D01*
D02*
G37*
G36*
X51075D02*
X50543Y10780D01*
X49581Y10382D01*
X48756Y9748D01*
X48122Y8923D01*
X47724Y7961D01*
X47654Y7429D01*
X51075D01*
Y10850D01*
D02*
G37*
G36*
X40051D02*
X39519Y10780D01*
X38558Y10382D01*
X37732Y9748D01*
X37099Y8923D01*
X36700Y7961D01*
X36630Y7429D01*
X40051D01*
Y10850D01*
D02*
G37*
G36*
X29028D02*
X28496Y10780D01*
X27534Y10382D01*
X26708Y9748D01*
X26075Y8923D01*
X25677Y7961D01*
X25607Y7429D01*
X29028D01*
Y10850D01*
D02*
G37*
G36*
X117429D02*
Y7429D01*
X120850D01*
X120780Y7961D01*
X120382Y8923D01*
X119748Y9748D01*
X118923Y10382D01*
X117961Y10780D01*
X117429Y10850D01*
D02*
G37*
G36*
X77272D02*
Y7429D01*
X80693D01*
X80623Y7961D01*
X80224Y8923D01*
X79591Y9748D01*
X78765Y10382D01*
X77803Y10780D01*
X77272Y10850D01*
D02*
G37*
G36*
X116429D02*
X115897Y10780D01*
X114936Y10382D01*
X114110Y9748D01*
X113476Y8923D01*
X113078Y7961D01*
X113008Y7429D01*
X116429D01*
Y10850D01*
D02*
G37*
G36*
X76272D02*
X75740Y10780D01*
X74778Y10382D01*
X73953Y9748D01*
X73319Y8923D01*
X72921Y7961D01*
X72851Y7429D01*
X76272D01*
Y10850D01*
D02*
G37*
G36*
X131874Y6429D02*
X128453D01*
Y3008D01*
X128985Y3078D01*
X129946Y3476D01*
X130772Y4110D01*
X131405Y4936D01*
X131804Y5897D01*
X131874Y6429D01*
D02*
G37*
G36*
X95260D02*
X91839D01*
Y3008D01*
X92370Y3078D01*
X93332Y3476D01*
X94158Y4110D01*
X94791Y4936D01*
X95190Y5897D01*
X95260Y6429D01*
D02*
G37*
G36*
X116429Y6429D02*
X113008D01*
X113078Y5897D01*
X113476Y4936D01*
X114110Y4110D01*
X114936Y3476D01*
X115897Y3078D01*
X116429Y3008D01*
Y6429D01*
D02*
G37*
G36*
X76272D02*
X72851D01*
X72921Y5897D01*
X73319Y4936D01*
X73953Y4110D01*
X74778Y3476D01*
X75740Y3078D01*
X76272Y3008D01*
Y6429D01*
D02*
G37*
G36*
X106283Y6429D02*
X102862D01*
Y3008D01*
X103394Y3078D01*
X104356Y3476D01*
X105181Y4110D01*
X105815Y4936D01*
X106213Y5897D01*
X106283Y6429D01*
D02*
G37*
G36*
X69669D02*
X66248D01*
Y3008D01*
X66780Y3078D01*
X67742Y3476D01*
X68567Y4110D01*
X69201Y4936D01*
X69599Y5897D01*
X69669Y6429D01*
D02*
G37*
G36*
X55496D02*
X52075D01*
Y3008D01*
X52607Y3078D01*
X53568Y3476D01*
X54394Y4110D01*
X55028Y4936D01*
X55426Y5897D01*
X55496Y6429D01*
D02*
G37*
G36*
X33449D02*
X30028D01*
Y3008D01*
X30559Y3078D01*
X31521Y3476D01*
X32347Y4110D01*
X32980Y4936D01*
X33379Y5897D01*
X33449Y6429D01*
D02*
G37*
G36*
X44472D02*
X41051D01*
Y3008D01*
X41583Y3078D01*
X42545Y3476D01*
X43370Y4110D01*
X44004Y4936D01*
X44402Y5897D01*
X44472Y6429D01*
D02*
G37*
G36*
X101862D02*
X98441D01*
X98511Y5897D01*
X98909Y4936D01*
X99543Y4110D01*
X100369Y3476D01*
X101330Y3078D01*
X101862Y3008D01*
Y6429D01*
D02*
G37*
G36*
X65248D02*
X61827D01*
X61897Y5897D01*
X62295Y4936D01*
X62929Y4110D01*
X63755Y3476D01*
X64716Y3078D01*
X65248Y3008D01*
Y6429D01*
D02*
G37*
G36*
X51075D02*
X47654D01*
X47724Y5897D01*
X48122Y4936D01*
X48756Y4110D01*
X49581Y3476D01*
X50543Y3078D01*
X51075Y3008D01*
Y6429D01*
D02*
G37*
G36*
X40051D02*
X36630D01*
X36700Y5897D01*
X37099Y4936D01*
X37732Y4110D01*
X38558Y3476D01*
X39519Y3078D01*
X40051Y3008D01*
Y6429D01*
D02*
G37*
G36*
X29028D02*
X25607D01*
X25677Y5897D01*
X26075Y4936D01*
X26708Y4110D01*
X27534Y3476D01*
X28496Y3078D01*
X29028Y3008D01*
Y6429D01*
D02*
G37*
G36*
X120850Y6429D02*
X117429D01*
Y3008D01*
X117961Y3078D01*
X118923Y3476D01*
X119748Y4110D01*
X120382Y4936D01*
X120780Y5897D01*
X120850Y6429D01*
D02*
G37*
G36*
X80693D02*
X77272D01*
Y3008D01*
X77803Y3078D01*
X78765Y3476D01*
X79591Y4110D01*
X80224Y4936D01*
X80623Y5897D01*
X80693Y6429D01*
D02*
G37*
G36*
X127453Y6429D02*
X124032D01*
X124102Y5897D01*
X124500Y4936D01*
X125134Y4110D01*
X125959Y3476D01*
X126921Y3078D01*
X127453Y3008D01*
Y6429D01*
D02*
G37*
G36*
X90839D02*
X87418D01*
X87488Y5897D01*
X87886Y4936D01*
X88519Y4110D01*
X89345Y3476D01*
X90307Y3078D01*
X90839Y3008D01*
Y6429D01*
D02*
G37*
G36*
X145669Y22276D02*
X144032Y22148D01*
X142435Y21764D01*
X140918Y21136D01*
X139518Y20278D01*
X138269Y19211D01*
X137203Y17962D01*
X136345Y16562D01*
X135716Y15045D01*
X135333Y13448D01*
X135204Y11811D01*
X135333Y10174D01*
X135716Y8577D01*
X136345Y7060D01*
X137203Y5660D01*
X138269Y4411D01*
X139518Y3344D01*
X140918Y2486D01*
X142435Y1858D01*
X144032Y1474D01*
X145669Y1346D01*
X147306Y1474D01*
X148903Y1858D01*
X150420Y2486D01*
X151821Y3344D01*
X153069Y4411D01*
X154136Y5660D01*
X154994Y7060D01*
X155622Y8577D01*
X156006Y10174D01*
X156135Y11811D01*
X156006Y13448D01*
X155622Y15045D01*
X154994Y16562D01*
X154136Y17962D01*
X153069Y19211D01*
X151821Y20278D01*
X150420Y21136D01*
X148903Y21764D01*
X147306Y22148D01*
X145669Y22276D01*
D02*
G37*
G36*
X11811D02*
X10174Y22148D01*
X8577Y21764D01*
X7060Y21136D01*
X5660Y20278D01*
X4411Y19211D01*
X3344Y17962D01*
X2486Y16562D01*
X1858Y15045D01*
X1474Y13448D01*
X1346Y11811D01*
X1474Y10174D01*
X1858Y8577D01*
X2486Y7060D01*
X3344Y5660D01*
X4411Y4411D01*
X5660Y3344D01*
X7060Y2486D01*
X8577Y1858D01*
X10174Y1474D01*
X11811Y1346D01*
X13448Y1474D01*
X15045Y1858D01*
X16562Y2486D01*
X17962Y3344D01*
X19211Y4411D01*
X20278Y5660D01*
X21136Y7060D01*
X21764Y8577D01*
X22148Y10174D01*
X22276Y11811D01*
X22148Y13448D01*
X21764Y15045D01*
X21136Y16562D01*
X20278Y17962D01*
X19211Y19211D01*
X17962Y20278D01*
X16562Y21136D01*
X15045Y21764D01*
X13448Y22148D01*
X11811Y22276D01*
D02*
G37*
%LPD*%
G36*
X114548Y89939D02*
Y78863D01*
X114086Y78672D01*
X113702Y79056D01*
X113376Y79274D01*
X112992Y79350D01*
X94462D01*
X93997Y79815D01*
X94204Y80315D01*
X97441D01*
Y84258D01*
X97903Y84449D01*
X99345Y83007D01*
X99410Y82964D01*
Y80315D01*
X103347D01*
Y81473D01*
X105685D01*
Y80488D01*
X110851D01*
Y82494D01*
X112332D01*
X112332Y82494D01*
X112362Y82500D01*
X112598Y82453D01*
X113136Y82560D01*
X113592Y82865D01*
X113896Y83321D01*
X114003Y83858D01*
X113896Y84396D01*
X113592Y84852D01*
X113136Y85156D01*
X112598Y85263D01*
X112061Y85156D01*
X111682Y84903D01*
X110851D01*
Y85909D01*
X111260D01*
Y89030D01*
X108268D01*
X105275D01*
Y85909D01*
X105685D01*
Y83881D01*
X103347D01*
Y85039D01*
X100753D01*
X100497Y85354D01*
X100695Y85811D01*
X100878D01*
Y88083D01*
X99000D01*
Y87411D01*
X98538Y87220D01*
X97505Y88253D01*
X97441Y88296D01*
Y90945D01*
X93504D01*
Y87924D01*
X91430Y85850D01*
X88425D01*
X88309Y85827D01*
X86236D01*
Y87925D01*
X84646D01*
Y88925D01*
X86236D01*
Y91059D01*
X85228D01*
X84835Y91559D01*
X84869Y91732D01*
X84777Y92197D01*
X84953Y92626D01*
X84991Y92697D01*
X105275D01*
Y90030D01*
X108268D01*
X111260D01*
Y92697D01*
X111789D01*
X114548Y89939D01*
D02*
G37*
G36*
X55709Y95669D02*
X59094D01*
X59301Y95169D01*
X58936Y94804D01*
X58719Y94478D01*
X58642Y94095D01*
Y91248D01*
X58268Y90945D01*
X54331D01*
Y86221D01*
X55292D01*
Y85731D01*
X55292Y85731D01*
X55383Y85270D01*
X55645Y84880D01*
X62086Y78438D01*
X61895Y77976D01*
X60251D01*
X60163Y78064D01*
X60156Y78097D01*
X59852Y78553D01*
X59396Y78857D01*
X58858Y78964D01*
X58321Y78857D01*
X57865Y78553D01*
X57560Y78097D01*
X57453Y77559D01*
X57560Y77021D01*
X57865Y76566D01*
X58321Y76261D01*
X58580Y76209D01*
X58752Y75927D01*
X58518Y75442D01*
X55929D01*
Y78347D01*
X55837Y78807D01*
X55576Y79198D01*
X55576Y79198D01*
X52571Y82203D01*
Y86197D01*
X52981D01*
Y88872D01*
X50000D01*
X47019D01*
Y86197D01*
X47429D01*
Y81090D01*
X50278D01*
X53520Y77848D01*
Y75442D01*
X48839D01*
X48836Y75441D01*
X48833Y75442D01*
X48610Y75348D01*
X48387Y75255D01*
X48385Y75252D01*
X48382Y75251D01*
X46217Y73046D01*
X46127Y72822D01*
X46034Y72598D01*
Y69095D01*
X46221Y68642D01*
X46673Y68455D01*
X49724D01*
X49947Y68547D01*
X50171Y68637D01*
X52327Y70739D01*
X56335D01*
X58491Y68637D01*
X58714Y68547D01*
X58937Y68455D01*
X61988D01*
X62440Y68642D01*
X62627Y69095D01*
Y72598D01*
X62535Y72821D01*
X62444Y73046D01*
X62321Y73172D01*
X62602Y73599D01*
X66124D01*
X66316Y73137D01*
X63715Y70537D01*
X63454Y70146D01*
X63363Y69685D01*
X63363Y69685D01*
Y65910D01*
X61281Y63828D01*
X58937D01*
X58714Y63736D01*
X58491Y63647D01*
X56335Y61545D01*
X52327D01*
X50171Y63647D01*
X49947Y63736D01*
X49724Y63828D01*
X46673D01*
X46221Y63641D01*
X46034Y63189D01*
Y59685D01*
X46126Y59462D01*
X46217Y59237D01*
X48202Y57216D01*
X47992Y56716D01*
X46562D01*
X43724Y59554D01*
Y89265D01*
X46519Y92060D01*
X47019Y91853D01*
Y89872D01*
X50000D01*
X52981D01*
Y92548D01*
X52394D01*
X52242Y93048D01*
X52470Y93199D01*
X52865Y93791D01*
X52904Y93988D01*
X51181D01*
Y94988D01*
X52904D01*
X52865Y95186D01*
X52470Y95777D01*
X51901Y96157D01*
X51876Y96179D01*
X51692Y96719D01*
X51771Y96827D01*
X55709D01*
Y95669D01*
D02*
G37*
G36*
X105275Y74282D02*
X108268D01*
Y73282D01*
X105275D01*
Y70161D01*
X105685D01*
Y69155D01*
X102714D01*
X94988Y76881D01*
X95179Y77343D01*
X105275D01*
Y74282D01*
D02*
G37*
G36*
X61988Y72598D02*
Y69095D01*
X58937D01*
X56595Y71378D01*
X52067D01*
X49724Y69095D01*
X46673D01*
Y72598D01*
X48839Y74803D01*
X59823D01*
X61988Y72598D01*
D02*
G37*
G36*
X113098Y66622D02*
X113170Y66584D01*
Y56301D01*
X110274Y53405D01*
X109813Y53651D01*
X109870Y53937D01*
X109763Y54475D01*
X109669Y54615D01*
Y56046D01*
X110169Y56263D01*
X110289Y56182D01*
X110827Y56075D01*
X111364Y56182D01*
X111820Y56487D01*
X112125Y56943D01*
X112232Y57480D01*
X112125Y58018D01*
X111820Y58474D01*
X111364Y58778D01*
X110827Y58885D01*
X110536Y58827D01*
X103079Y66285D01*
X103270Y66746D01*
X105685D01*
Y64740D01*
X110851D01*
Y66746D01*
X111939D01*
X111939Y66746D01*
X111968Y66752D01*
X112205Y66705D01*
X112670Y66798D01*
X113098Y66622D01*
D02*
G37*
G36*
X61988Y59685D02*
X59823Y57480D01*
X48839D01*
X46673Y59685D01*
Y63189D01*
X49724D01*
X52067Y60905D01*
X56595D01*
X58937Y63189D01*
X61988D01*
Y59685D01*
D02*
G37*
G36*
X71280Y71653D02*
X71539Y71539D01*
X71653Y71280D01*
X71653D01*
Y69172D01*
X71630Y69055D01*
Y63885D01*
X70408Y62663D01*
X70147Y62272D01*
X70056Y61811D01*
X69755Y61430D01*
X68885D01*
Y60152D01*
X68396D01*
X67935Y60060D01*
X67545Y59799D01*
X67545Y59799D01*
X64462Y56716D01*
X60669D01*
X60459Y57216D01*
X62444Y59237D01*
X62535Y59461D01*
X62627Y59685D01*
Y61768D01*
X65418Y64559D01*
X65418Y64559D01*
X65680Y64950D01*
X65771Y65411D01*
X65771Y65411D01*
Y69186D01*
X68215Y71630D01*
X69055D01*
X69172Y71653D01*
X71280D01*
Y71653D01*
D02*
G37*
G36*
X81325Y54956D02*
X81325Y54956D01*
X81716Y54694D01*
X82177Y54603D01*
X82850D01*
Y50567D01*
X86154D01*
X86346Y50105D01*
X76024Y39783D01*
X64690D01*
X64499Y40245D01*
X76305Y52051D01*
X79445D01*
Y54702D01*
X80512Y55769D01*
X81325Y54956D01*
D02*
G37*
%LPC*%
G36*
X103756Y91354D02*
X101878D01*
Y89083D01*
X103756D01*
Y91354D01*
D02*
G37*
G36*
X100878D02*
X99000D01*
Y89083D01*
X100878D01*
Y91354D01*
D02*
G37*
G36*
X103756Y88083D02*
X101878D01*
Y85811D01*
X103756D01*
Y88083D01*
D02*
G37*
G36*
X102862Y76132D02*
Y74910D01*
X104085D01*
X104046Y75107D01*
X103651Y75698D01*
X103060Y76093D01*
X102862Y76132D01*
D02*
G37*
G36*
X101862D02*
X101665Y76093D01*
X101074Y75698D01*
X100679Y75107D01*
X100639Y74910D01*
X101862D01*
Y76132D01*
D02*
G37*
G36*
X104085Y73909D02*
X102862D01*
Y72686D01*
X103060Y72726D01*
X103651Y73121D01*
X104046Y73712D01*
X104085Y73909D01*
D02*
G37*
G36*
X101862D02*
X100639D01*
X100679Y73712D01*
X101074Y73121D01*
X101665Y72726D01*
X101862Y72686D01*
Y73909D01*
D02*
G37*
%LPD*%
D11*
X70472Y88583D02*
X72744D01*
X72835Y88425D02*
Y88492D01*
X72744Y88583D02*
X72835Y88492D01*
X138583Y106693D02*
X154724Y90551D01*
X76070Y106693D02*
X138583D01*
X154724Y83071D02*
Y90551D01*
X74889Y105512D02*
X76070Y106693D01*
X74803Y105512D02*
X74889D01*
X150394Y78740D02*
X154724Y83071D01*
D13*
X68701Y84842D02*
Y90535D01*
X68898Y84646D02*
X69055D01*
X68701Y84842D02*
X68898Y84646D01*
X65551Y84055D02*
Y91535D01*
X67963Y93947D02*
X72096D01*
X65551Y91535D02*
X67963Y93947D01*
X74803Y88425D02*
Y92913D01*
X59646Y86417D02*
Y94095D01*
X65257Y80806D02*
X68958D01*
X59646Y86417D02*
X65257Y80806D01*
X59646Y94095D02*
X63583Y98032D01*
X65551Y84055D02*
X66929Y82677D01*
X69055D01*
X68958Y80806D02*
X69055Y80709D01*
X62992Y40157D02*
X77063Y54228D01*
X77165D01*
X78740Y66142D02*
X81496Y63386D01*
X78740Y69055D02*
X78837Y68958D01*
X81496Y63386D02*
X87660D01*
X78740Y66142D02*
Y69055D01*
X80709Y66535D02*
Y69055D01*
X82480Y64764D02*
X88231D01*
X80709Y66535D02*
X82480Y64764D01*
X94046Y78347D02*
X112992D01*
X114173Y55886D02*
Y77165D01*
X115551Y55315D02*
Y90354D01*
X107874Y22441D02*
Y47638D01*
X96850Y38563D02*
X114173Y55886D01*
X91684Y80709D02*
X94046Y78347D01*
X107874Y47638D02*
X115551Y55315D01*
X112992Y78347D02*
X114173Y77165D01*
X96850Y22441D02*
Y38563D01*
X112205Y93701D02*
X115551Y90354D01*
X94685Y50984D02*
Y62207D01*
X88802Y66142D02*
X92323Y62621D01*
X88425Y70416D02*
Y72835D01*
X84646Y69055D02*
X87837D01*
X87660Y63386D02*
X90551Y60495D01*
X87837Y69055D02*
X94685Y62207D01*
X88425Y70416D02*
X96063Y62778D01*
X88231Y64764D02*
X90945Y62050D01*
X83465Y66142D02*
X88802D01*
X96063Y50394D02*
Y62778D01*
X82677Y66929D02*
X83465Y66142D01*
X88425Y80709D02*
X91684D01*
X91929Y52320D02*
Y61066D01*
X93307Y51749D02*
Y61636D01*
X92323Y50765D02*
X93307Y51749D01*
X78347Y34646D02*
X94685Y50984D01*
X90945Y62050D02*
X91929Y61066D01*
X90945Y51336D02*
X91929Y52320D01*
X76440Y38780D02*
X90551Y52891D01*
Y60495D01*
X92323Y62621D02*
X93307Y61636D01*
X82284Y36614D02*
X96063Y50394D01*
X77581Y36024D02*
X92323Y50765D01*
X77011Y37402D02*
X90945Y51336D01*
X34646Y40157D02*
X62992D01*
X82677Y66929D02*
Y69055D01*
X38780Y38780D02*
X76440D01*
X48819Y37402D02*
X77011D01*
X35039Y35039D02*
X38780Y38780D01*
X46063Y34646D02*
X48819Y37402D01*
X29528Y35039D02*
X34646Y40157D01*
X57087Y33071D02*
X60039Y36024D01*
X77581D01*
X29528Y26929D02*
Y35039D01*
X35039Y22441D02*
Y35039D01*
X79351Y95079D02*
X112795D01*
X119134Y88740D02*
X150394D01*
X112795Y95079D02*
X119134Y88740D01*
X76772Y92500D02*
X79351Y95079D01*
X78740Y92520D02*
X79921Y93701D01*
X112205D01*
X78740Y90093D02*
Y92520D01*
X82677Y88425D02*
X82684Y88432D01*
X72096Y93947D02*
X75787Y97638D01*
X76772Y88425D02*
Y92500D01*
X91339Y16929D02*
X96850Y22441D01*
X102362Y16929D02*
X107874Y22441D01*
X57087Y22441D02*
Y33071D01*
X51575Y16929D02*
X57087Y22441D01*
X46063D02*
Y34646D01*
X40551Y16929D02*
X46063Y22441D01*
X71260Y32677D02*
X73228Y34646D01*
X65748Y16929D02*
X71260Y22441D01*
Y32677D01*
X82284Y22441D02*
Y36614D01*
X73228Y34646D02*
X78347D01*
X76772Y16929D02*
X82284Y22441D01*
X29528Y16929D02*
X35039Y22441D01*
D18*
X77165Y54228D02*
D03*
Y59158D02*
D03*
D19*
X85433Y53777D02*
D03*
Y59608D02*
D03*
X108268Y73782D02*
D03*
Y67951D02*
D03*
Y89530D02*
D03*
Y83699D02*
D03*
D20*
X50000Y83856D02*
D03*
Y89372D02*
D03*
D21*
X71260Y59057D02*
D03*
Y54329D02*
D03*
D23*
X58956Y59799D02*
D03*
Y72484D02*
D03*
D32*
X72835Y69055D02*
D03*
X74803D02*
D03*
X76772D02*
D03*
X78740D02*
D03*
X80709D02*
D03*
X82677D02*
D03*
X84646D02*
D03*
Y88425D02*
D03*
X82677D02*
D03*
X80709D02*
D03*
X78740D02*
D03*
X76772D02*
D03*
X74803D02*
D03*
X72835D02*
D03*
D33*
X88425Y72835D02*
D03*
Y74803D02*
D03*
Y76772D02*
D03*
Y78740D02*
D03*
Y80709D02*
D03*
Y82677D02*
D03*
Y84646D02*
D03*
X69055D02*
D03*
Y82677D02*
D03*
Y80709D02*
D03*
Y78740D02*
D03*
Y76772D02*
D03*
Y74803D02*
D03*
Y72835D02*
D03*
D34*
X78740Y78740D02*
D03*
D35*
X56299Y88583D02*
D03*
X62205D02*
D03*
X57677Y98032D02*
D03*
X63583D02*
D03*
X101378Y88583D02*
D03*
X95473D02*
D03*
X101378Y82677D02*
D03*
X95473D02*
D03*
X100197Y98032D02*
D03*
X94291D02*
D03*
X87992D02*
D03*
X82087D02*
D03*
X75787D02*
D03*
X69882D02*
D03*
D36*
X125394Y51378D02*
D03*
Y45472D02*
D03*
X118504Y51378D02*
D03*
Y45472D02*
D03*
D37*
X82677Y90838D02*
X83465Y91626D01*
X80709Y88425D02*
Y91732D01*
X82677Y88425D02*
Y90838D01*
X83465Y91626D02*
Y91732D01*
X62723Y88905D02*
Y91357D01*
X62402Y88583D02*
X62723Y88905D01*
Y91357D02*
X63976Y92610D01*
Y92716D01*
X56496Y85731D02*
X63487Y78740D01*
X69055D01*
X56496Y85731D02*
Y88583D01*
X58965Y77559D02*
X59752Y76772D01*
X69055D01*
X58858Y77559D02*
X58965D01*
X84031Y55807D02*
X85433Y54405D01*
X82177Y55807D02*
X84031D01*
X80512Y57472D02*
X82177Y55807D01*
X85433Y53777D02*
Y54405D01*
X77268Y54228D02*
X80512Y57472D01*
X77165Y54228D02*
X77268D01*
X80512Y57472D02*
Y61024D01*
X76772Y64764D02*
X80512Y61024D01*
X76772Y64764D02*
Y69055D01*
X84983Y54228D02*
X85433Y53777D01*
X77165Y59158D02*
Y61024D01*
X85433Y59608D02*
X85593Y59449D01*
X88779D01*
X118701Y41339D02*
Y41445D01*
X118504Y41642D02*
Y45472D01*
Y41642D02*
X118701Y41445D01*
X110751Y57556D02*
X110827Y57480D01*
X90888Y76772D02*
X110104Y57556D01*
X110751D01*
X90351Y74803D02*
X108465Y56690D01*
Y53937D02*
Y56690D01*
X88425Y74803D02*
X90351D01*
X114370Y48228D02*
X122244D01*
X125000Y45472D02*
X125394D01*
X122244Y48228D02*
X125000Y45472D01*
X118307Y55996D02*
X118504Y55799D01*
Y51378D02*
Y55799D01*
X118307Y55996D02*
Y56102D01*
X88425Y76772D02*
X90888D01*
X125787Y51378D02*
X131496Y45669D01*
X127953Y16929D02*
X131496Y20472D01*
Y45669D01*
X125394Y51378D02*
X125787D01*
X118504D02*
X125394D01*
X116929Y16929D02*
X125394Y25394D01*
Y45472D01*
X91425Y78740D02*
X102215Y67951D01*
X108268D02*
X111939D01*
X102215D02*
X108268D01*
X88425Y78740D02*
X91425D01*
X133858Y18110D02*
X150394Y34646D01*
X133858Y14113D02*
Y18110D01*
X127953Y8208D02*
X133858Y14113D01*
X100197Y98032D02*
Y98425D01*
X94291Y104331D02*
X100197Y98425D01*
X88189Y104331D02*
X94291D01*
X63779Y103150D02*
Y103543D01*
X64961Y104724D01*
Y140945D01*
X49606Y89923D02*
X50000Y89530D01*
X49606Y89923D02*
Y92807D01*
X51181Y94382D02*
Y94488D01*
X49606Y92807D02*
X51181Y94382D01*
X107640Y74410D02*
X108268Y73782D01*
X102362Y74410D02*
X107640D01*
X84646Y84646D02*
Y88189D01*
X87008D01*
X101378Y88742D02*
Y88976D01*
Y88583D02*
Y88742D01*
X84646Y88189D02*
Y88425D01*
X87008Y88189D02*
X90551Y91732D01*
X98622D02*
X101378Y88976D01*
X90551Y91732D02*
X98622D01*
X83071Y83071D02*
X84646Y84646D01*
X24409Y13326D02*
Y36614D01*
Y13326D02*
X29528Y8208D01*
X24409Y36614D02*
X31102Y43307D01*
X29528Y6929D02*
Y8208D01*
X71258Y54329D02*
X71260D01*
X60236Y43307D02*
X71258Y54329D01*
X31102Y43307D02*
X60236D01*
X127953Y6929D02*
Y8208D01*
X150394Y34646D02*
Y41969D01*
X131173Y121978D02*
X133770D01*
X150394Y105354D01*
X112206Y140945D02*
X131173Y121978D01*
X107186Y145965D02*
X112206Y140945D01*
X64961Y140945D02*
X69980Y145965D01*
X107186D01*
X116929Y6929D02*
X127953D01*
X102362D02*
X116929D01*
X91339D02*
X102362D01*
X76772D02*
X91339D01*
X65748D02*
X76772D01*
X51575D02*
X65748D01*
X40551D02*
X51575D01*
X29528D02*
X40551D01*
X101378Y88742D02*
X102165Y89530D01*
X108268D01*
X118504Y45472D02*
X118504Y45472D01*
X68396Y58947D02*
X71150D01*
X64961Y55512D02*
X68396Y58947D01*
X46063Y55512D02*
X64961D01*
X112098Y68110D02*
X112205D01*
X111939Y67951D02*
X112098Y68110D01*
X50787Y98032D02*
X57677D01*
X42520Y89764D02*
X50787Y98032D01*
X42520Y59055D02*
Y89764D01*
Y59055D02*
X46063Y55512D01*
X71150Y58947D02*
X71260Y59057D01*
X112492Y83858D02*
X112598D01*
X108268Y83699D02*
X112332D01*
X112492Y83858D01*
X84055Y102362D02*
X87992Y98425D01*
X67818Y102362D02*
X84055D01*
X66929Y101575D02*
X67031D01*
X67818Y102362D01*
X87992Y98032D02*
Y98425D01*
X75787Y97638D02*
X76181Y98032D01*
X63583Y97638D02*
X63976Y98032D01*
X69882D01*
X76181D02*
X82087D01*
X87992D02*
X94291D01*
X64567Y69685D02*
X67716Y72835D01*
X69055D01*
X64567Y65411D02*
Y69685D01*
X58956Y59799D02*
X64567Y65411D01*
X54724Y73527D02*
X55220Y73031D01*
X50000Y83071D02*
X54724Y78347D01*
Y73527D02*
Y78347D01*
X50000Y83071D02*
Y83699D01*
X58956Y72484D02*
X59679D01*
X61998Y74803D01*
X69055D01*
X74803Y63386D02*
X77165Y61024D01*
X74803Y63386D02*
Y69055D01*
X71260Y59057D02*
Y61811D01*
X72835Y63386D02*
Y69055D01*
X71260Y61811D02*
X72835Y63386D01*
X107246Y82677D02*
X108268Y83699D01*
X101378Y82677D02*
X107246D01*
X100197Y83858D02*
X100591D01*
X96260Y87402D02*
X96654D01*
X101378Y82677D02*
Y83071D01*
X96654Y87402D02*
X100197Y83858D01*
X100591D02*
X101378Y83071D01*
X95473Y88189D02*
X96260Y87402D01*
X95473Y88189D02*
Y88583D01*
X88425Y84646D02*
X91929D01*
X95473Y88189D01*
X94291Y82677D02*
X94291Y82677D01*
X88425Y82677D02*
X94291D01*
X55220Y73031D02*
X58409D01*
X58956Y72484D01*
D38*
X116929Y6929D02*
D03*
X127953D02*
D03*
X102362D02*
D03*
Y16929D02*
D03*
X91339Y6929D02*
D03*
Y16929D02*
D03*
X76772Y6929D02*
D03*
Y16929D02*
D03*
X65748Y6929D02*
D03*
Y16929D02*
D03*
X51575Y6929D02*
D03*
Y16929D02*
D03*
X40551Y6929D02*
D03*
Y16929D02*
D03*
X29528Y6929D02*
D03*
Y16929D02*
D03*
X150394Y88740D02*
D03*
Y78740D02*
D03*
X150394Y41969D02*
D03*
Y105354D02*
D03*
D39*
X116929Y16929D02*
D03*
X127953D02*
D03*
X102362Y26929D02*
D03*
X91339D02*
D03*
X76772D02*
D03*
X65748D02*
D03*
X51575D02*
D03*
X40551D02*
D03*
X29528D02*
D03*
X150394Y68740D02*
D03*
X150394Y51968D02*
D03*
Y115354D02*
D03*
D40*
X16535Y68899D02*
D03*
X92521Y140945D02*
D03*
X45276Y140945D02*
D03*
D41*
X16535Y88584D02*
D03*
D42*
X112206Y140945D02*
D03*
X64961Y140945D02*
D03*
D43*
X11811Y11811D02*
D03*
X145669Y145669D02*
D03*
X11811D02*
D03*
X145669Y11811D02*
D03*
D44*
X136221Y112599D02*
D03*
Y65354D02*
D03*
X124409Y136221D02*
D03*
X112599Y112599D02*
D03*
X100787Y136221D02*
D03*
X88976Y112599D02*
D03*
X65354D02*
D03*
X53543Y136221D02*
D03*
X41732Y112599D02*
D03*
X29921Y136221D02*
D03*
X18110Y112599D02*
D03*
X29921Y41732D02*
D03*
X68701Y90535D02*
D03*
X70472Y88583D02*
D03*
X83465Y91732D02*
D03*
X80709D02*
D03*
X74803Y92913D02*
D03*
X63976Y92716D02*
D03*
X58858Y77559D02*
D03*
X88779Y59449D02*
D03*
X118701Y41339D02*
D03*
X110827Y57480D02*
D03*
X108465Y53937D02*
D03*
X114370Y48228D02*
D03*
X118307Y56102D02*
D03*
X88189Y104331D02*
D03*
X63779Y103150D02*
D03*
X51181Y94488D02*
D03*
X102362Y74410D02*
D03*
X112205Y68110D02*
D03*
X74803Y105512D02*
D03*
X112598Y83858D02*
D03*
X66929Y101575D02*
D03*
D45*
X74410Y74410D02*
D03*
Y83071D02*
D03*
X78740Y78740D02*
D03*
X83071Y74410D02*
D03*
Y83071D02*
D03*
M02*
